/* XPM */
static char *xpm_[] = {
/* columns rows colors chars-per-pixel */
"60 60 249 2 ",
"   c #011B1D",
".  c #021D23",
"X  c #061E28",
"o  c #062327",
"O  c #01252C",
"+  c #0D2A2D",
"@  c #11262E",
"#  c #032631",
"$  c #022B34",
"%  c #0C2D32",
"&  c #022D3A",
"*  c #102D33",
"=  c #03333B",
"-  c #08363A",
";  c #13373D",
":  c #213F3D",
">  c #5A332E",
",  c #4D3A3E",
"<  c #5B3332",
"1  c #573A38",
"2  c #633A3B",
"3  c #7A3C37",
"4  c #08403C",
"5  c #77423A",
"6  c #47703A",
"7  c #527C3E",
"8  c #083946",
"9  c #133A44",
"0  c #093D55",
"q  c #103F59",
"w  c #483941",
"e  c #643E42",
"r  c #084748",
"t  c #164749",
"y  c #14454C",
"u  c #10534E",
"i  c #084B55",
"p  c #134B53",
"a  c #194955",
"s  c #095659",
"d  c #145254",
"f  c #14555B",
"g  c #1B575A",
"h  c #284B4A",
"j  c #3B4849",
"k  c #244D56",
"l  c #3A4A51",
"z  c #265658",
"x  c #23545D",
"c  c #37575A",
"v  c #0F665B",
"b  c #2E6A57",
"n  c #085C66",
"m  c #175866",
"M  c #14536B",
"N  c #275C65",
"B  c #345C65",
"V  c #275D73",
"C  c #315F76",
"Z  c #06656A",
"A  c #196769",
"S  c #15716A",
"D  c #096A74",
"F  c #186B72",
"G  c #0C7477",
"H  c #13747C",
"J  c #19777A",
"K  c #26686A",
"L  c #356569",
"P  c #2E776C",
"I  c #38766A",
"U  c #2A6876",
"Y  c #386875",
"T  c #267679",
"R  c #2C7B7C",
"E  c #38767A",
"W  c #46494A",
"Q  c #584749",
"!  c #455556",
"~  c #4E5053",
"^  c #6C4A4D",
"/  c #497448",
"(  c #537D43",
")  c #4A7153",
"_  c #60605E",
"`  c #4F5C62",
"'  c #735C64",
"]  c #4B6E6F",
"[  c #596968",
"{  c #497A79",
"}  c #676A6A",
"|  c #63736D",
" . c #6D7171",
".. c #833D3C",
"X. c #81413C",
"o. c #853F41",
"O. c #884A47",
"+. c #99575A",
"@. c #A45E5D",
"#. c #B15A57",
"$. c #9B635C",
"%. c #A7635C",
"&. c #B66159",
"*. c #965967",
"=. c #9B6A65",
"-. c #907470",
";. c #A36662",
":. c #B07573",
">. c #C36F67",
",. c #58823F",
"<. c #1E8979",
"1. c #3F8264",
"2. c #2A847D",
"3. c #3A8579",
"4. c #578343",
"5. c #5B8542",
"6. c #5E8B43",
"7. c #5F9147",
"8. c #618F44",
"9. c #628E4B",
"0. c #649346",
"q. c #689747",
"w. c #659449",
"e. c #68974B",
"r. c #679A4C",
"t. c #6B9A4C",
"y. c #699755",
"u. c #518B6E",
"i. c #4A837A",
"p. c #708572",
"a. c #95887F",
"s. c #A98379",
"d. c #127783",
"f. c #187B86",
"g. c #187E92",
"h. c #237C83",
"j. c #277A85",
"k. c #337B83",
"l. c #387B84",
"z. c #397B93",
"x. c #477A87",
"c. c #5C7D85",
"v. c #737A82",
"b. c #937F88",
"n. c #178688",
"m. c #1B838B",
"M. c #10888A",
"N. c #198993",
"B. c #1C9398",
"V. c #248383",
"C. c #23838A",
"Z. c #2A8788",
"A. c #2C848A",
"S. c #348384",
"D. c #33848B",
"F. c #388889",
"G. c #3B928D",
"H. c #288A94",
"J. c #378C94",
"K. c #2C929B",
"L. c #299599",
"P. c #3D9395",
"I. c #33949B",
"U. c #37989A",
"Y. c #2999A3",
"T. c #339AA2",
"R. c #399BA6",
"E. c #3395A8",
"W. c #24A5A3",
"Q. c #29A6A7",
"!. c #39A4A6",
"~. c #2DB5AF",
"^. c #37A6B1",
"/. c #34B5B4",
"(. c #478A88",
"). c #568689",
"_. c #579C8A",
"`. c #468C95",
"'. c #538B92",
"]. c #469797",
"[. c #599897",
"{. c #6A8D8D",
"}. c #64989C",
"|. c #59A28F",
" X c #72AD96",
".X c #4599A5",
"XX c #429CA4",
"oX c #5799A4",
"OX c #6E9EA5",
"+X c #46A6A8",
"@X c #4CA4AB",
"#X c #53ABAD",
"$X c #59A9AA",
"%X c #4BB2AC",
"&X c #5AB4AD",
"*X c #48ABB3",
"=X c #54AAB2",
"-X c #5DADB2",
";X c #47B5B9",
":X c #5CB4B4",
">X c #59B6B8",
",X c #6BA6AA",
"<X c #65A9AA",
"1X c #6BAAAC",
"2X c #75A9AA",
"3X c #66B1AA",
"4X c #75B6AD",
"5X c #67AAB4",
"6X c #79ACB3",
"7X c #63B6B5",
"8X c #77B7B8",
"9X c #30C5B7",
"0X c #4BC3B8",
"qX c #4ABDC4",
"wX c #50BFCA",
"eX c #75B8C3",
"rX c #38C3C5",
"tX c #4BC8C8",
"yX c #53C7C8",
"uX c #67CAC8",
"iX c #71CCCD",
"pX c #69CAD5",
"aX c #77CDD5",
"sX c #78D5D7",
"dX c #74D9E4",
"fX c #8C8F88",
"gX c #B88E82",
"hX c #87AD99",
"jX c #8BB4AD",
"kX c #89ADB8",
"lX c #87B7BA",
"zX c #84B3BC",
"xX c #8DC4B9",
"cX c #86BAC3",
"vX c #8CBCC3",
"bX c #93BBC3",
"nX c #88C5C8",
"mX c #96C7CB",
"MX c #9BC5CB",
"NX c #99CBD3",
"BX c #8DD4D5",
"VX c #A1C4CF",
"CX c #A5D5DA",
"ZX c #92E1DE",
"AX c #A7E5D9",
"SX c #89DBE1",
"DX c #8EE6EA",
"FX c #AFEBEC",
"GX c #C3F4FE",
/* pixels */
"w.w.w.w.r.r.r.r.,.u._._.}.2X2X2X4X4X8X8X8X8X8X8X8X8X4X1X1X<X5X5X5X5X7X-X-X-X$X&X#X>X@X-X.X].XX[.i.5.8.8.8.8.8.8.6.6.8.8.",
"w.7.7.7.7.r.7.r.xXu.2X3X3X4X3X4X4X3X3X3X<X7X&X-X3X7X3X<X<X7X5X5X5X5X:X:X7X-X-X:XeX@X-X$X>X&X:X<Xi.7 8.8.0.8.8.0.6.6.6.8.",
"7.7.7.7.7.r.7.y.xX X4X3X7X&X3X3X7X7X7X7X>X7X:X>X&X&X>X:X:X:X>X:X:X:X&X&X-X<X&X&X#X-X<X5X:X#X#X$Xi.7 0.0.0.0.0.0.8.8.8.8.",
"7.7.7.7.7.7.7.7.hX X0X&X+X].].(.].`.].U.P.P.P.J.G.P.P.P.].P.P.P.`.P.G.G.(.G.G.`.l.`.`.D.S.:X+X7X{ ,.0.0.e.0.0.0.8.8.8.8.",
"7.7.7.7.7.7.7.r.jX4X%X7X$X$X,X2X,X,X,X,X,X5X5X,X,X X,X2X,X,X,X,X X1X3X X2X,X1X1X,X1X5X5X-X#X>X$X{ 7 8.8.8.8.8.0.8.8.8.8.",
"r.7.r.7.7.r.y.r.jX3X3X&X$XeXmXbXMXMXMXMXmXmXMXMXMXMXMXMXMXMXMXMXMXmXmXMXMXMXmXmXCXvXnX5XP.>X>X+X).7 8.8.8.8.8.8.8.8.8.8.",
"y.7.7.r.7.7.7.r.AX(.:X-X(.BXMXbXo + + + # # % # + + + + + + + % % * % % + % $ - O CXCX6XP.uX+X&X(.7 e.8.e.8.e.0.8.8.8.8.",
"7.7.7.7.r.r.7.r.AX3X:X-X].nXMXkXo + * * * * * 9 % % + * * + + * * % % % * % % $ ; bXMXcXF.yX+X+Xi.7 8.e.0.0.e.0.8.8.0.0.",
"r.r.9.r.e.e.e.e.CX&X&X%XP.ZXmXkX# @ * 8 9 9 8 9 9 * 9 9 ; ; t ; - - 4 ; ; 9 9 ; t kXMX6XZ.iX+XXX)./ 0.8.8.8.0.8.8.8.8.w.",
"7.r.9.9.y.9.e.y.AX&X%X%XU.FXmXOXO 9 9 8 # 8 # & & = $ # & = & 8 - r - t t 4 d a z kXVX8X2.uX+X#X_./ 0.0.w.9.w.w.9.w.8.9.",
"w.7.r.7.e.e.e.e.AX&X0X>XD.FXbXOX. 9 9 X X X X X O # O X $ = $ = 9 o x C L 8 # K h {.vX8XV.iX+X*X}./ e.0.w.w.0.w.9.8.w.8.",
"7.7.7.y.e.e.e.e.AX&X+X&X.XCXVX{.. 9 9 # # & 9 9 % # & & & 8 8 $ 8 Y Y ] 8 r 8 g B ).mX8X2.uX@XXX_./ e.e.w.0.w.0.8.9.8.8.",
"9.w.w.w.y.w.e.e.xX0X:X:XF.GXbXv.. : ; - 9 q 9 q # # 8 # $ 8 8 8 C C C q 8 0 8 U B { bXnXV.uX*X=X$X) 0.w.0.0.0.0.w.w.9.8.",
"w.r.w.w.e.e.e.0.AX|.#X:Xl.GXVX] O 9 - - 8 q q 9 & 8 # 8 r 8 0 U z.x.x.V 0 i 8 k.Y L CX5XF sX!.=X$X) 5.w.w.w.0.0.e.e.w.e.",
"9.w.w.e.y.t.y.hX8XsXsXiXBX<XmXN $ a - 8 & 0 0 q 0 q 0 M V M M z.U M M M d.n Z J K x vXFXsXiXdXeXiXxXp.0.w.0.0.0.9.e.e.w.",
"y.w.y.e.e.y.t.u.u.G <.H F i mXk O a 8 8 0 q 0 0 0 0 0 M M V M M M M D M M n Z D.E y NXl.h.D D n f b / q.e.e.e.e.8.8.9.9.",
"e.0.e.e.e.e.y.9.u.H d.h.T N kX9 B B U U V U C C C C V C '.oXoXoX,X,X<X5XcX8X5XnXcXz MX[.2.G f.j.T I ( r.r.e.0.e.8.0.0.8.",
"9.e.9.e.e.t.y.e.u.m.D f.r [.kX# B B C j.V U L C L N U K '.}.oX}.2X2X,X6X6XzXzXlXVXk MX(.S >Xf.j.T ).4.q.q.q.e.0.0.0.0.0.",
"0.e.e.e.e.e.e.t.u.9X>X=XF.8XMXo o # & 8 & = = $ & = 8 = $ = # 8 8 8 - r a x k t k k MXmXT DX.XR..X{ 4.t.t.q.0.q.0.0.q.0.",
"e.0.e.e.e.e.t.t.|.%X*X.XR cXbX# @ ; 9 0 y t 4 : y r 8 r r r 8 y y t r 4 r 8 8 r 9 B CXmXF SXXXE.XXx.5.q.e.e.q.q.8.8.8.8.",
"e.0.e.e.e.e.t.y.|.Z Z *XS.NXvX  O 9 p m f d u u u s Z.S.F.v A A A K S S S S F A K x AXnXT DXh.D U.x.,.e.q.q.q.q.0.0.0.7.",
"0.e.e.e.e.e.e.t.u.Z d.@XU lXvX.   r i m m g z g v S V.V.G.D J S.D.3.2.2.<.2.F.A N g NXnX2.DXJ.H .XE ,.q.t.e.e.0.0.0.0.0.",
"0.e.e.e.e.e.e.t.|.D H =XF.mXzX# o t f m K B c b A T Z.I.Z.Z D A.F.(.1.3.3.3.F.S K a FXnX3.iXJ.J U.E ,.t.e.q.q.0.w.w.0.0.",
"e.0.9.e.e.e.t.t._.D m.XXR lXvX. O t p m B c c c L P V.V.U.Z F V.(.2XhXhXhXi.K F K m FXvXS.uX.XH +XK 7 r.e.e.q.q.e.e.0.0.",
"e.0.e.y.t.y.t.t._.D N..Xk.lXkXX o t t d l ~ W ~ c { S.F.G.Z S 2.).fX-.-.-.| K A U x FXnXk.eXT.f.+XP 5.t.e.e.q.q.q.q.q.q.",
"e.e.e.e.t.t.t.e._.G Y.XXT cXlX. O h d z l ~ Q ~ c { 2.2.I.S G J u.fX;.:.=.} P S R t FXcXF.pXH.d.+XP 7 t.q.q.e.0.8.q.8.0.",
"e.e.e.e.t.t.e.e._.d.^.XXU lXkX. O u d z l ~ ^ Q ! { 2.V.L.G G 2.i.fX&.>.;.} P J S.i FXcXJ.>XH.n.*XP 5.e.e.q.0.q.8.8.0.8.",
"e.e.e.e.e.e.t.y._.d.^.@XS.lXkXX o u f z j ~ e Q l { S.n.!.G G 2.{ fX&.&.;. .K T A.r CXnX`..XT.N.*XT 4.e.q.0.q.0.8.0.8.7.",
"e.e.e.e.e.t.e.y.|.d./.R.x.cX2X# O p f N l ~ e ^ ! { V.f.!.J G A.i.fX&.&.=. .K f.F.p mXeX.X.XE.h.;XP ( t.e.q.0.q.0.0.0.0.",
"e.e.e.e.e.y.t.hX].N.qXT.`.bXOX# O a m x l Q e Q ! ] A.f.U.G H D.{ fX%.&.=.| K C.D.i mXcXoXP.J.g.;X3.6.t.r.q.e.q.q.0.0.q.",
"e.e.e.e.e.t.t.hX].N.qXE.oXbX{.% # a g x j Q 5 Q ! I F.<.I.H H S.i.fX%.&.=.| K m.H.i 8XcXoXz.K.N.wXR ( t.t.q.e.q.0.q.q.0.",
"y.e.e.e.e.t.t. XP.N.qXR.<XvX).O # f g z j Q 1 1 ` Y V.<.U.J J k.i.a.%.&.=.| F M.I.s [.cX,Xj.I.N.yX2.5.t.t.t.r.e.q.0.0.q.",
"t.t.t.t.t.t.t. X|.B.0XI.7XbXc.O $ g f z ! Q 1 Q [ ] S.C.!.f.F l.(.fX+.&.%.} S B.!.r }.cXoXj.g.H./.V.4.t.t.t.q.q.q.q.0.0.",
"t.t.t.t.t.t.t.4XU.Q.yXH.eXkX{ O & g f k j Q , 5 _ ] R J L.m.f.k.x.v.@.&.;.} T n.Q.s E zXOXF H.L.tX2./ t.t.t.q.q.e.q.q.0.",
"t.t.t.t.t.t.t.3XU.L.yXB.eXkX] @ $ g g h j , 2 2 _ ] S.<.W.n.j.k.x.v.@.#.+.} R B.!.F E cXeXM Y.N.tXC./ q.q.q.t.q.t.q.q.0.",
"t.t.t.t.t.t.t. XU.W.tXZ.cXkX` # = d v z ! 1 2 > _ L 2.M.Q.f.f.k.c.v.+.#.;.} l.L.T.J Y kXoXn E.B.yXJ / e.q.q.q.q.q.q.0.0.",
"t.t.t.t.t.t.t.|.H.^.qXf.SXbX` X 9 a M d l w 2 < _ ` k.h.Y.M.m.C.Y v.+.@.=.} 2.L.!.T k jXoXi K.B.yXD./ q.q.q.q.q.q.q.q.0.",
"t.t.t.t.t.t.r. XI.N.;Xd.bXcXk X 8 M M f c w w w [ { z.j.^.N.g.g.E {.' *. .| T Q.!.A.t kX2Xi Y.N.qXj./ q.q.q.q.q.t.e.r.q.",
"t.t.t.y.t.t.t.u.U.T.^.D bXkX@ X 8 x m g N k h h C U j.g.E.g.d.j.3.E ` [ ] l.f.Q.Q.U.q kX5Xi B.Y.yXT / t.t.q.q.q.t.t.e.q.",
"t.t.t.t.t.y.a.|.J.DXE.M NXkX@ X 9 N i p a q 9 x K F d.g.^.g.j..XT S T R j.A.N.~./.U.a 6X6Xi H.pXDX2.6 t.t.t.q.q.e.e.0.0.",
"t.t.t.t.t.t.q.$X].H.J.s nXkXo . t f u s g g a C Y E f.g.^.m.U 2XT z.K.B.Y.^.Q./.~.XXm kX6Xi Z.K.m.S.) 6.r.q.q.t.q.q.q.q.",
"t.t.t.t.t.t.6.(.D.D.D.i nX6Xo o p d u u t Y x.OX6X<XJ H.Y.J ).B m g.B.B.~.Q.Q.~.~.%Xd vX5X8 Z.2.Z.T ] 6.q.q.t.q.t.t.q.q.",
"t.a.t.t.t.t.7 ZXDXSXDXSX8X6X  o a f d r = y & x r A j.H.T.j.] { F I.Y.Y.Q.Q.~./.~.].b nX3XFXSXsXsXBXCX,.q.q.t.t.q.q.q.q.",
"t.t.t.t.y.t.xXnXBXaXiXaX<XjX  o x A d u a k x Y E T g.f.*Xj.l.,XT C.K.E.Y.Q.~.~.9X0Xs lX3XBXiXsXsXsXnX) q.t.t.t.t.q.q.q.",
"t.t.t.t.t.t.4X7X=X>X.XJ.(.2XX . N m s N L N c { S.V.f.g.E.d.j.J.R.R.].+X+X~.W.~.9X0XM nXSX>X-X7X>X7X5X/ q.t.t.t.t.t.t.t.",
"t.t.t.t.t.t.|.&XI.R.=X@XR 2XX X x s i m z ` ! }.(.J f.m.R.N.g.j.XX7X XjXxX3X<.9X9XyXi ,X>X*X-X*X%X+X$X) t.t.t.t.t.t.t.t.",
"t.t.t.t.t.t.].U.H H *X.X`.OX. @ x s s x W Q 1 a.| U J f.T.d.g.g.`.jXa.s.fX{.2.9X9X0Xr }.#X*XI.D Z H.#X) q.t.t.t.q.r.q.q.",
"t.t.t.t.t.q.+X!.n.M.qX@X'.hXX X z d r k W ^ O.-.[ N j.J T.N.g.C.(.hXs.>.gXp.2.~.9X%Xu ,XP.!.!.m.n.!.P./ q.t.t.t.t.t.t.q.",
"t.t.t.t.t.r.%XW.n.m.*X*XoXOXX X k a r u ~ < +.;.} B S H Q.f.N.z.(.fX:.>.gXp.<.9X~.9Xu lXG.;XY.N.N.;X].b q.q.t.t.t.t.t.q.",
"t.t.t.t.t.r.!.~.n.H.R.R.5X}.X X k y r z ! Q *.*.` L R J T.f.g.C.(.{.-.:.gX .n.9X9X0Xr jX(.!.Y.M.B.E.U.] 0.q.t.t.t.q.q.q.",
"t.t.t.t.t.( +XL.L.K.E.J.5X}.X X N p r r h w ' ' c N T J !.n.g.h.Z.'.v.b.-.{ H.rXW.tXr jXG.@XT.N.Y.R.I.b q.t.t.t.t.t.q.q.",
"t.t.t.t.t.4.U.Q.N.Y.E.E.5Xc.@ X a i r p t ; ` ` B A F H R.N.M.N.T.D.).c.).'.H.9X~.0Xv }.`.].K.N.Y.f.I.I 0.t.t.t.t.t.t.t.",
"t.t.t.t.t.( J.B./.pXK.H.eX).o   m i r u r 4 b z F Z A D T.N.N.N.B.M.L.G.P.%X~.rX~.0Xv }.`..XI.^.wXL.G.E 6.t.t.t.t.q.q.q.",
"t.t.t.t.t.9.R.L.L.I.K.D =Xx.@ o N i 4 4 r r A K K A T j.I.V.m.C.H.L.L.L.U.U.Q.Q.<.uXv }.z..XJ.E.N.N.Z.(.6.t.t.t.t.t.q.q.",
"t.t.t.t.t.kXaXyXpXpXdXpX.Xx.  o - $ + % 4 4 4 4 8 8 9 a p r u u i g u g g b A v v 3.L (.-XeXaXpXdXuXsXnX7 t.t.t.t.t.t.t.",
"e.t.t.t.( ).D.I.H.H.f.C.T y j j ` } _ } } [ | | [ | | [ [ | | | [ | | [ [ ] ) ] ] h ) L J.E.A.K.H.K.D.(.( q.t.t.q.q.q.q.",
"t.r.r.t.( E C.n.N.n.C.C.E L , , < < < < > > 2 2 > 2 > > > > > > < > > 1 > 1 , > 1 1 , ! j.n.M.n.m.h.Z.I ) 7.r.r.t.t.t.q.",
"r.r.r.t.6.Y h.m.V.2.f.S.Y [ ^ O.O.O.O.O.X.X.O.O.O.O.O.O.O.X.X.O.O.O.^ O.O.O.O.^ X.X.^ } E f.n.n.C.h.R 3./ 6.r.r.t.t.q.q.",
"r.r.r.t.9.] l.D.k.l.R l.I | ' *.$.$.%.$.+.%.@.@.;.;.%.$.%.%.%.%.$.$.@.@.@.@.@.%.;.;.;.-.] j.T R T J 2.i./ ( t.r.t.q.q.q.",
"t.t.r.r.4.9 f n f f g a h j 2 3 3 5 5 5 3 ......X.5 5 5 5 X.X.5 5 5 X.....o.o.X...3 5 _ k A F A K v b b 6 7.t.r.t.q.q.q."
};
