/* XPM */
static char *_b5b00efc5254885bf997407110a7351cDuDdRfV3EhQpfeD[] = {
/* columns rows colors chars-per-pixel */
"60 60 44 1 ",
"  c #6EA14C",
". c #649647",
"X c #669848",
"o c #FEDF5D",
"O c #6CA04A",
"+ c #689949",
"@ c #6A9E48",
"# c #E6B21D",
"$ c #699B48",
"% c #6EA24B",
"& c #639546",
"* c #70A34E",
"= c #6D9E4C",
"- c #70A44D",
"; c #699A49",
": c #6C9C4B",
"> c #E8B41E",
", c #E6B01A",
"< c #609242",
"1 c #E9B71E",
"2 c #73A650",
"3 c #E5AD17",
"4 c #E3A40E",
"5 c #EBBC21",
"6 c #F1C522",
"7 c #EFC122",
"8 c #F7D954",
"9 c #E4A912",
"0 c #F6D23E",
"q c #E39B0C",
"w c #779F48",
"e c #F3CB31",
"r c #DEC02A",
"t c #8FA241",
"y c #C4BA39",
"u c #E38903",
"i c #DF900A",
"p c #BFC55D",
"a c #92AF52",
"s c #B1A533",
"d c #A9B751",
"f c #DCD160",
"g c #D2A51C",
"h c #CDB02D",
/* pixels */
"O@ @@O@@@%%%%%%*%-%%%---2%----2-%-22--22---22-%O%-%%*%%O%O%*",
"@= @@@@ @OO%%%%%-%*--------22-2-O%-------2-2--*%-2-----  % %",
"@ *OOOOO@@ *O*-%%%----2-----2-22*%%---%O-*-%%-2*%O--%%% *%OO",
" *  @@O@@O%%*%-2O%--*2*-%---2*OO%%-2%--OOO%  %2%% 2*OOOO= OO",
"@@@O@@O@@OO@%%%%@%%%%----2----O %%-%%-%%%%%%*-22**2%%%  = @=",
"$@@$@@@O@OOO--%OO% %%-%%*2%--2%O *----%O ----*22--**%***OOOO",
"OO=@OO@OOO O% OO@  @O* %O-%--- @%*-22-%%%%*-*--***22%  O=  *",
":  O@O@ O@OO%%%O% OOO% %%-*%%%%OO%*2--%2**-  -***22*-*%O   =",
"O  O@@$@@@@O%O% O%%  %O *22*%  *%--*%* %O%%*--****2 -%O@ ==O",
"=* O$@@@OO=* %%% ***O-%%*-***O %%%*** %%@O %2*  O****OO* =:O",
"= =$@@O@ * *   %- *-=OO*%* O*  %%*OO*2-*%%*OO O% *O* * ====O",
"== @O  @@OO*  O  O %OOO% O @*O  O*@OO%*2%*--* %* *%%*O*%  *O",
"::=@@O=@:@@O@OOO=@OO O %**O*% OO*- --**--O*  @O % @OOOO *%@$",
"@=@@OOO @@@O@ O @@ %*%  O *2aaaddppppd*  %%O@ *-2 OO%O   *O$",
"$O@@O@@O@@@O@@O$$O$=@ *adpff88ooooooo8a  *%*OO%--* % OOO   :",
"$;X$O@=$$@@@OO@@=O=2apf8oooooooooooooof2O%   @O@%- *=O   OO=",
"=:X$@$@@$OO@OO@@ apfooooooooooooooooooop2@O@O * %*  *   =$O=",
"$@;$$@@@$O@@@@$ap8oooooooooo8888oooooooop %%*** ==O**  O @@=",
"$@=::@@@O=:$@2p8ooooooooooo06e008ooooooof*   ***===* =@*==: ",
"@@$:$$$$$@@wd8oooooooooooooe76e008oooooo8a =  @= O     O=@=*",
"$@$@$$$O$$afoooooooooooooooo000088ooooooo8p2 =O @  @@O@;O== ",
":@@=$X$@O:ye008880e08oooooooooooooooooooooop-**=O   ==@=O $X",
"@@$XXX$:@:y67766666e0oooooooooooooooooooooood O   * **O=::;=",
"@$=$$::$$=y65117666e0800088ooooooooooooooooo8a@@=O* ===O==:=",
"$:=@::$$@*y71>#17e0e0e77766e0088ooooooooooooof2:===:@OO=== :",
"=$$OO@$$= y71###16eee51111557766e0088ooo88oooof*:== ==  $@=;",
":$$:==O===y71####>151>####>>>11555776e080e8oooop=$ =   =:==:",
"$+;$=:@=$$y71################>1>>>111556eee00088a=OO *==::=:",
";;:$:$+:+;y71#######,,,,,,,,,qq,#####>>>1555766ey = = == ==:",
";;:+;$+:;=y71######,,,,,,,,##9q3####>>####>11576rw:=:@=;::==",
"+:$+;;$@$:y71###3#1##,##,,,,>1>###,949>1###>1576rw+;$+@:=:::",
".:;$;X+:;$y71##qiiq##,###,,######3iuuui3>###>156rw:$$@:$==:;",
".;+X+X=:XXy71##qiiuq>,###,,,####>9iuuuuu3###>156rw;=;$:===:=",
".X.+;X;;X;y71#>,34qq##,,,,,,,,,#>3qqiiiuq>##>156rw@=$+: ===:",
"X++XX+::::d71>#57#3#>,,,,,,,,,##>5439qqq4>##>156rw@=$$@$$==$",
"$=X&X;$+:+d71>#>555>,,,,344,,,,#>55e54443>##>156rw$$+$$+;$==",
"X+XX;;X$=.d71>#####,,,,,quuq,,,,#177#99#1###>156rw$$:$$$$$=:",
".X+$;X;+$:d71>,,,,,333334quuq,3,,#157751>#,#>156rw+X+::;:$@$",
"&XX++<X;;;t71>,,,333333#94qiu4333,#>>>>##,,#>156rwX;$=:X$:X$",
"..&XX+.+..t75>,,,333993>,99qiq33333,#,,,,,,#>156rw$;;$;X$:=:",
"&.X&+;.X&&t75>#,3394499311>4q493333333,,,,,#>156rw;$X+...$$:",
"<.XX:.XXX;washh339qiiq449,3999999993333,,,#>1156rw$$X+.;:$+;",
"..&&X&.X.X+;$:wttss;+tg44444444449999933,#3q4>56rw:$+.++X+XX",
".&<<&.&.&XXX:;+++X+:;:ssgg444444444999933#9qu976rw;X$;..X&&&",
"X&<<.X.&&.XXX+X;;;;:+:::wwtssgg4444449933#1>4>56rw$+$+&.X.&X",
"&&<X&XX.&&.<.&X:;:;:..;:;+X==wwtssgg49993,155556rw$=;X+&&&.X",
"&X&&&.;X&.;<<X;;+X+:+++;:;;::::$::=wttssg3,>1176r:$+.XXXX;+X",
"<&&&..;XXX&+..&+$:+X&X=::++;;=;;;:$+$$=:wttshhr6y;+X..X.&XXX",
"<&<X.XXXX.+XXX+::==;+:+;;:+;:+.+$:::$=$::+XX=wwt:X:$XX..X...",
"&&..&..X+.X+$;;:=$;X$+X;+;;;$.$;;:;$+X;:$XXX.<.+..;+XXXX:+&<",
"+.<&.&..&+.+;XX;:+$$+;X+++$$:;$:$:X$+.+++XX..&.X..+X.XX.XXX<",
"X&<&X&..&X+++XX$:;::;+:+;++;::;=;X+::;+++;X.;X.<&&.+X;XX.&.<",
"<&.&&XXX...&+:+X:++=:$;;::;;.+;+:$XX;X..X;..X..X+X.XX..X.&&<",
"<<XX&<.&<.&...&.&XXXX:+;:::;+XX;:$+X+X.+:XX.XX+:$X+X.+..&&&&",
"<<<.+.X..&&X&.X+XXX+X;+;;;;:@$+$$X+XXX+=:$$+X$;+.&&..&&..&&&",
"<<<<&...&&X...&XX+$;++;;;X+X++X+X.&$..X:=:+X;+.+;&.&<&.&&&&&",
"&<<<&.+.&.&<<<.&.X+X+.+&XX.$=+X+...+X.XX$.XX+.X...XX.&&.<<..",
"<<<<.X&&<..<<<<<<&&&.++.X+X+=+.+XXXX.X.X;.X+:;X&&&&X&&&X&&&&",
"<<<<&.X.&.X&&X<<<<<.<;;...+X+;..XXXX...&.&.X..XX.&&..&&..&<<",
"&<<&X&.&X..X..&..&X.&&X+..+;:$+X<&&&&.&&X.X+&X:XX;.<..&.X&.<"
};
