/* XPM */
static char *_06361ef6f45492ceba9222687acfffciHFebBcNqQ4hUfqt[] = {
/* columns rows colors chars-per-pixel */
"60 60 221 2 ",
"   c #002200",
".  c #001837",
"X  c #212A34",
"o  c #2E3938",
"O  c #085600",
"+  c #285707",
"@  c #2C520F",
"#  c #156400",
"$  c #057200",
"%  c #2C6600",
"&  c #296C00",
"*  c #356C00",
"=  c #2A7600",
"-  c #397700",
";  c #2F611D",
":  c #344C32",
">  c #3E593D",
",  c #3E6625",
"<  c #3D6F28",
"1  c #427906",
"2  c #426F1B",
"3  c #477B19",
"4  c #436729",
"5  c #4A7728",
"6  c #466835",
"7  c #4D7536",
"8  c #537A3B",
"9  c #333E57",
"0  c #3D454A",
"q  c #444A4E",
"w  c #455748",
"e  c #50534D",
"r  c #464B53",
"t  c #4F565C",
"y  c #525D5C",
"u  c #4C6846",
"i  c #516B4B",
"p  c #567947",
"a  c #4F6155",
"s  c #566858",
"d  c #597255",
"f  c #5D7B56",
"g  c #666E52",
"h  c #627D56",
"j  c #4D5663",
"k  c #545977",
"l  c #586365",
"z  c #5D6B65",
"x  c #5B626A",
"c  c #5E6472",
"v  c #626A6C",
"b  c #627363",
"n  c #637A62",
"m  c #64736B",
"M  c #686676",
"N  c #646C74",
"B  c #6A6D79",
"V  c #6C7476",
"C  c #6A7A74",
"Z  c #687379",
"A  c #6C747C",
"S  c #737A7D",
"D  c #917B78",
"F  c #3E8100",
"G  c #4A8703",
"H  c #508F00",
"J  c #529204",
"K  c #4C8614",
"L  c #54881D",
"P  c #59931C",
"I  c #568D26",
"U  c #54822D",
"Y  c #568C2C",
"T  c #5B942C",
"R  c #5D992B",
"E  c #468937",
"W  c #4F8B34",
"Q  c #548432",
"!  c #5B8C33",
"~  c #588438",
"^  c #5C8C3D",
"/  c #5D9233",
"(  c #5E923C",
")  c #5C9C3F",
"_  c #628E3E",
"`  c #619435",
"'  c #649B36",
"]  c #62943D",
"[  c #64993B",
"{  c #699C3F",
"}  c #68A23D",
"|  c #5B8243",
" . c #5D8D43",
".. c #5F864A",
"X. c #5E9143",
"o. c #5F9449",
"O. c #618F43",
"+. c #638C4C",
"@. c #639445",
"#. c #689747",
"$. c #669945",
"%. c #699B46",
"&. c #659649",
"*. c #69964A",
"=. c #66994A",
"-. c #6B9C4B",
";. c #709F4C",
":. c #658657",
">. c #738355",
",. c #6B9655",
"<. c #6D9D51",
"1. c #719E52",
"2. c #6DA245",
"3. c #6EA14C",
"4. c #6EA24D",
"5. c #6EA44E",
"6. c #71A748",
"7. c #70A24D",
"8. c #71A54E",
"9. c #6EA151",
"0. c #72A352",
"q. c #71A651",
"w. c #76A953",
"e. c #79A758",
"r. c #5F8368",
"t. c #6C8468",
"y. c #748D6D",
"u. c #6D956A",
"i. c #779568",
"p. c #788878",
"a. c #7B9572",
"s. c #8C8B5C",
"d. c #A49E5F",
"f. c #82947B",
"g. c #A68775",
"h. c #5C7680",
"j. c #6C7483",
"k. c #6F7982",
"l. c #727683",
"z. c #737B83",
"x. c #787D86",
"c. c #787E89",
"v. c #6D7D92",
"b. c #7C8186",
"n. c #7B8787",
"m. c #76828B",
"M. c #7B838C",
"N. c #728590",
"B. c #7E8591",
"V. c #7D8992",
"C. c #7F919B",
"Z. c #82858C",
"A. c #838889",
"S. c #869586",
"D. c #8A9C84",
"F. c #868B95",
"G. c #838C95",
"H. c #868E99",
"J. c #8D9294",
"K. c #879099",
"L. c #8A939C",
"P. c #91969B",
"I. c #939898",
"U. c #989D9B",
"Y. c #A88782",
"T. c #B09391",
"R. c #8FA08B",
"E. c #9BA79B",
"W. c #AEB294",
"Q. c #8E96A1",
"!. c #8F98A2",
"~. c #919AA3",
"^. c #9A9EA1",
"/. c #979DAA",
"(. c #B195A0",
"). c #9EA2A5",
"_. c #A6ABA7",
"`. c #A2A5AA",
"'. c #A6A9AC",
"]. c #AAB6A9",
"[. c #ABAEB5",
"{. c #AEB2B4",
"}. c #B3B7B7",
"|. c #B3B5BA",
" X c #BBBEBD",
".X c #C5958B",
"XX c #D59990",
"oX c #C5BC80",
"OX c #DCA295",
"+X c #E9A69C",
"@X c #F4AE9D",
"#X c #F9AF9F",
"$X c #F4B09F",
"%X c #FBB19F",
"&X c #F2ADA1",
"*X c #FEB5A3",
"=X c #B9C5B6",
"-X c #F8F099",
";X c #B7B8C1",
":X c #BCBDC1",
">X c #BEC2C6",
",X c #C2C3C6",
"<X c #C3C9C5",
"1X c #C4C5CA",
"2X c #C6C8CC",
"3X c #C9CBCE",
"4X c #CCCDD1",
"5X c #CED1D1",
"6X c #D2D4D5",
"7X c #D6D8D9",
"8X c #DBDCDD",
"9X c #DDDEE0",
"0X c #E0DFE2",
"qX c #DEE1E1",
"wX c #E3E4E5",
"eX c #E7E7EA",
"rX c #EBEBEC",
"tX c #F0F0F1",
"yX c #F4F5F5",
"uX c #F7F7F9",
"iX c #FEFEFE",
/* pixels */
"%.$.%.$.%.-.7.%.%.2.%.4.5.5.4.4.4.5.4.8.4.4.5.5.5.8.4.0.8.5.8.5.4.0.8.5.5.w.5.5.5.0.8.5.4.4.0.4.4.8.4.2.4.4.4.9.-.-.%.4.",
"$.%.%.%.%.-.4.-.-.4.4.4.%.4.4.4.5.5.6.4.4.2.4.0.2.0.7.8.0.5.8.0.%.4.5.5.2.5.0.0.8.0.5.8.4.4.0.8.0.0.8.4.4.4.4.9.0.7.-.-.",
"-.%.-.-.%.7.0.4.4.4.-.%.%.9.4.4.0.4.4.4.8.0.6.2.8.4.4.8.8.8.q.0.4.4.4.5.8.4.5.5.4.5.4.8.0.4.2.4.5.4.7.4.7.4.4.4.4.-.-.%.",
"%.-.-.-.4.0.4.4.%.4.%.%.4.4.7.4.7.w.6.2.2.' ,.y.2.7.4.4.8.8.4.4.4.4.0.4.5.5.4.4.4.4.4.5.0.7.4.0.4.4.4.4.-.4.4.4.4.-.-.%.",
"%.%.%.-.%.%.%.4.%.%.%.%.4.2.4.q.4.~ Q +.f p.Q.y.6.w.w.0.0.0.4.4.4.8.5.4.4.4.4.4.4.4.7.5.0.0.0.0.4.4.4.4.4.4.-.-.-.9.9.%.",
"%.-.%.-.%.$.%.%.%.%.-.4.%. .8 p ~ p j x././.n.P / Q ! ' } 6.2.4.4.8.8.8.0.4.%.4.8.0.8.0.w.0.0.4.5.0.7.4.4.%.-.-.-.4.4.-.",
"-.-.4.4.4.4.4.%.4.4.4.4.%.&.&. .u M z.x L.H.4 d B x.z.C r.u.,.2.8.5.w.0.2.4.4.4.4.0.0.0.0.0.0.0.0.4.4.4.-.4.7.0.-.-.-.9.",
"-.%.%.-.4.-.7.-.-.%.4.%.8.4.5 , z N S c.z.A z.Q.C.m.M.Z.T.(.:.2.4.4.8.8.8.7.0.7.8.4.4.0.4.0.0.w.9.7.7.4.4.4.9.-.4.-.%.0.",
"%.%.=.-.4.4.4.-.-.%.%.4.' 5 s V B M.L.G.z.G.!.Z D XX+X@X@Xs.} 0.4.8.4.4.7.4.4.4.4.0.8.4.7.q.0.w.4.8.4.%.%.9.-.%.-.%.-.-.",
"$.%.$.%.-.7.4.%.%.%.4./ s L./.Q.x.M.L.G.L.K.Z .X*X*X%X*X.XE q.4.4.7.7.7.4.4.4.%.-.4.0.4.7.4.4.7.4.4.%.9.7.-.-.-.4.4.4.-.",
"-.%.%.%.-.4.%.%.%.4.' b L.N Z Q.M.M.L.L.K.Z.OX*X#X@X@X*Xg.) 0.7.4.4.%.8.0.4.4.4.8.4.-.4.4.4.4.4.7.0.7.-.-.-.-.4.9.-.-.-.",
"-.%.%.-.4.-.9.%.-.2.:.F.. X N G.M.L.K.L.N.T.OX@X%X%X%X&X>.2.7.4.4.-.%.4.4.8.0.4.8.8.7.4.7.4.0.4.4.7.4.4.4.4.7.4.4.-.-.%.",
"%.%.%.-.4.-.-.%.-.] n.9 d.I.!.G.c.K.K.L.G.Z.x.$X%X@X*XXXE 8.-.7.q.7.8.0.4.7.8.4.4.7.4.-.-.4.4.%.4.4.%.4.8.7.%.-.1.-.%.4.",
"%.$.%.7.-.7.%.-.%.S.k d.-XM.K.G.K.L.K.H.L.H.S OX*X@X*Xg.W 8.4.4.4.8.0.0.0.7.4.4.4.4.%.4.5.q.4.%.4.4.4.7.4.0.4.-.%.0.%.-.",
"$.%.%.%.O.@.2.R 2.z z -XoXv.L.L.K.H.K.L.K.Z.Y.&X@X*X+Xp 8.-.4.4.4.4.0.4.0.8.4.7.4.7.4.4.8.0.0.7.4.4.%.4.4.0.4.-.%.-.-.-.",
"=.$.$.%.%.^ p ].i.# e W.A.H.L.L.G.K.K.K.L.Z.Y..X.X+Xg $.w.;.%.4.4.4.7.4.4.4.4.4.4.4.4.%.%.4.8.7.0.4.4.4.4.4.4.-.=.%.%.=.",
"&.$.%.%.@.*., M 3X5Xt j.G.G.G.L.L.K.K.K.K.K.V.h.D p ) w.7.-.%.;.%.7.-.;.0.-.7.4.-.%.%.4.7.4.9.7.7.9.7.9.4.%.4.-.-.%.%.4.",
"%.%.%.%.%.2...:XiX3XA L.M.M.M.M.M.K.K.K.K.K.L.P.c.f 8.0.0.%.-.7.-.;.;.7.7.-.4.0.7.7.7.0.7.4.-.4.0.0.9.4.9.%.%.-.0.0.<.-.",
"%.$.%.%.%.4.I qXiX8Xj z.B.H.L.G.G.H.K.K.H.L.G.s h d O.7.7.4.-.7.-.7.-.%.7.q.7.7.7.4.7.4.0.7.4.-.8.7.-.4.7.-.-.9.-.0.0.%.",
"=.$.$.#.-.2.i. XiXiX3Xb.V m.M.L.G.L.K.K.K.L.A o 2 2.q.-.7.-.4.q.-.7.-.-.4.q.0.4.-.-.7.4.-.4.4.4.4.4.0.0.<.%.4.0.4.-.-.-.",
"%.%.%.;.<.R R.uXiXuXiXuXyXyX8X^.B.L.K.H.L.N l z.N w U 8.0.-.4.7.4.4.7.7.4.7.%.-.4.4.7.4.4.-.4.4.-.0.' J R 7.;.4.9.9.-.<.",
"%.$.$.%.-.4.] y.`.yXiXiXiXiXwXM.G.L.H.L.G.A Q.!.!.K.Z u [ 6.4.0.7.-.-.7.-.-.-.-.7.4.4.0.7.%.4.0.%.3 a.E.D./ R -.-.-.-.-.",
"%.$.$.$.%.%.%.T 5 U.5X0XrXeXZ.M.L.K.L.L.G.G.L.K.L.L.~.F.C :.! %.q.-.7.;.-.-.7.;.%.-.4.7.;.7.0.2.:.4XuXiXiXwXa.%.0.7.-.%.",
"$.#.%.%.%.%.-.-.9.G & < p 7 p i Z M.G.K.H.H.K.K.K.L.K.L.Q.H.c.s ! 8.0.-.-.-.7.7.4.7.%.4.%.-.6.p wXiXiXyX<X=XD.( 0.-.7.%.",
"-.%.=.%.=.%.-.%.-.0.q.4.2.6.~ Z L.G.G.L.H.L.K.L.H.L.L.H.K.L.~.Q.l.O.7.-.-.-.7.7.4.-.-.-.%.7._ A '.rXyXD.G H ' -.-.%.-.-.",
"$.$.-.%.4.%.%.4.7.$.%.-.w.~ A ~.L.L.G.G.L.G.M.G.L.K.L.L.L.L.K.L.~.y ] 7.%.-.4.%.-.4.-.7.;.$.z Q.A ^.E.J w.0.0.%.%.-.#.-.",
"%.%.-.%.-.%.-.-.-.4.-.0.` v !.L.K.L.m.m.G.L.>XF.M.M.A G.G.L.L.L.L.i $.-.-.7.-.4.$.-.7.;.4.7 M.~.L.F.+.q.-.-.-.-.-.-.-.-.",
"-.-.-.%.%.%.%.%.-.%.0./ s L.L.L.L.L.M.|.J.c.2X1XS M.M.t c.L.K.L.H.:.8.%.-.;.7.;.-.7.-.7.! x ~.L.~.C [ 0.-.%.-.-.<.-.-.=.",
"-.%.-.-.%.-.-.-.-.-.! s K.L.L.L.L.~.j.).2X).1X3X:XV L.c.M.L.H.L.M.4 [ 7.7.0.-.-.4.-.9.-.: F.L.L.K.f 8.<.0.-.-.-.-.%.-.-.",
"=.$.-.%.%.%.-.$.-.] z Q.L.L.L.!.F.m 8 d 1X3X1X1X3X Xx.N K.L.K.!.x z.C 8 / %.7.4.-.q.0.@ l.~.L.~.z.! 0.-.%.-.<.<.1.%.-.-.",
"=.$.-.=.=.-.=.%.%.p B.!.K.L.!.x.8 ` 8.L P.4X,X1X,X6X`.N Q.G.!.c.t ~.!.G.B u 5 ] w.@.@ B ~.L.L.Q.s $.%.-.-.-.-.%.-.-.%.-.",
"@.%.%.&.$.-.%.-.-.6 M.!.L.Q.z.5 2.7.-.-.7 [.4X1X3X:XM.L.H.L.M.q G.L.L.L.~.H.j.w @ 0 M.~.L.L.~.l.5 4.-.-.-.9.-.=.<.-.$.-.",
"@.#.%.&.#.-.%.#.%.~ B.Q.L.H.p 2.%.-.%.%.$.u ;X>X[.P.N L.L.m.q z.K.L.L.G.L.L.!.L.B 0 G.!.L.L.L.w %.%.-.-.-.9.-.0.9.%.%.&.",
"%.#.%.%.%.%.@.%.%.8 B.Q.L.x.^ -.-.7.%.-.e.q., ^.rXrX^.M.m.m.:X{.M.z.H.L.H.K.K.L.~.M.o M.Q.~.x U 0.=.%.7.-.-.9.-.7.-.<.<.",
"@.&.$.%.$.-.-.$.%.^ z.Q.L.c.! q.` 5 #.` - = S.yXiXiXiX7XJ.3X3X3X1X`.A m.L.H.K.K.G.!.V.q !.j., 7.-.%.%.-.%.<.9.%.<.-.=.&.",
"%.#.$.%.%.-.$.$.*.{ n L.K.Z.h = D.eXy.D.4X XiXiXiXiXiXuX:X3X,X1X1X4X,XA.k.L.H.K.L.G.!.M.r 6 %.%.-.$.%.%.-.-.-.1.-.%.#.&.",
"#.-.@.@.%.%.=.-.%.-.| M.N 8XyX5XiXiXt._.iXiXwXuXiXiXiXuX{.1X1X1X1X1X2X4XJ.z.L.H.K.K.K.Q.t [ 0.%.-.-.%.%.-.%.-.-.-.=.-.-.",
"=.&.%.%.#.#.-.%.<.G E.0X8XuXiXiXrX'.Y +.{.U.I.iXiXiXiXuX`.2X1X1X1X1X1X1X3Xb.V.L.K.K.H.L.G.d %.-.$.-.-.%.%.%.%.-.-.-.=.=.",
"=.&.-.%.#.*.*.%.[ f tXiXiXiXiX}.2 K -.-.L $ }.iXiXiXiXtXP.4X1X1X1X1X1X1X3X|.z.L.G.K.K.H.L.G.u ] -.%.9.=.%.-.$.-.-.-.<.=.",
"%.&.%.#.#.$.@.-.- 3XiXuXiXiX7X- 7.w.-.%.e.I 6XyXyXuXiXrX'.,X1X1X1X1X1X1X1X1XG.G.L.K.K.K.H.L.F.a ! 9.-.=.%.<.<.-.-.%.%.-.",
"=.%.#.$.#.$.-.I f.iXiXiXiXuXa.[ 1.-.-.$.-.5 eXyX7XyXyXiX5X{.3X1X1X1X1X1X1X3XP.G.L.K.K.K.K.H.L.L.y U -.$.#.%.-.-.-.-.&.1.",
"^ &.-.#.@.&.1.- 6XrXrXyXiX6XG 0.%.%.-.%.-.8 rXiXS 2X{.8X{.1X1X1X1X1X1X1X1X2XL.G.L.K.K.K.K.K.H.L.Q.x 5 -.-.%.%.=.<.<.-.=.",
"%.%.=.=.#.#.$.p uX6XrX8XiX_.P 1.%.-.-.%.0.& 4XiXF.N c.Z z.{.4X1X1X1X2X2X2X2XZ.K.L.K.K.K.K.K.K.H.L.~.c Q -.%.&.-.=.-.<.&.",
"&.%.&.&.&.&./ t.iX3XwX5XiXD.T 1.-.%.*.%.~ y J.iX'.V.L.L.L.M.[.3X3X1X1X,X2X|.M.~.Q.~.L.K.H.K.K.K.K.L.~.l ] -.&.&.-.<.&.=.",
"#.#.@.#.=.&.] p iX{.1X6XiXD.T -.=.-.<.] m ~.M.J.Z.G.H.L.Q.F.c V p.m b b b s s m A M.F.Q.L.K.K.K.L.K.~.Z.8 -.&.#.&.-.<.<.",
"X.&.@.=.&.&.&.Y {.a.p.3XiXf.I =.*.-.%.:.Q.L.L.B.G.L.L.G.m p | U Y / T ` T ] $.! ! ^ :.t.V.L.K.K.K.H.!.l...<.-.&.&.@.=.-.",
"^ &.&.@.&.%.&.*.K -.F _.iXp.I -.%.1.q.t.B.L.G.L.L.K.G.v ` 7.7.0.0.1.<.<.<.<.<.=.-.-.7.` m L.K.H.G.~.z.p Y F / $.#.#.&.&.",
"@.@.$.&.X.#.#.&.-.-.$.:.1X:.$.*.*./ = # 6 F.~.L.H.H.K.B.8 0.-.%.-.-.%.-.-.<.=.-.<.&.4.7 M.L.G.L.L.j A.=XS._.p.&.=.&.&.@.",
"=.@.&.&.@.&.X.-.@.-.&.$.3 &.*.&.$.f.,X Xh   j M.L.L.L.!.z.5 -.%.-.-.-.%.-.=.-.%.#.-.Y v ~.L.L.G.Z J.{.6XyXwX`.O =.&.=.&.",
"&.@.@.@.#.&.=.&.#.&.&.%.-.%.-.9.Y U.3XeXrX X}.I.A z.M.M.M.v U 9.=.-.-.%.#.%.-.=.%.] w x.m.M.c.F.wXiXuXuXwX8XrX,X7 -.&.-.",
"@. .@.( &.*.&.&.#.@.*.#.%.=.<.$.d :X8X8XuXiXiXiX6X`.|.x.}.9XV I <.*.%.%.&.%.-.=.-.6 6X^.z.2X^.rXiXiXiXiXyXyXiXiXE.G <.@.",
"^ ^ &.&.&.&.X.#.*.&.&.&.#.-.9.1 4XiXiXwXwXuXiXiXiXiXiXyXiXiX1X% 0.&.-.<.-.-.<.<.L J.iXyXyXiXyXiXiXiXiXuX9X4X,XiXS.Y *.@.",
"X.@.@.@.@.&.&.@.&.%.=.@.&.&.$.:.uXuX).3XwXyXiXiXiXiXiXiXuXiXwX; 0.=.%.-.$.&.#.<.Y S iXiXiXiXiXiXiXiXiXuXiXiX6XA.| @.@.-.",
"&.@. . .@.@.=.%.X.&.%.@.&.@.-.3 wX,X5XiXiXiXiXiXiXiXiXiXiXiX'.1 0.=.%.%.&.#.-.=.-.* F.rXiXiXiXiXiXiXiXiXiXiXtX+ =.@.@.@.",
" .@.O.^ ^  .&.&.=.#.#.&.@.=.-.( :.S iXiXiXiXiXiXiXiXiXyX6XJ.< -.%.=.=.%.=.%.<.-.-.<.* > U.1X9XeXrX8X6XrXtXrXU.Q &.X.-.&.",
" .@.@.X. .@.@.@.=.&.#.&.#.=.&.,.[ 5 4XuXyXrX6X8X6X XU.n % G -.%.$.$.=.#.&.%.-.-.%.&.0.] & # @ > i < * p d u 1 =.@.@.&.*.",
"@.X.X.&.#.#.X.@.&.=.=.&.&.#.#.O.<.&.5 f h | K Q 3 - K / 0.0.$.%.&.@.=.=.=.#.%.=.#.=.&.=.0.<.%.#.$.$.=.$.( ( <.&.&.&.&.X.",
"@.@.@.O.@.O.@.&.#.#.@.@.#.#.X.@.@.X.$.[ ] $.<.<.-.<.<.<.1.-.&.=.=.&.%.@.&.&.=.=.#.=.-.%.@.@.&.&.-.&.&.-.&.&.@.#.@.@.@.o.",
"#.O.O.@.@.X.@.@.#.#.&.&.&.=.&.=.&.X.@.X.&.@.-.-.#.&.&.=.%.%.&.=.%.$.%.$.&.&.=.&.@.=.&.&.-.@.&.@.&.&.@.@.&.@.X.X.@.o.&.=.",
"@.O.^ ^ @.@.@.&.#.&.@.&.&.*.=.*.&.#.&.@.=.&.$.*.%.&.&.-.-.-.%.&.X.&.@.#.&.@.&.=.&.<.@.-.-.=.-.&.&.&.&.@.=.&.&.@.@.@.-.=."
};
