/* XPM */
static char *xpm_[] = {
/* columns rows colors chars-per-pixel */
"60 60 221 2 ",
"   c black",
".  c #2B4230",
"X  c #5F7F3E",
"o  c #796235",
"O  c #667A3F",
"+  c #5C5449",
"@  c #605746",
"#  c #697F41",
"$  c #58697C",
"%  c #707471",
"&  c #964800",
"*  c #A05601",
"=  c #947C00",
"-  c #83711D",
";  c #AE6A00",
":  c #B36D00",
">  c #B87201",
",  c #A66C17",
"<  c #B4770B",
"1  c #8B7939",
"2  c #9D7B35",
"3  c #9A7A36",
"4  c #846537",
"5  c #A76E2A",
"6  c #AC7626",
"7  c #B47B2C",
"8  c #BC7D2C",
"9  c #B5762D",
"0  c #A47E34",
"q  c #A67C36",
"w  c #B47E33",
"e  c #B77E38",
"r  c #C67D01",
"t  c #CA7D00",
"y  c #C57803",
"u  c #C37E17",
"i  c #D17F01",
"p  c #C47E2A",
"a  c #843C52",
"s  c #C5006C",
"d  c #817C45",
"f  c #A87E4F",
"g  c #867E67",
"h  c #7E8706",
"j  c #5C8E3D",
"k  c #548F35",
"l  c #5E913E",
"z  c #5D9C37",
"x  c #528F2F",
"c  c #618C3D",
"v  c #79873E",
"b  c #61943F",
"n  c #639A3D",
"m  c #69903D",
"M  c #76952C",
"N  c #58A135",
"B  c #62A33E",
"V  c #5E8F44",
"C  c #5E9243",
"Z  c #5D9945",
"A  c #5C9549",
"S  c #559B4B",
"D  c #5C9C4B",
"F  c #539646",
"G  c #4B9C4C",
"H  c #638D44",
"J  c #6B8D42",
"K  c #768C43",
"L  c #7C8D42",
"P  c #7A8743",
"I  c #639544",
"U  c #699546",
"Y  c #669945",
"T  c #6A9C46",
"R  c #64964A",
"E  c #6A9649",
"W  c #659A4A",
"Q  c #6B9D4B",
"!  c #739346",
"~  c #7B9245",
"^  c #709D46",
"/  c #719D4C",
"(  c #78974B",
")  c #6C9E50",
"_  c #769D55",
"`  c #5AA049",
"'  c #5DA251",
"]  c #6CA146",
"[  c #64A34D",
"{  c #6DA24B",
"}  c #67A547",
"|  c #72A34D",
" . c #72A84D",
".. c #6EA350",
"X. c #68A651",
"o. c #73A451",
"O. c #74A952",
"+. c #79A454",
"@. c #88853C",
"#. c #93843A",
"$. c #9D843A",
"%. c #91893F",
"&. c #99893A",
"*. c #BD812C",
"=. c #A48435",
"-. c #AA8436",
";. c #A5883A",
":. c #BD8333",
">. c #B58537",
",. c #CC8301",
"<. c #CE8902",
"1. c #CD840B",
"2. c #D18406",
"3. c #C6821E",
"4. c #CC8719",
"5. c #D18A1C",
"6. c #D48817",
"7. c #C58325",
"8. c #CD8525",
"9. c #CE8A26",
"0. c #C5832B",
"q. c #CB852A",
"w. c #CE8A2A",
"e. c #D28625",
"r. c #D38B25",
"t. c #D18729",
"y. c #D28B2A",
"u. c #D98926",
"i. c #C48434",
"p. c #CD8C33",
"a. c #C98539",
"s. c #C68738",
"d. c #D28D31",
"f. c #D48B33",
"g. c #D99234",
"h. c #E09633",
"j. c #848542",
"k. c #858C42",
"l. c #8B8348",
"z. c #968B41",
"x. c #829145",
"c. c #889348",
"v. c #969749",
"b. c #BB8D57",
"n. c #BD8A50",
"m. c #869C63",
"M. c #929D6A",
"N. c #9C9A75",
"B. c #8D886A",
"V. c #BB9668",
"C. c #A69C7C",
"Z. c #A69366",
"A. c #99A673",
"S. c #B5A67F",
"D. c #C38B4B",
"F. c #C88945",
"G. c #C7965A",
"H. c #CC8A50",
"J. c #C79A68",
"K. c #CE8F77",
"L. c #C99E7A",
"P. c #D18E71",
"I. c #C9A77B",
"U. c #D2AA76",
"Y. c #CFA06C",
"T. c #DE2485",
"R. c #ED5D92",
"E. c #D56E89",
"W. c #858A90",
"Q. c #B59C87",
"!. c #B6AE8C",
"~. c #D39898",
"^. c #E29A9B",
"/. c #E89E9B",
"(. c #C8A984",
"). c #CEB388",
"_. c #D4B78D",
"`. c #C7AA98",
"'. c #C9B496",
"]. c #D3BB98",
"[. c #D7AE92",
"{. c #E4BE91",
"}. c #E79CA1",
"|. c #DBA2A5",
" X c #D9BAA8",
".X c #E9A3AB",
"XX c #EDA5B3",
"oX c #EFA8B6",
"OX c #F4AAB6",
"+X c #F5ACB9",
"@X c #FAACBB",
"#X c #D9C49B",
"$X c #E1C89F",
"%X c #DBCAA3",
"&X c #D6CAA9",
"*X c #DECBBD",
"=X c #DDD0AE",
"-X c #E4CDA7",
";X c #E6D7AE",
":X c #E6DAB3",
">X c #EADBB3",
",X c #F2CEB4",
"<X c #EFE2B7",
"1X c #F5E6BA",
"2X c #F8E7BA",
"3X c #F5E9BB",
"4X c #FAEABB",
"5X c #F6E7B7",
"6X c #FBB1C0",
"7X c #CDCECB",
"8X c #D9CEC3",
"9X c #DED0C7",
"0X c #FDEEC1",
"qX c #F3ECC3",
"wX c #FFF3C5",
"eX c #FEF2C8",
"rX c #E6E2DF",
"tX c #DBE3E6",
"yX c #EEEBE8",
"uX c #FEFEFE",
"iX c #F3F2F0",
/* pixels */
"Q { Q Y T n T ] { | T ] T } { { { ] { { |  .]  .| } | |  . .{  .{  . . . .{  .|  . .{ ]  .{ }  .] { ] ..X.] Q [ { W T T ",
"Q Q T Q T T Q Q Q Q ] T { ] ] ] {  .{  .] |  .} |  . .|  .{  .{ { {  .} | O.| |  .{ {  . .{ o.| ..] { { o.o.{ Q Q { { W ",
"T T Y Q Q { { ] { o.{ ] { ] ] | | ]  .] }  .{  . . .|  . . .O.O.]  .|  .{ [ [  .] { O.{ ]  .{ | { { o.{ { ] W ] Q { Q Q ",
"T Y Q Q Q T T { | ..] ] T T Q }  .]  . .]  .{  .| ]  .T Y  .] } ]  . .X.Q @.#.! {  . .{ { O.{ { } { { { { ..{ Q T { Q Q ",
"T T T Q ] T T | ] ] | T ] { ] ] ] | } ] |  .{ |  .{  . .X E X.{ {  .[ K p t a.6 T O.O.| o. .{ { { { { Q Q { ..Q ] o.Q W ",
"Y T Q T T T ] T n T T ] T ] ] ] ]  .] ] ] | {  .m O d l.1 4 m [ | X.j.3.q.~.XX^.c.[ +.O.O.{ ..{ { ..{ Q [ Q { { Q W W W ",
"T Q { Q Q ] | ] { { Q { ] ] { { ] ] ] ] ] ] ]  .{ [ W E v 4 6 #.A @.8.4.~.@X+X@X~.` +.| o.O.o.{ { Q ..{ ..Q { ..O.Q Q Q ",
"Y T T Q Q T Q { { | ] T { } ] ] {  .| ] { | ] } T %.-.*.:.0.y.w.2 i.<.K.+X@XOX+XoXM.B O. .O.....{ | ..{ { ..T ) Q Q Q { ",
"T { Q T ] T W { { ] { Q T ] } T | | | { { | Q %.p e.w.0.6 9 w.9.7.r.i..X+XOXOXOX+XQ.N +.+.O.| | { ] o.{ { { ] Q Q Q [ Q ",
"T Q Q Q T ] T T | | W ] ] Q Q { { ] { { | R o 8 r.w.q.>.:.w *.9.p.<.K.+XOX+XOXOX@XQ.N | ..{  .T { | Q Q Q { ..Q Q W { Q ",
"Q Q / T T W ] T { ] T ] ] ] | | { ] | | Q 1 i.i.9.w.p.; > w.0.9.y.<.^.@XOXOX+XOX@XQ.N o.{ { | { { { Q { ..{ Q { W { ) E ",
"Q Q Q | Q W ] { Q { ] { { T T { | { ] { E 5 : ,.w.y.t `.`.,.w.e.9.0..X+XOXOXOXOXOXQ.N +...{ | | { { { { { { ] T Q ] Q Y ",
"T Y T Y W T T { Q { T ] { Q Q ] ] ] { X.#.F.7XI.,.,.L.uXiX7.5.w.5.a.XX+XOXOXOXOXOXM.z o.{ ] { { { o.o.W { ..T Q { Q Q Q ",
"Y Q T T T Y ] { { Q Q } { { T ] ] ] { X.= [.uX*Xt ,.9XuXiXs.5.w.e.3..X@XOXOXOX@X.X/ { O.{ { { X.| ..o.Q Q { { ] { T Q ..",
"T Q T T n T Y T ] T T ] Q ] ] ] ] ] Q W = ].uX*Xt a.yXuXyX,.y.9.d.,.K..X/.OXOX@X`.N  .o.{ { { { ] ] ..{ T { Q Q Q Q Q Q ",
"T Y Y T Y Y ] T T Y ] ] T T [ T { ] T X.=. XuX*Xy J.iXuX*Xt p.w.y.y.q.F./.@XOXOXC.N | { | { ..] { { { { T W Q Q W ] Q W ",
"W T ] W Y T T T | n T ] ] T { ] W { T { @.).rX!.i L.7XuX'.t p.w.w.<.G.XX@XOX@X|.Y | { { | | { ..{ ..T ] Q W Q { Q T Q Q ",
"T T T Y T ] U T T T T n T T { T { ] | } M `.W., g.b.% rXL.t d.e.y.4.H.oX+XOX@XC.N +.| { T | +...[ { { Q / o.) ../ Q Q Q ",
"Y n Y Y Y T T T T | { { T ] | T Q U H ) M (.W.; h.& $ 8Xu 4.i.0.0.9.a.XX+X@X|.B | | o.| | Q | Q { | Q Q { ..) Q Q Q Q Q ",
"Q Y T Q Y n T T ] T W T T ] ] T T Q _ R - P.!.f D.I.&X!.; w >.8 *.4.H.oX@XXXm.n | | ] ..{ / | ..{ Q Q ..o.{ { { Q Q Q Q ",
"Y T n n T T | T T T ] T T ] T ] T Q ) P * _.&X$ _ wX1Xf , 8 0.w.d.<.K.@XOXN.z | / { | { { { Q { T T { Q ....Q { { Q Q ] ",
"Y Y I T T n T T { ] Q n n | T U H J V $.> _.:XB. X4X1XJ.> >.f 0.w.,.}.oXN.n | | { | | T / | | / { { | T E { Q ) Q Q Q ) ",
"I Y I I T Y Y T ] Y Y Y T ] m U { | [ z.6.a.-X=X*X4X>X@ Z.2XU.i y.s.C.m.n | Q Q { | Q | { | | | ] Q Q Q o.o.Q T Q T Q Q ",
"T T T T I Y T ] W ] T Q Q T ] | ] Q { E p 1._.:Xg + .   `.wXY.,.w.c.z T | | | { / ] { T ] | | T { ..Q ] { Q Q ] Q Q Q Q ",
"I I W T Q Y Q Y Q | Q | T Q | ^ | { T ] ^ : {.wX;X  a T.-X1XD.4.v.] / Q Q | ] { T | { Q | Q Q Q { ..{ { Q Q Q Q Q Q ) Q ",
"Q T Y Y I T Q Q T T | T T ] Q | T T T ^ ..m Z.>XeXB.s R.2X%X: w A { / ] { { Q { { | Q Q { { { ] { Q T ) E Q W Q Q W Q Q ",
"I T U Y T | T T Q T Q { | { { / { o.| Q /  .c V.-X;XE.,X;Xn.6.y.8 K [ | | / T T | / Q Q T { o.o.{ Q { o.Q { { Q o.Q Y Q ",
"b I Y Y Q Q Q Q T T ] Q T T Y T Q Q T Q ] W >.2.y #XwX1Xn.y d.w.y.p J ] / { Q | | T Q { | Q { { Q { Q Q Q Q Q Q Q E Q Q ",
"I U I T / Q Q Q T Q E Q T T T T Q Q { ^ W @.e.p.i.3.U.G.,.y.w.9.w.r.*.I | | { | { Q / | { o.Q { Q o.| Q Q Q Q Q T Q E I ",
"b U Y Y T T Q T T Q T T T Q Q | T T T { Y 8 u.7 , r.,.,.w.w.w.w.w.e.9.#.W T Q / o.Q / Q ] Q Q { Q Q Q ) o.Q { E Y b Q Q ",
"I Y n U Y Q W Y { T Y T T T Q Q T Q U ] v t.4.n.!.3.p.Q.F.6.y.9.9.w.r.0.~ X.T / / / | Q T T T T Q | Q Q W Q Q Q W Y ..Q ",
"Y Y T Y I Q Y I T T Q T T / T T T T ] W $.y.,.G.qXb.n.qXI.,.w.9.9.w.w.e.-.D / Q Q Q Q T Q Q Q Q Q ) ..Q W ..W Q Q Q W Y ",
"Y Y I I I U Y U U Q T Y / T Y I U T ] J 0.d.,.V.4X;X#XwX#X,.*.8 e.r.9.w.0.~ { | T / Q / T T Q n { { ..) o.E T U W Y Y W ",
"c Y E E Y Y U T T I T T Q Y Q T Q T W $.e.p.,.J.3X4X3X3X<Xn.6.>.1 0.y.9.u.-.' o.+.Q T Y / { Q T | { Q ..{ ..) Q Q Y E W ",
"b Y Y b I T Y Y E Q Y Y / Q Q T T T J 0.r.p.,.V.3X2X3X5XwXI.,.t.L R -.e.u.0.@.R { | Q T T ] Q T Q W Q ..E Q E Y Y Q W Q ",
"b I I Y Y I Q T Q Y I T T Q Q T | F =.u.9.g.: N.4X4X4X2X4X-Xu u.-.[ ) =.8.w.u.w O Z Y Q Q Q T T Q Q Q { ..Q Q I Y Q Q Q ",
"Y I T I T Y I Y T W E T T Q W W F 1 w.w.e.a.x A.0X4X4X4X2X1XV.,.a.@.{ D =.e.w.w.p p x.X.Q Q Q Q W Q W Q ) Q W Q W Y W W ",
"T R C I W U W I Y Q Q Y Q Y @.#.q e.r.y.8 K k A.4X4X4X2X4X0X_.y d.0.v S &.e.r.0.q 9 x...Q Q Q Q { T { Q W Q Q W Y R W W ",
"E I b Y W Q Q m U T T m T A 3 9 w.w.e.7 H o.n M.3X4X2X4X2X4X>Xi.5.y.0.H ;.u.w 0.p q W { Q Y T { Q T Q W ..Q ) E R W I R ",
"I I Y I T T Y I Y Y Y U T I 1 7 w.e.u.=.Z / n m.1X4X4X4X4X2X0X).t d.r.>.0.;.S U 0 ;.' ` Q Q Q W W T Q ..E Q W ) E Q W Y ",
"I Y I Y Q U n I I T U Q Q V q 8 7 1 *.8.v T T E >X4X2X2X4X2X4X;X:.5.d.8.=.W o.] G C z.&.( T W W Y I W Q Q Q W ) ) ) ) W ",
"I T E I j U Q I Y U Q T Y R C H A D J 2 v [ / x %XwX2X2X4X4X4X0X).,.p.t.3 S W Q ;.0.>.>.>.k.W W Y Q Q T Q ) R ) ) ) R W ",
"I H I Q Y Q W Y I I Y I Y T Y Q Q / Q D W T Q x !.4X2X4X4X4X5X0X#Xr y.y.>.$.>.w.w.z.F ' ( j.W Y Q R E E { W E W A R R R ",
"C I I I Y Y I Y U I I I Y I U Y T Q U / T T Q I m.4X4X2X4X4X5XwX-X7.9.w.0.8 w.-.! A Y Q W Y Q Q I W Y I W Q ) W ) E R W ",
"I Y Y R Y Y I Y Y l I E I Y U T T T E / ) Q Q ) n '.wX5X2X2X2X4X-Xu r.9.q.j.A W Q T Q W Q Q W T I Y R Y W E ) ) E W R R ",
"I l I I I I R R I I Y U Q R I I U I E Q ) Q E Y W 6 $XwX2X3X2XwX_.r w.w.9.k.Z T Q Q W / T { Q Y Y I I Y Q W R E ) ) W R ",
"H I j j l Y I I W Y I I E Q I Q I I Q T E Q Q Q R 7.3.].3X0X0X%X:.5.w.w.e.z.A Q Q ) Q Q Q Q Q Y Q Y Q Q I I Y I A I R R ",
"C I Y C l I C C Y U Y Y Q Y U Y Q I U T Q T R W ! 0.r.r J.).V.7.5.w.w.w.e.%.[ Q Q Q Q W Y W I Y Y C I W Y Y Y I I C R R ",
"I C I R R I Y I I C W R Q U R Q E Y E Q o.Q Q Q L 8.w.y.1.t < >.d.r.w.w.r.=.Z Y Q T W I W Q W W I Y R W E W T R W I R R ",
"j l H I I I I I U Y R Y R Q Y Y E Q Q o.Q W Q D %.e.w.w.y.p.v.S x.q.r.y.r.>.A T Y I T W I Q W Q Y Q Q I A Q U Q R E C R ",
"I C I j l C I I Q C Y I W Y E Y E W Y E Q Q ^ A -.r.w.y.i.c.D ^ ` K 0.r.u.0.U Q U I W W R E W W Q R Q W H Y U A A I I R ",
"I C j I l b E A I H Y Q Y I Y Q Q W W Q Q ) { A :.r.e.y.c.[ | ) T Q ( i.r.t.1 F Z Q I Y I W Q Q U Y R I I R U Y E R I R ",
"I Y l C I b I I Y E I R U R Y U Y Q ) E E / D P q.w.e.;.Z E Q Q Q Y W @.q.r.w.*.@.C Z E W W W R Y Y I C I R C E Q I I C ",
"H I C I I I j b I Q Y C R I Y R E R Y Y R R 2 p 9.9.w.x.W U T Q Q W Q S =.e.w.e.y.8 L Q Q E Y E E R I R I I C A R I R V ",
"I V V j C H H j j C I Q Y T I Y W Y T E R w 0.*.w.e.q.( [ Q W Q Q Y Y D =.u.9.w.0.8 p U C I Y I W W I R R l R W A I W R ",
"V I I C C I I C C I I R Y I I W E R E D j.p 8 y.u.q.$.A T T Y T Z Y T W U ;.0.9.y.p q Q W Y I I R Y I Y I I R E I A I Y ",
"V V Y I c C I I I j Y Y W Y Y Y I I W Y U m P %.#.K A Y ) Y Y T I Y W R Y D H @.$.$.C A R W W C R R C E E R R I C A V C ",
"l I j H I I I I c I I I I I I I C I l j I Y I W D W Q W ..E Y W Y Q Y W T Q Y D D ' Y Y R I Y Y Y R A A I Y R C C C W I ",
"j c j j I c I I l b I I E I U E I R C I I I I Q Q I Y Y Q Q W W Y W Y I I R Y Y E R E R I R A I A R I C C A W W C A C I ",
"j I I I j c j C I C Y U I Y Q I W E Y T I U I I E Y U W Q ..E Y I I I W I I R W W W ) W Q Y I W R W W Y I A E W W W R I "
};
