/* XPM */
static char *_577291366c24ae1abe619acdc605420dCezG7zUCpdCe2eq[] = {
/* columns rows colors chars-per-pixel */
"60 60 224 2 ",
"   c black",
".  c #2B4230",
"X  c #5F7F3C",
"o  c #796136",
"O  c #65793E",
"+  c #5C5449",
"@  c #605845",
"#  c #747E43",
"$  c #57697C",
"%  c #6F7571",
"&  c #974900",
"*  c #A05601",
"=  c #947C00",
"-  c #82701C",
";  c #AE6A01",
":  c #B46D00",
">  c #BB7100",
",  c #B07203",
"<  c #A66C17",
"1  c #B4770B",
"2  c #8B7939",
"3  c #9B7B36",
"4  c #846537",
"5  c #A76E2A",
"6  c #AB7626",
"7  c #B57C2C",
"8  c #BC7D2C",
"9  c #B4762B",
"0  c #A47E34",
"q  c #A57B36",
"w  c #B47E33",
"e  c #B67E38",
"r  c #C57D01",
"t  c #CA7C00",
"y  c #C57904",
"u  c #C37E17",
"i  c #C47E2A",
"p  c #843C52",
"a  c #C5006C",
"s  c #A87E50",
"d  c #867E67",
"f  c #7E8706",
"g  c #5C8E3C",
"h  c #548F35",
"j  c #5D913E",
"k  c #5E9E3A",
"l  c #5E9635",
"z  c #538F2E",
"x  c #618C3D",
"c  c #79873E",
"v  c #61933E",
"b  c #62993F",
"n  c #69903D",
"m  c #76952C",
"M  c #55A234",
"N  c #5AA139",
"B  c #61A53D",
"V  c #5F8E44",
"C  c #5E9243",
"Z  c #5D9B46",
"A  c #5D9549",
"S  c #549B4C",
"D  c #5C9C4B",
"F  c #549746",
"G  c #4F9D4B",
"H  c #638E44",
"J  c #6C8D42",
"K  c #758B44",
"L  c #7D8A42",
"P  c #639544",
"I  c #699546",
"U  c #659945",
"Y  c #6A9C46",
"T  c #65964A",
"R  c #6A964A",
"E  c #659A4A",
"W  c #6B9D4B",
"Q  c #7B9245",
"!  c #709D46",
"~  c #719D4C",
"^  c #76954A",
"/  c #6C9E50",
"(  c #7C9B58",
")  c #5BA14A",
"_  c #5CA151",
"`  c #64A141",
"'  c #6CA146",
"]  c #63A24C",
"[  c #6DA24C",
"{  c #6CA94D",
"}  c #72A34D",
"|  c #72A94D",
" . c #74A34B",
".. c #6EA350",
"X. c #67A551",
"o. c #73A451",
"O. c #73A951",
"+. c #7BA555",
"@. c #8E833B",
"#. c #84863D",
"$. c #93843B",
"%. c #9C8339",
"&. c #93893E",
"*. c #9C8B3E",
"=. c #908931",
"-. c #BE812D",
";. c #B7802E",
":. c #A38537",
">. c #AA8335",
",. c #A5873A",
"<. c #B38134",
"1. c #BC8333",
"2. c #BA843B",
"3. c #B48B39",
"4. c #CC8301",
"5. c #CD8902",
"6. c #CA8307",
"7. c #D18302",
"8. c #D28409",
"9. c #CA851A",
"0. c #D1891B",
"q. c #D48818",
"w. c #C58225",
"e. c #CD8526",
"r. c #CE8A26",
"t. c #C4832B",
"y. c #CB852A",
"u. c #CE8A2A",
"i. c #D38625",
"p. c #D38B25",
"a. c #D18728",
"s. c #D28B2B",
"d. c #D88825",
"f. c #C48434",
"g. c #CD8B33",
"h. c #C98539",
"j. c #C78635",
"k. c #D18D32",
"l. c #D58B32",
"z. c #D99235",
"x. c #E19631",
"c. c #848642",
"v. c #848C42",
"b. c #8C8547",
"n. c #978C42",
"m. c #869347",
"M. c #989748",
"N. c #BC8D56",
"B. c #BB915D",
"V. c #BA8343",
"C. c #869D63",
"Z. c #939D6A",
"A. c #8F9070",
"S. c #9C9A74",
"D. c #8B8064",
"F. c #A69467",
"G. c #BA9468",
"H. c #A69C7C",
"J. c #9CA974",
"K. c #93A16E",
"L. c #C38B4B",
"P. c #C98946",
"I. c #C7965A",
"U. c #C69A67",
"Y. c #CE8F77",
"T. c #C99E79",
"R. c #D09270",
"E. c #CAA479",
"W. c #D2AA76",
"Q. c #CBA069",
"!. c #DE2485",
"~. c #EF5C92",
"^. c #D56E89",
"/. c #868B90",
"(. c #B49D86",
"). c #B6AC8A",
"_. c #D39798",
"`. c #E29A9B",
"'. c #E89E9B",
"]. c #C8AA84",
"[. c #CEB388",
"{. c #D3B78B",
"}. c #C7A997",
"|. c #CBB697",
" X c #D4BE96",
".X c #D7AE92",
"XX c #E2BE8E",
"oX c #E69BA0",
"OX c #DBA1A5",
"+X c #D8B9A6",
"@X c #EAA3AC",
"#X c #E6A3AC",
"$X c #EDA6B3",
"%X c #EFA8B6",
"&X c #F3AAB6",
"*X c #F6ACB9",
"=X c #FAACBB",
"-X c #D9C49B",
";X c #E1C89F",
":X c #DACAA2",
">X c #D5C9A9",
",X c #DECDB5",
"<X c #E4CCA7",
"1X c #E8DBB3",
"2X c #E8D1B2",
"3X c #EFE2B7",
"4X c #F5E6BB",
"5X c #F8E7BA",
"6X c #F5E9BB",
"7X c #FAEABB",
"8X c #F6E6B7",
"9X c #CDCECB",
"0X c #DBCDC2",
"qX c #DED0C7",
"wX c #FDEEC1",
"eX c #F4ECC5",
"rX c #FEF1C5",
"tX c #FFF5C8",
"yX c #EBE4DE",
"uX c #DBE3E6",
"iX c #E7E5E2",
"pX c #FDFEFE",
"aX c #F3F2F0",
"sX c #F0EFEB",
/* pixels */
"U U E [ [ W W [ [ [ [ ' [ [ [ o.' [ [ | } [ [ O.[ [ | [ [ | [ | [ [ [ [ [ ' [ } [ ' [ [ [ [ ' Y Y Y [ [ [ U U Y U E [ W ",
"E W W E E [ o...[ [ [ [ } | } O.[ [ [ [ o.| | [ } [ [ [ [ | [ | } [ [ } } | [ [ } [ [ [ ' ' [ ' Y ' [ W Y E Y Y E Y E W ",
"E W [ E E E [ [ [ [ [ [ } [ [ ' [ O.| [ { ] ] [ | [ [ [ O.O.} | } [ } o.} [ } [ ' } } [ [ ' ' [ [ [ } [ Y } W W W U Y Y ",
"W W [ Y E [ [ } [ [ W [ ' [ O.[ } [ [ [ ^ 3 @.E { } [ [ [ ' | I E | [ } | [ } ' } | [ [ [ [ U ' [ [ [ } [ W Y W E W Y Y ",
"E W o.Y W [ [ W [ [ [ [ [ [ } o.| O.O.I 6 h.4.8 K ] } [ } { R X [ O.[ | [ [ [ [ ' ' } ' ' [ [ ' Y } ' ' ' Y E Y W Y Y Y ",
"E E Y W [ [ [ [ [ [ ..} } [ [ [ | +.] b.`.$X_.y.w.c.[  .] J 4 #.b.# O P | [ } [ ' } | [ ' ' [ Y ' Y U Y Y W Y E Y E U I ",
"W E E ..[ [ W [ [ [ ' [ [ } o.o.} O.` _.=X*X=X_.9.e.c.D $.5 o L I E ] [ } [ ' [ ' ' ' ' [ [ [ ' [ E } [ [ [ } E W W E Y ",
"W W E W [ Y [ [ [ [ } [ o.[ o.} o.B K.&X*X&X*X*XY.5.f.3 e.s.t.1.1.>.&.I ] ' [ [ ' [ [ [ ' [ [ [ Y [ } [ [ E Y Y W W Y U ",
"W E E E W E [ [ [ o.[ ' } [ o.o.+.N (.*X*X*X&X*X@Xf.p.e.r.u.7 9 t.e.p.i &.E } [ [ [ [ } Y Y [ Y E [ [ } [ E Y Y Y W W Y ",
"W [ Y E W [ [ [ W ~ } [ [ } [ [ } M (.*X*X*X*X&X*XY.4.g.p.-.9 1.e y.u.p.8 o E | [ [ } [ [ [ E ' Y E [ [ Y Y Y Y W W E Y ",
"E ..W Y W W [ o.E [ [ [ o.} [ [ o.M (.*X*X*X*X&X*X`.4.s.p.t.u.> ; g.s.e.g.f.2 E | } [ [ } } [ ' Y Y [ [ Y W E E W W E W ",
"U W [ Y Y [ } [ [ [ [ [ } } [ o.+.M H.*X*X*X&X&X*X@Xt.p.u.u.4.}.}.t s.s.5.; 5 ^ [ [ [ [ [ Y Y [ [ Y [ [ [ Y U W } W U E ",
"W E E [ [ Y ~ [ E [ } [ ' [ E [  .N Z.&X*X*X*X&X*X$Xh.0.u.0.w.aXpXT.4.5.E.9XL.=.X.[ W E Y Y E [ [ Y [ W [ Y Y W U Y U U ",
"..W Y [ Y [ W U [ o.[ } [ [ [ [ o.[ ~ #X*X*X*X*X=X@X9.u.u.0.P.sXpXqX4.t ,XpX.X= X.} [ ' ' Y [ [ [ Y Y W [ ' U Y Y [ E U ",
"W W E W E [ [ Y [ [ [ ' [ } [ [ o.o.M }.*X*X*X'.@XY.5.g.r.s.6.yXpXiXh.t 0XpX+X= D W Y [ Y W ' Y ' Y Y Y Y Y ' b Y Y } Y ",
"W E E E E W E Y [ [ [ [ [ [ ..} [ W N S.*X&X*X'.P.w.s.r.r.g.t 0XpXpXU.y ,XpX+X= X.Y [ E ' E U Y ' Y U U Y Y U Y Y Y U Y ",
"W W Y E [ Y E E [ Y [ [ ....} [ ..[ [ b OX*X&X*X&XI.5.u.r.g.t +XpX9XE.7.}.uX+Xf [ Y [ Y [ [ Y ' Y Y b W W Y Y U W W Y E ",
"E W Y W } [ o.} E [ [ [ ..o. .W [ } o.B H.*X&X&X&XP.0.s.s.k.t Q.iX% B.z.< /.|.m [ [ Y W Y Y Y ' Y Y Y Y Y Y Y Y U Y Y U ",
"E E W W W } [ } [ W  .[ W | W [ } o.[ } Y OX=X*X@Xh.r.-.t.j.9.9.0X$ & x.; /.].m / H P W Y [ [ Y W W [ Y U Y Y U Y U U U ",
"E W W E W [ [ o.[ E [ [ o.} [ [ ..Y }  .Y C.$X*X$XP.0.-.8 w w ; ].>X].L.s ).U.- T ~ [ Y E [ Y Y Y E Y [ Y U P U E E U E ",
"[ W Y [ W W o.[ [ [ Y Y [ Y [ [ [ [ [ [  .k S.*X=XY.5.l.u.w.8 < s 8XrX% $ >X{.* c./ E Y ' Y Y Y U ' Y E W [ Y Y U Y Y P ",
"~ E W E W E [ E Y [ [ Y W [ } [ E } o.[  . .k S.%XoX4.s.t.e 2.> U.4X7X-XD.1X{.> 3 C I H H Y [ Y U W [ [ Y Y U Y Y v U Y ",
"~ W E E Y W } o.U E W [ | } } [ } } } [ E [ o.k ( H.f.s.4.W.7XF.@ 1XwX:X,X:Xf.q.n.] } [ I I Y Y Y U Y [ Y Y U Y U P U I ",
"E W W E E W W [ E W [ [ W [ } ' Y [ E [ } } } } Y N M.l.7.Q.rX|.  . + d 1X X8.-.T [ W E } [ Y Y E E [ Y W Y U P Y Y Y Y ",
"E ~ } W W W W W [ [ [ W [ E W [ W W [ E [ [ } W W W ] M.0.L.6X<X!.p   <XtXXX, ^ ' Y [ } ! } Y W W E } Y Y E U W Y E P P ",
"E E E W W U E E [ Y W [ [ [ [ [ E ~ } [ [ E [ W Y ! [ P w : :X4X~.a A.rX3XF.n ..! Y Y W ~ [ Y Y Y [ Y ' [ Y Y U U I Y E ",
"W U E } W W W W ~ W [ [ o.} [ Y W W  .} U E W } ~ [ K 8 s.q.V.1X2X^.1X<XG.x | ! W } } E W [ [ [ ' W Y W E Y W Y Y Y E U ",
"E W W E E E W W W E W [ [ ..[ } [ Y [  .} W } ! [ J 8 p.u.s.r N.4XtX-Xy 8.<.E [ Y W E ~ Y U W E E E Y Y E E W W U U P v ",
"I W E Y W E W [ [ [ } [ } [ } [ ..[ W ..[ [ [ } U 7 p.u.r.r.s.8.I.W.9.f.g.i.@.E ! [ W W W Y Y Y W W W Y E W E W Y U R P ",
"W E P U E W W o.~ W E [ W W W E W W W } } W Y ] %.p.r.r.u.u.r.u.t 4.s.< 7 p.;.I [ Y Y Y W W W Y Y U W Y Y W Y Y Y U I P ",
"W W U U W E W W E W W W Y Y Y Y W ~ W ~ W W [ Q t.p.u.r.u.u.0.P.(.g.w.).e p.y.c U I W E W W Y Y E Y Y W Y E E Y Y P U P ",
"Y U W W E U / W E ..W W W W W E W W W W E ! D >.p.u.u.r.p.g.t E.eXN.B.eXB.5.s.:.] ! W Y Y Y W Y Y W E W P U W P U U U U ",
"E U U E Y Y W o.W ..[ [ Y W Y Y W W W Y  ...Q y.s.u.p.s.8 t.r -XtX X<X7XU.4.k.i J Y Y Y P U Y W Y Y E E I Y I I P P U Y ",
"E W U E W W W [ ..W } } U W [ W U E W o.o._ :.p.r.p.t.2 w q.L.3X7X7X7X4XU.7.g.p.%.D ^ E Y Y U E Y W I Y Y Y I P E I I C ",
"E U E E I E [ E W W E E Y E W Y U E [ [ T @.y.s.s.w T m.s.4.E.wX5X7X7X4XG.4.k.p.t.J E Y W W W [ U U E E U U Y P v U U P ",
"W W W U P I W ~ } W E E Y E E E Y U A # w p.s.a.0 W ] >.p.u <XwX5X7X7X7XS., z.u.p.0 F } Y W E Y Y U U W E E P E I U P P ",
"U W I E E Y E W W E W E W W E W X.v.i t.y.s.p.:.T ] #.y.7.I.4X7X7X7X7X7XJ.z f.p.u.e.2 F D U } Y Y E Y U U P Y U P I P I ",
"W U E U E E W E E W Y W W U Y W ..v.9 6 t.p.i.*.) L t.z.y {.wX7X7X7X7X7XJ.h K 8 p.u.p.q $.#.U W Y E W U I E Y E P C E Y ",
"E P E E E [ W / U E U E [ Y Y E W E 0 i.-.<.i.,.H y.s.0.2.1X7X7X7X7X7X7XK.l o.H 7 s.u.u.9 3 T Y P Y E U v W E E I P P W ",
"U E W W W E E E [ W Y E E E W W ) _ n.0 I S :.t.w p.k.t [.wX7X7X7X7X7X3XC.b ~ F >.d.p.u.9 2 T E Y U I U P U Y Y P U P v ",
"W W W / / E W W W E P U E E U ^ &.*.P G [  .E 0 e.k.0.1.1XwX5X7X7X7X7X1XR Y U c e.7 2 7 w.q C E E I Y U P P U E U P I P ",
"E E W W E W / W Y E E U Y E m.w 2.2.t.,.I E S $.a.k.t [.wX7X7X7X7X8XwX:Xh ! U L q J D C V C E Y E W Y I P E U j P E U P ",
"T T T T E W E E Y E E W U E c.Q E S &.e.y.3.*.8 s.s.y -XwX5X7X7X7X5XwX).z W Y E D E Y W W Y E U U I P U Y E E E E I P I ",
"T E W / E E W U P Y Y I E Y U E W Y D Q 3.e.8 t.s.p.9.<XwX5X7X7X7X7X5XC.b W E I ^ E W Y Y I I U P P P I U P U I I P P C ",
"T E W W / W E Y I E U P Y E E W E E Y W E A v.y.s.r.u :XwX4X7X7X7XrX|.j ~ E W W W E E Y E I I I E U j U U P I I E I I P ",
"E E E R W E E I I P P Y U W W Y [ W W W W Z v.e.u.u.t {.rX7X5X7XrX;X6 T I E / / W W I P P P T E U U C P E P P P P I P P ",
"I I T C P I U P E W Y E E Y W E W E W W W D n.a.u.u.0.1.:XwX7X6X X9.-.T W W E Y Y E U P W I E W I P I E P I I j g C P P ",
"T T P P P I P U E U P U U U Y U E E Y E W ] $.i.u.r.u.0.u G.[.U.r p.y.^ U I Y W Y I P E I Y U E U U I I C P C C C U P C ",
"T U T E E E E E T E U P E E W E U E E E Y D :.p.u.u.p.s.3.1 t 6.s.u.e.v.W W / W W E U I W T Y E E E P P I U P E T P P P ",
"T P T P E R E P P E E U E E E U W U P Y Y C <.p.u.p.y.v.S M.g.s.u.u.i.@.D Y U W W W E E Y U E T I I Y I I P I I P P P g ",
"T I P C P I T P E E T E E U W P U E P P W I t.p.p.t.K D ! D m.y.p.r.p.>.D Y E E W U E W E I I E U T P E P P P C g P P P ",
"I P E T T I T I U E I E E E E P I I W Z F $.a.p.j.Q E Y / ~ ] m.y.r.p.1.A [ W E W U E W E I I E E U C T P E v j v P P P ",
"C I P E E P P I P P U U P E I E E Z C @.7 e.p.y.#.E Y E W W Y D ,.i.p.y.c _ ~ W W W W U I U U Y Y P E I P P P C C P T P ",
"C T T T P P P I T P T W E U W W E L 8 p.p.u.p.>.S E Y W W U W E m.e.s.p.y.0 T E I I I E T U I E C U I I P j C I P P P P ",
"T E P C T I g T P I E P I I I C I t.8 t.u.p.d.:.D Y E E W E Y E ^ y.p.u.-.t.<.P E Y I U I I U U Y U P g g V P H V V C P ",
"I P C I E T P P P P T T P P I T W q t.p.a.t.:.I T Y U P Y E Y E D %.y.p.a.w i v.T T R E E P P U E P P C C P P C C P P j ",
"C C C P P T P E E C P P C E E T Z C %.%.#.J D U T E U U Y U Y W U D K &.&.L J I P E P P I P P E P P j P P I C P P I P C ",
"P E C P C T P I T T P U P U U P I U E D D E W U E U W E E U W W E W U D E P U P C j P C I U P P U P P P P P P P H g P V ",
"C P P P E T A C C T T P P U P P T E I Y E I I U P Y Y Y E T E E U U I W W P P v P j E P E I P E U P v C P P P P C g P g ",
"P P E E E E C P U T E T E P P W E W E E E E P P T P P P P E W W E R U E P U E P Y I R E U W I T I T P P C g x g P P P g "
};
