/* XPM */
static char *xpm_[] = {
/* columns rows colors chars-per-pixel */
"60 60 253 2 ",
"   c #000B0E",
".  c #051516",
"X  c #00141D",
"o  c #00191D",
"O  c #2E1A11",
"+  c #00211A",
"@  c #17261D",
"#  c #352816",
"$  c #021623",
"%  c #031A25",
"&  c #081825",
"*  c #021D2A",
"=  c #091B29",
"-  c #052326",
";  c #03232C",
":  c #09232B",
">  c #032B2E",
",  c #0B2C2E",
"<  c #192923",
"1  c #0B3028",
"2  c #173527",
"3  c #042632",
"4  c #0A2533",
"5  c #042B33",
"6  c #0B2B33",
"7  c #09253A",
"8  c #022B3A",
"9  c #0B2B3A",
"0  c #132C37",
"q  c #013233",
"w  c #0B3235",
"e  c #02343C",
"r  c #0C343C",
"t  c #0C393C",
"y  c #13353A",
"u  c #133A3D",
"i  c #2D3631",
"p  c #3B3532",
"a  c #45371A",
"s  c #453738",
"d  c #53343A",
"f  c #6F3D3A",
"g  c #733C38",
"h  c #743D3A",
"j  c #114438",
"k  c #274427",
"l  c #32522F",
"z  c #355A35",
"x  c #3C6134",
"c  c #48401E",
"v  c #4E592A",
"b  c #70423A",
"n  c #466A37",
"m  c #556830",
"M  c #4D753B",
"N  c #59783A",
"B  c #0C3442",
"V  c #063847",
"C  c #0A344A",
"Z  c #133C42",
"A  c #153947",
"S  c #1C3D42",
"D  c #053D51",
"F  c #233B45",
"G  c #373E41",
"H  c #064648",
"J  c #194448",
"K  c #0D524F",
"L  c #1A524C",
"P  c #024B53",
"I  c #0A4856",
"U  c #184955",
"Y  c #04565A",
"T  c #1A5559",
"R  c #274849",
"E  c #37494C",
"W  c #265A4A",
"Q  c #36524A",
"!  c #234C55",
"~  c #275559",
"^  c #37595A",
"/  c #2D625D",
"(  c #33635B",
")  c #075B65",
"_  c #0B5A6E",
"`  c #165669",
"'  c #1B5972",
"]  c #285965",
"[  c #365B65",
"{  c #2C5F72",
"}  c #07686B",
"|  c #176769",
" . c #117468",
".. c #096874",
"X. c #136974",
"o. c #097579",
"O. c #167578",
"+. c #296669",
"@. c #386565",
"#. c #2B766C",
"$. c #266576",
"%. c #346472",
"&. c #297679",
"*. c #367679",
"=. c #4A4C4D",
"-. c #4E774F",
";. c #465B65",
":. c #675962",
">. c #6A5D63",
",. c #476975",
"<. c #576F72",
"1. c #47767A",
"2. c #905956",
"3. c #A2554F",
"4. c #A45653",
"5. c #A75956",
"6. c #896859",
"7. c #9B695C",
"8. c #A26352",
"9. c #A35A61",
"0. c #91706A",
"q. c #A36464",
"w. c #A56967",
"e. c #AB7765",
"r. c #58823E",
"t. c #62873E",
"y. c #12877A",
"u. c #368177",
"i. c #5D8B43",
"p. c #5F9147",
"a. c #5F8B55",
"s. c #618E44",
"d. c #649346",
"f. c #689747",
"g. c #659449",
"h. c #68974B",
"j. c #679A4C",
"k. c #6B9A4B",
"l. c #638D55",
"z. c #5F856C",
"x. c #69966B",
"c. c #AC8265",
"v. c #B78E74",
"b. c #C69573",
"n. c #117982",
"m. c #187A83",
"M. c #277A85",
"N. c #377A85",
"B. c #297992",
"V. c #477A84",
"C. c #17878A",
"Z. c #168E8C",
"A. c #198894",
"S. c #278589",
"D. c #388589",
"F. c #2C978F",
"G. c #268994",
"H. c #368A96",
"J. c #289798",
"K. c #38969C",
"L. c #1DAD97",
"P. c #29A79D",
"I. c #34AA9D",
"U. c #2F99A2",
"Y. c #1EA0A3",
"T. c #28A5A4",
"R. c #3BA4A5",
"E. c #39B7A8",
"W. c #29B5B1",
"Q. c #39B9B6",
"!. c #488A8B",
"~. c #4E968B",
"^. c #468696",
"/. c #4E8C95",
"(. c #538C99",
"). c #479999",
"_. c #549998",
"`. c #6E9996",
"'. c #4DA38F",
"]. c #4BA49A",
"[. c #54A69A",
"{. c #66A898",
"}. c #78AB97",
"|. c #76B59C",
" X c #489DA3",
".X c #5999A5",
"XX c #6D9BA4",
"oX c #48A7A8",
"OX c #50A1A7",
"+X c #55ACAC",
"@X c #59A9A9",
"#X c #47B3AC",
"$X c #58B3AC",
"%X c #49ACB6",
"&X c #57ADB5",
"*X c #46B8B8",
"=X c #58B5B4",
"-X c #67A9A9",
";X c #76AAAE",
":X c #65B6AA",
">X c #6BABB3",
",X c #62B3B4",
"<X c #66B9B7",
"1X c #75B7B5",
"2X c #32C3B0",
"3X c #39C5B8",
"4X c #52C2AA",
"5X c #44C6B8",
"6X c #59C8B9",
"7X c #71CEBA",
"8X c #3FB8C0",
"9X c #4ABCC3",
"0X c #58BAC3",
"qX c #63B7C2",
"wX c #3BC4C5",
"eX c #47C5C3",
"rX c #58CACA",
"tX c #75C8CA",
"yX c #69D5C4",
"uX c #6ED1CB",
"iX c #69C8D5",
"pX c #74D8D8",
"aX c #52F0CD",
"sX c #73EBD1",
"dX c #7AE5E8",
"fX c #8BB496",
"gX c #A8A28D",
"hX c #85B9AA",
"jX c #CFA288",
"kX c #93C4AE",
"lX c #84C3BA",
"zX c #A9D5B6",
"xX c #94BCC5",
"cX c #A7BFCB",
"vX c #89C6C5",
"bX c #96C5CD",
"nX c #98C8CB",
"mX c #99C9D2",
"MX c #86DBDD",
"NX c #98D6D3",
"BX c #A4C8CD",
"VX c #A3D4D6",
"CX c #8EE6D3",
"ZX c #B5E3C6",
"AX c #90DDE2",
"SX c #ADDEE5",
"DX c #8CE6E6",
"FX c #96E8E8",
"GX c #9BF2F0",
"HX c #ADECEC",
"JX c #B7EBF3",
"KX c #B6F5F7",
"LX c #C1F6FB",
/* pixels */
"g.g.j.p.j.j.j.j.g.d.i.i.M z l W W ( W W W W L W J L L L L L L T T T ` ~ T ~ L T T U T ~ ~ H L j J k s.s.s.s.s.d.s.i.t.s.",
"j.p.p.p.p.p.g.kXhXkXmXmXBXVXnXlXlXlXvXkXlXlXlX7XlXlXvX1X1X1X1X>X>X<X;X>X-X-X-X-X:X-X-XXX-X-X.X@X-X#.M s.d.s.d.s.p.t.p.s.",
"p.p.p.p.p.p.p.zX7X:X<X:X:X:X[.6X:X<X6X<X$X$X$X,X,X$X,X,X=X,X,X,X=X,X<X:X:X,X@X$X@X$X$X$X$X$X=X#X$XV.x d.d.d.d.d.s.i.s.i.",
"p.p.p.p.i.i.i.NX:X$X4X#X].+X].].OXOX_.OXOX.XOX.X X.XOXOXOXOX.X X.XOX_._.].].[.].OX).).@XK.oX#X%X@X1.n d.d.d.s.d.s.s.s.s.",
"p.j.p.p.p.p.a.vX<X=X<XH.!.!./.^././.(.(././././.(.(./.(.(././.^./.!./.!.~.!.!.!._.!.^.!.N.KX+X&X<X*.M s.s.s.s.d.s.s.s.s.",
"p.p.p.j.p.p.-.vX@X<X=X&.KXmXxXBXnXnXnXnXmXnXbXnXbXbXbXBXmXmXBXmXbXnXBXnXnXnXmXmXbXmXbXmX(.AX+X+X-X*.M s.s.d.s.s.s.s.s.s.",
"j.p.j.p.p.p.-.1X$X+X&XM.KXBXfX7 S u J u S J J J S S J u F u S S F F F F F F J R Z ~ mXmX.XFX&X%X+X*.M h.g.d.g.d.s.s.s.s.",
"j.p.p.p.j.a.x.-X,X<X&XM.JXcX`., , , , , 6 , , , , 6 , , , , 4 , , , 4 0 0 6 6 6 6 @.bXnX.XAX+XoXoX*.M g.g.d.g.g.s.s.g.s.",
"j.j.g.g.h.l.`.-X$X=X=XO.JXBX,.- r , u 5 4 A 7 7 w r u 5 w t , w r w w w e t t q q @.NXnX-XMXoX%X+X*.n d.s.s.s.s.s.s.s.s.",
"a.p.g.g.h.h.}.{.$X$X=X .JXcX,.= w Z t J Z C C C Z Z B r r r J J u J J J H J U L L +.bXnX_.MXoXoXoXN.n d.g.g.g.g.g.g.s.h.",
"l.g.g.g.h.h.}.:X+X=X=X&.JXcX;.o J Z $ * * 3 = = 3 B 8 B B q e 5 4 7 C ! ~ ; e ~ ] ! VXNX@XtX%X#XoXN.x h.g.s.g.g.s.g.s.s.",
"d.p.g.g.h.h.HX[.$X=X+X#.LXBXR - S y 3 * * 8 7 C C A C C A C C B 7 V.V.V.8 I V *.~ L VXlX>XtXR.oX%X&.z g.g.g.g.g.s.l.s.s.",
"d.d.g.g.h.h.CX:X$X=X#XM.SXcXu - Z t Z V U U U U C D C C I D B D %.%.N.U D V D N.] T SXmX-XtXOX%XoX^.z d.d.d.g.g.g.s.s.g.",
"l.g.g.l.g.h.HX#X+XoX&X&.SXnXw - U V e V ' D ' C D D D 7 D V D %.V.N.N.D I D H D.+.T SXnX.X>XoXR.%XD.j v d.d.d.d.h.l.l.g.",
"g.h.h.h.h.x.FXMXDXDXGXFXXXBX; > I V V V C D ' ' n.' n.' ' ` X.N.{ ' ' _ _ ' ) ^.+.` HXnXFXFXdXDXdXAXnXQ d.d.g.d.h.g.g.g.",
"g.g.h.h.j.l.1.u.X.O.| K V.BX% t I 3 V B C ' ' ' D ` _ ' I ` M.' ` ' ' ` _ _ ` ).&.T KXvXM.X.o.} } ) ^ Q h.h.g.h.s.s.g.g.",
"g.g.g.g.f.k.u.O.O.y.| ~.N.mX3 [ ] $.] $.{ { V.V..XB.V.B..XV.&X.X.X.X.X;XXX>X>X1X;X_.KX).O.C...m.m.&.( < h.h.f.d.p.j.j.t.",
"g.g.h.h.f.f.u.o.O.Y LXNXI +.8 ~ ] +.%.%.{ [ (.(..X.X.XV..XXX.X.X.X>X;X;X;X1XvX1X1X).GX=X5XZ.n.o.O.&.1.@ h.f.j.f.t.j.t.p.",
"g.h.h.h.k.k.{.%X#X$XKXNXI D J e V e r 9 B C U U U C U U U U N.! ] ] ~ [ V.%.N.| I.6X#XL.L.Z.} R.oX).R o f.h.f.d.j.p.t.j.",
"h.d.h.h.h.k.-XoXoX+XHXvXK ` H K Z $ * $ * * * * = 7 * * 7 7 = = * % ; ; $ $ { 0X2XL.aXaXL.Z.} I.K.).@.. h.f.j.d.j.t.p.p.",
"g.h.h.h.h.h.{.M. .).KXvXH Y T / J X $ $ X $ $ * * * $ * $ $ $ $ = X % o & * O.6XaXaXaXaXL.Z.} K ) D.@.< h.j.f.f.p.j.p.t.",
"g.d.g.h.h.h.{.S..._.HX;Xj +./ ~ ~ X X X $ & % : % * $ = = = = 7 , % - * = ; u.6XsXaXaXaXL.L. .Y ) M.[ . f.j.f.d.t.j.t.j.",
"d.h.h.h.f.f._.O.o.).KX|.H #.@.! ^ o . . X $ X o * % $ % $ $ $ $ o X $ $ = * y.7X7XsXsXaXL.y.y.H ..D.<.. j.f.f.f.f.f.j.j.",
"g.d.d.h.k.k.'.y.o.oXHX-XH @.R =.R . o o X $ = % % % $ $ * $ $ $ * * % * * 3  .$Xv.|.CXsXI.F. .Y ) N.,.< j.f.f.d.j.j.j.t.",
"g.h.k.k.k.k.`.o.o.oXFX_.j ( =.G R o X . X % * % - * % % % % - % * * * ; 5 5  .4XgXgXZXlXE.P...Y ..N.[ < k.f.h.f.j.t.j.f.",
"g.h.l.k.k.k.~.o.o.R.GX~.K ;.=.s E o X X X X % % % % % % % % % * = = 7 ; 5 q  .|.v.jXZXsXQ.T.} _ X.D.~ 2 k.f.f.d.j.t.f.f.",
"g.h.h.h.j.g.~.o.n.I.FX~.K ;.b d E . X X $ $ & $ % % % & $ % - % 4 4 3 3 5 q  .|.v.jXZXCX3XP...) o.M.! l k.f.d.f.f.p.t.d.",
"h.h.h.h.j.g.~.o.y.I.DXD.H ;.d d E o $ X & & & & % * & $ % % % % 4 7 8 8 8 q  .{.c.jXZX7X2XT.......B.A z d.d.h.d.t.p.d.p.",
"h.h.h.h.h.h._.o.C.U.DX&.K ;.d d E o $ $ & & & & % = = & & $ % * 4 6 9 3 5 5  .{.c.v.zX7X3XL.} o.o.H.U l k.d.d.k.d.d.d.d.",
"h.h.h.h.h.g.).o.n.J.DX#.K ^ s d E . $ X & & & $ % % % & & $ % * 3 3 7 7 7 > } {.c.v.zXyX3XW.} X.o.).J n h.f.f.d.d.f.f.f.",
"h.h.h.h.f.s.).o.C.K.DX#.K @.p s E . X X $ $ $ $ % % % % o % % - > ; 7 7 7 8 } {.c.b.zXyX3XW.} X.n.H.! -.k.d.k.k.f.d.d.d.",
"k.h.f.f.h.x.F.o.G.K.DX| K @.p s E o X X & & * * % % % * * % % - 5 ; * 4 7 B  .|.c.c.fXsX5XW.} O.n.H.! M k.k.k.h.d.f.f.d.",
"k.k.k.k.j.x.~.n.J.J.MXY ` ;.s p E % o $ % % % - % % % $ = % % ; 5 > ; , 7 8 X.{.w.v.kX7X5XW.} O.C.G.~ -.k.f.f.f.f.f.f.t.",
"k.k.k.k.j.x.!.C.Y.J.DXI U ;.G s E o $ X % & % % % % % = = % * ; 5 > ; > 7 5  ._.w.e.kX6XeXQ.} y.C.K.] n k.f.f.f.f.f.f.f.",
"k.k.k.k.k.hXJ.A.T.J.pXY ` ^ p p E o $ X = % % % % = % = = * * 4 4 4 3 3 8 8 } `.w.e.hXyX9X8X} n.n. X] x f.k.f.f.h.j.f.f.",
"k.k.k.k.k.hXJ.n.Q.J.pXI ~ ^ p p E X $ $ & % % - * * = & % % * 3 7 4 > 5 5 8 ...X7.8.fX6XQ.Q...m.G.oXT x f.f.f.k.f.f.d.p.",
"k.k.k.k.k.hXK.U.8XP.pXP ~ ^ s p E . X X % % % % % * $ * = $ * > 4 6 > > > q X.`.8.8.fX4XQ.wX} O.J.OX~ z f.f.f.k.f.f.d.f.",
"k.k.k.k.k.hXK.Y.eXJ.pXY ` Q i p R X X X & % % % % % $ & = * * 6 3 3 6 3 > > ..`.6.6.|.6X2XQ.) O.C.=X] k k.f.f.f.k.j.j.f.",
"k.k.k.k.k.1XK.J.rXT.pXY ` ~ k i R X % X % % * o % % $ = = * * 9 4 4 9 5 q 5 } ).-.z.[.3X2XQ.} m.H.+X+.k k.f.f.f.k.k.h.f.",
"k.x.k.k.k.1XK.dXdXT.pXY Y ] ! Q R X % o & & % % * % $ $ & * * 6 7 7 9 5 5 5 X.oX[.[.I.3XwXQ.) O.%X+XT k k.f.f.f.h.h.f.d.",
"x.k.k.k.j.1XF.F.P.K.uXP ) ` ~ L J X $ $ & & o % * $ = & & : 6 4 0 B 3 5 8 e ) oXQ.5X0XdXQ.Q.Y &.O.| ~ 2 j.j.k.f.f.f.f.f.",
"k.k.k.k.k.;Xu.S.y.F.pXY Y T ` ~ R X X $ & % % * * * $ $ $ * ; 6 4 7 3 5 q 5 ) Q.wXQ.0XKXR.=XvXI ) ) T ~ r.k.k.f.k.k.f.f.",
"k.k.k.k.k.NXMXuXsXuXpXP ` ` T ! J $ X % & % % % % % % = % * ; 3 = 4 ; 5 5 5 Y E.W.wX0XqX#X#X@X,X&X&X@X;Xk f.k.k.k.f.f.f.",
"k.k.k.k.a.vXtXpXuXuXiXP ` ` ] ] J % X & & % % % * $ $ & * * , 5 5 5 : > > 5 ) Q.W.wX&XuX#X*X@X-X@X&X,X-X^ k.k.k.f.f.f.f.",
"k.k.k.k.}.&XR.Q.F.+XiXP I U K U J X $ & % & % % % % % * = ; 4 6 9 9 6 6 7 B ) R.W.E.E.y.3X5X.. XH.H.^.!.Q k.k.k.k.k.k.k.",
"k.k.k.k.{. XG.C.Z.*XuXP T ] ~ J S X $ $ & o % % * % $ & % * 3 3 8 7 : 4 3 B _ U.oX#X5X2X2X5X) B.H.K.D.!.R k.k.k.k.k.k.j.",
"j.j.k.k.-X%Xn.A.C.=XiXP U ^ R R y . X & & % % % * % = $ % 4 6 > 5 > - - 3 B _ H.<.`.|.4XT.Q...' _ ..S.D.( k.k.k.k.f.j.f.",
"k.j.j.c.>X%X..A.T.eXiXP ~ Q y G y X % o & & % % % % * * % 6 0 5 5 6 1 , > V ) H.:.c.|.'.I.Q._ B.M.O.S.u.[ f.k.k.k.k.k.k.",
"k.k.k.k.6XR.O.C.Q.9X0XP R E i G 0 $ X X & & & o % - & * % 6 , 4 3 B B 7 6 q ) !.:.0.`._.F.*X) B.m.n.G.D.,.f.k.k.k.k.k.f.",
"k.j.k.j.+XP.o.T.8X*XiXD S G G G 0 % $ - - - : : - ; % - ; 0 0 9 5 9 7 8 7 e ) !.:.2.`..XP.9X..m.n.n.C.M.1.f.k.k.k.k.f.f.",
"k.j.j.k.OXP.n.J.Q.Q.0XP A E F F 0 % % ; ; ; * ; 3 3 * ; ; 3 9 9 6 9 8 r r V ) ^.;.V.1.OXG.Q.) S.B.H.m.*.<.k.k.k.k.k.f.f.",
"k.k.j.j.K.J.o.P.Q.Q.9XP ~ A F F 0 % X ; ; ; ; ; ; 3 8 9 r Z r 9 r w r r r e ) B.,.[ *.H.J.*XY C.m.B.M.N.E k.k.k.k.k.k.k.",
"k.k.j.d.!.K.R.S.A.Q.9X) H q V L 5 - ; 0 r y 9 y r r u r r u u y u u y y r V ..H.M.X.n.Y.A.9X_ O.m.M.O.$.^ k.k.k.f.k.f.f.",
"k.k.k.d.<XqX0X0X9X9X8XP K T j t > - w y u r w Z Z Z u w w w r y 1 w w u 0 t ) m.S.C.J.Z.Y.Q.Y  XK.G.O.| 1.-.k.k.k.k.f.f.",
"k.h.d.XXiXiXqXiXiX9X*XP q + , , J R R ~ ~ Q R ~ ~ Q @.^ @.@.( ( ( ( ( =.( ( +.#.#.&.u.M.B.9XH &X%XR.E.&X{.;.k.k.k.k.k.k.",
"h.h.i.1.S.B.A.B.A.G.S.*.- @ @ O @ @ @ @ < < @ @ < @ < @ < @ < < 2 @ @ @ < < < < 2 2 < 3 ` _ m.o.n.n.O.| +.j M k.k.f.f.f.",
"j.j.x 1.S.C.A.A.n.G.M.+.G f h h h h h h h g h h h g g h g h g g b b h h h h h h b b b =.~ | O.o...o.o.&.+.R x j.k.k.f.f.",
"j.j.  #.&.n.C.C.G.M.*.~ :.2.9.9.4.4.4.4.4.5.4.4.5.3.3.5.3.5.3.5.3.3.5.5.5.5.5.5.5.8.5.6.<.1.&.y.B.M.O.#.#.Q l k.k.k.f.f.",
"f.k.  ( *.N.&.*.*.#.*.Q >.6.q.7.q.5.w.q.w.w.q.q.q.5.5.e.q.w.q.w.7.q.w.w.e.w.w.w.7.7.7.0.<.u.N.*.M.*.N.1.*.Q l k.k.k.f.f.",
"k.k.n . . X   . @ @ @ k v v m m N N N N N m v v c a a O # a v m N s.N s.t.f.t.f.d.t.t.i.i.d.d.d.l.p.d.d.r.z n k.k.k.k.t."
};
