/* XPM */
static char *_7062772ccbb440bd7960e0160725cb97rxp7YtplLUvRvaM[] = {
/* columns rows colors chars-per-pixel */
"60 60 139 2 ",
"   c #5F8D42",
".  c #5E9146",
"X  c #5F9247",
"o  c #608E43",
"O  c #618F44",
"+  c #608E45",
"@  c #618F46",
"#  c #629143",
"$  c #629045",
"%  c #639244",
"&  c #639146",
"*  c #629047",
"=  c #649345",
"-  c #649247",
";  c #619447",
":  c #639647",
">  c #669545",
",  c #659446",
"<  c #669547",
"1  c #679646",
"2  c #689747",
"3  c #6A9A46",
"4  c #6B9B47",
"5  c #689C47",
"6  c #639148",
"7  c #609348",
"8  c #659348",
"9  c #649249",
"0  c #65934A",
"q  c #619449",
"w  c #629548",
"e  c #639649",
"r  c #62954A",
"t  c #63964B",
"y  c #669449",
"u  c #649748",
"i  c #679648",
"p  c #67954A",
"a  c #66944B",
"s  c #64974A",
"d  c #67954C",
"f  c #64974C",
"g  c #689749",
"h  c #68964B",
"j  c #69974C",
"k  c #68964D",
"l  c #69974E",
"z  c #659849",
"x  c #65984B",
"c  c #66994A",
"v  c #679A4B",
"b  c #65984D",
"n  c #66994C",
"m  c #679A4D",
"M  c #66994E",
"N  c #699848",
"B  c #6A9949",
"V  c #69984A",
"C  c #6A994B",
"Z  c #6B9A4A",
"A  c #6D994A",
"S  c #6C9B4B",
"D  c #6E9A4B",
"F  c #699D48",
"G  c #6A9E49",
"H  c #689C4A",
"J  c #699D4B",
"K  c #6B9F4A",
"L  c #6C9C48",
"P  c #6D9D49",
"I  c #6E9E4A",
"U  c #6F9F4B",
"Y  c #6A984D",
"T  c #689B4C",
"R  c #6B9A4C",
"E  c #6B994E",
"W  c #6A984F",
"Q  c #689B4E",
"!  c #6C9B4D",
"~  c #6F9B4C",
"^  c #6C9A4F",
"/  c #699C4D",
"(  c #6A9E4C",
")  c #6B9F4D",
"_  c #699C4F",
"`  c #6A9D4E",
"'  c #6B9E4F",
"]  c #6D9C4C",
"[  c #6E9D4D",
"{  c #6D9C4E",
"}  c #6E9D4F",
"|  c #6F9E4E",
" . c #709C4D",
".. c #719D4E",
"X. c #709F4F",
"o. c #729E4F",
"O. c #6B9950",
"+. c #6C9A51",
"@. c #6A9D50",
"#. c #6B9E51",
"$. c #6F9E50",
"%. c #709F51",
"&. c #6BA048",
"*. c #6CA149",
"=. c #6CA04B",
"-. c #6DA24A",
";. c #6DA34B",
":. c #6EA34B",
">. c #6FA44A",
",. c #6DA14C",
"<. c #6DA34D",
"1. c #6EA24D",
"2. c #6CA04E",
"3. c #6DA14E",
"4. c #6DA14F",
"5. c #6FA34E",
"6. c #6EA24F",
"7. c #6EA44C",
"8. c #6FA44C",
"9. c #6FA54D",
"0. c #6EA44E",
"q. c #6FA54F",
"w. c #70A04C",
"e. c #71A14D",
"r. c #72A24E",
"t. c #73A34F",
"y. c #70A54D",
"u. c #70A44F",
"i. c #70A64E",
"p. c #71A74F",
"a. c #6EA250",
"s. c #6FA351",
"d. c #71A050",
"f. c #72A151",
"g. c #71A550",
"h. c #72A651",
"j. c #70A452",
"k. c #73A752",
"l. c #74A450",
/* pixels */
"t t t t t f b b t t t a a a x x x x b / W b x x x x : ; ; x x T : : h h h h : : a h h k h a 9 = O O O O O O O O     o o ",
"t t 7 7 t t t f t t t a a a x x t s x b b b x x x x a ; : x x T T T T h 2 : = # h h h k h a 9 = & & & & & & & &     o o ",
"X X X X X 7 t t t t t a a a x x ; t a x b b x x x x x a x x x H T T T T h : : % h h h k h a a 9 = = = = = = = = o o o   ",
"X X X X X X t t t t t x a a x x t t a x b b W W x x x x x x x H a h T T T T T T k k k h h a a a = = = = = = = = O o o   ",
"7 7 7 X 7 t t t t t t x a a x x x x x b W / @.@.x x x x x x x x h h T T W W T T W k k h h a a a & & & & & & & & O O o o ",
"t t t t t t f f t t t x a a x x b b b b / / @.@.x x x / W W / x { { { ! W T a : W W k h a h h h & & & & & & & & O O O O ",
"t 7 t t t t t f t t t a a a x x / W b x b b / @.x x x / / / / x { { { { ! T h a ! W k h a h k k = = = = = = 9 = O O & & ",
"t 7 7 7 t t t f t t t a a a x x / W b x x x b b a x / / / / / x T T ! ! { { ! ! ! W k h a h k W 9 9 9 9 9 9 9 9 O O & = ",
"9 9 9 a f k k k h h h a a h h W h h : : : T ! { ! ! ! { { { { { ! ! ! ! ! ! ! ! T T T h h : : : = = = & & & & & O O & 7 ",
"9 7 9 a f k k k h h h h a h h W h 2 : : : T ! { T T T T ! ! ! ! ! ! ! ! ! ! ! ! T T T h h : : : a a 9 9 9 = = = 7 7 7 7 ",
"7 7 9 9 a f k k h a a h a h k W T h a a h T ! { T T T T W W ! ! ! ! ! ! ! ! ! ! T T T h h 2 a : a a a a a 9 9 9 & & & & ",
"7 7 9 9 a f f k h a a a a h k W T T T h T T ! { T T T T W ! ! ! ! ! ! ! ! ! ! ! T T T h h 2 a a a a a a a 9 9 9 O O O O ",
"7 9 9 9 a f k k h a a a a h k W T T T T T T ! ! W ! ! ! { { { { ! ! ! ! ! ! ! ! T T h h h h h a a a a = = = = = 7 9 & & ",
"9 9 a 9 k k k k h a a a a h k W ! ! ! ! ! ! ! ! ! ! ! { { { { { ! ! ! ! ! ! ! ! h T h h h h a a a a a 9 9 = = = f f a a ",
"a a f k k W W O.h a a a a h k W ! { { { { { ! ! W W W ! ! { { { ! ! ! ! ! ! ! ! h h h h h h 2 2 a a a a a a 9 9 9 a a a ",
"f f k k W O.O.O.h a a a a h k W { ! { { { { ! ! T T T T W W ! ! ! ! ! ! ! ! ! ! T h h h h 2 2 2 k k h h h a a a O O & 7 ",
"a a a h h h W W T T T T W W W W A A T A S S { S T T { X.X.{ { A ! ! A A A A A A T T T h h : : : h h T T T h : : = = = & ",
"a a a h h h W W T T T T W W W W T T T A S { S S T A { { { { { { ! !  .A A A A A ! ! ! W T T T T h T T T T h : : = = = & ",
"a a a h h h W W T ! T T W W W W T T A A { { { { S { { A { { { X. .! ! ! A A A A ! ! ! W W T T T h h T T T h : : & & & & ",
"a a a h h h W W ! ! { ! ! ! ! ! A A A { { { { { { { A A A { X.d. . .! A  .A A A T T T T T h h h h h T T T h : : & & & & ",
"a a a h h k W W ! ! ! ! ! ! ! ! A A { { { { { { { { { A { { X.d. . . .A  . .A A W T T T T T h h h h h h T h a : & & & & ",
"a a a h h k W W ! ! ! ! ! ! ! ! A { { { { { { { { { { { { { X.d.X.X. . . . . .A { { { { ! ! ! W h h T T T h a : = = = & ",
"a a a h h k W W { { { { { { { { { { { { { { { { { { { X.X.X.X.X.X.X.X.X.X. .!  .{ { { { { ! ! ! h T T T T h a : a a 9 = ",
"a a a h h k W W { { { { { { { { { { { { { { { { A { X.d.d.d.X.{ X.X.X.X.X.X.! ! ! W A ! T T T T h T T T T h a : h a a = ",
"a a h W W W W k W W ! { { ! W W T A T A { { X.X.X.X.X.X.X.X.X.X. .X.X.X.X. .! A S S A A S S S S ! T T T T h 2 2 : : : : ",
"a h h W W W W k ! { { { { { { ! A A { { { X.r.d.X.X.X.X.X.X.X.X. .X.X.X.X. .! A S A A A S S S S T A T T h h 2 : = = = = ",
"a h h W W W W k { { $.$.$.$.{ { { { { { X.d.d.d.X.X.X.X. . . .X. .X.X.X.X. .! A S S A A A A S S T T h h h 2 : : # # # # ",
"h h h h W W W W { { { $.$.{ { { { { { { { X.X.d.! ! !  . . . .!  .X.X.X.X. .! A S S A A A A S S T T h h : : : : # # # # ",
"h h h k h W W W W ! { { { { ! T { { { { { { { {  . .!  . . . .!  .X.X.X.X.X.{ A S S S S A A A S ! T T T h a : : = = = = ",
"k k h h h W W W W W ! { { ! W T { { { { { { { {  . . .X. . . . . .X.X.X.X.X.{ A S S A S A A A A ! A T T T h h h : : : : ",
"W k h a h h W ! ! ! { { { { ! ! { { { { { { { { X.X.X.X.X.X.X.X. .X.X.X.X.X.! A A A A A A A A A ! { ! A T T T h : : : : ",
"W k h a h h W ! { { $.$.$.$.{ { X.X.X.X.{ { { { X.X.X.X.X.X.X.X.X.X.X.X.X.X.! A A A A A A A A A { { { ! A T T T : : : : ",
"W W W ! ! ! { { { { { { X.d.d.d.r.r.r.r.r.r.w.w.w.r.r.r.r.r.r.r.w.:.r.r.r.r.w.:.:.S  .w.r.r.r.r.T A S S A T 2 : : : = # ",
"W W W ! ! ! { { T A A { { { X.d.r.r.r.r.r.r.w.w.S r.r.r.r.w.r.w.w.w.r.r.r.r.w.w.S S  .S w.w.w.w.A A A A T T 2 : h h 2 : ",
"T T W ! ! ! { { T T A A { { { { w.w.S S r.S S w.S S S r.w.S S S S S r.w.r.r.S S S S S S S S w.w.{ { A T T T T T T T 2 : ",
"T T T ! ! ! { { A A { { { { { { w.w.:.S w.w.S w.S S S S S S S S S S w.w.r.r.S S S S S S S S S S { { T T 2 2 T T 2 : : % ",
"T T ! ! ! ! { { { { { { { X.X.X.r.w.w.S w.w.w.w.S S :.:.:.:.S S S S r.r.r.r.S S r.:.S S S S S L { { T T 2 2 2 T h : : = ",
"T T ! ! ! ! { { { { { X.X.X.r.X.r.r.w.S w.w.w.w.S S w.r.w.S S S S S r.r.r.r.S S w.S S S S L S 4 { { A T 2 3 3 2 W T T h ",
"T A ! ! ! ! { { { { { { { { { { r.r.r.r.w.w.w.w.S r.r.r.r.w.r.S S S r.r.r.w.S S w.w.S S S S 4 L A A A A A 2 2 2 W T T 2 ",
"W ! ! ! ! ! { { { { { { { { { { r.r.r.r.r.w.w.w.r.r.r.r.r.r.r.r.S S r.r.w.w.S S r.w.S S L L L 3 T A { { A T 2 : T h : : ",
"! ! ! { { { { { s.s.6./ / / 6.s.6.6.6.6.6.6.6.6.r.r.S S S S r.r.w.w.w.r.r.r.r.r.H H 4 4 H 4 4 4 { A T T 3 3 T T h h : : ",
"! ! ! { { { { { s.6.6./ / 6.s.s.6.6.6.6.6.6.6.6.r.r.:.S S S r.r.r.r.r.r.r.r.r.r.H H H H H 4 4 4 { A T T T T T T ! W T T ",
"! ! ! { { { { { 6.6.6./ 6.6.s.s.6.6.6.6.6.6.6.6.r.w.w.S S r.r.r.r.r.r.r.r.r.r.r.:.H H H H H 4 4 { A T T T T T A T h a : ",
"! ! ! { { { { { / / / 6.6.s.s.j.6.6.6.6.6.6.6.6.r.r.w.w.r.r.r.r.r.r.r.r.r.r.r.r.:.:.H H H H H H { { A T T T T A h 2 : : ",
"! ! ! { { { { { H / / 6.6.s.s.s.6.6.6.6.6.6.6.6.r.r.r.r.w.r.r.r.r.r.r.r.r.r.S S H H &.H H H H H { { S T T T A A { ! A T ",
"! ! ! { { { { { / / 6.6.s.s.s.6.6.6.6.6.6.6.6.6.r.r.r.r.w.r.r.r.r.r.r.r.r.r.S S :.:.:.&.H H H H { { { S T A A A A A T h ",
"! ! ! { { { { { / / 6.s.s.6.6./ 6.6.6.6.6.6.6.6.r.r.r.r.r.r.r.r.r.r.r.r.r.S S S :.:.:.&.&.H H H { { { A A A A { T h : : ",
"! ! ! { { { { { / 6.s.s.s.6./ / 6.6.6.6.6.6.6.6.r.r.r.r.r.r.r.r.l.r.r.r.r.S S S :.:.:.&.&.&.H H { { { A A A A { { ! W T ",
"W W ! ! { { { { / / / 6.6.6.s.s.6.6.6.6.6.6.6.6.6.6.6.6.6.6.6.6.:.:.:.:.6.:.6.6.6.6.6.6.S :.H H d.{ { T T T { { A A T T ",
"T T T W ! ! { { / / 2.6.6.6.s.s.6.6.6.6.6.6.6.6.6.6.6.6.6.6.6.6.6.6.6.6.6.6.6.6.6.6.6.6.:.:.H H d.{ { A T T S { 3 2 : : ",
"h h T T W ! ! { / / 6.6.6.6.s.s.6.6.6.6.6.6.6.6.6.6.6.6.6.6.6.6.6.6.6.6.6.6.6.6.6.6.:.:.:.:.H H X.X.{ A A A S { A T T 3 ",
"T T T T W ! { { 2.2.6.6.6.6.s.s.u.6.6.6.6.6.6.6.6.6.6.6.6.6.6.6.6.6.6.6.6.6.6.6.6.6.:.:.:.:.H H X.{ { S A A S { { S A T ",
"T T W ! { { $.$./ / 6.6.6.6.s.s.j.j.u.u.6.6.6.6.6.6.6.6.6.6.6.6.6.6.6.6.:.:.:.H 6.6.6.:.:.:.H H { { { { A A A A T T 2 : ",
"W W ! { { $.$.%./ / 6.6.6.6.s.s.j.j.u.u.6.6.6.6.u.u.u.u.u.u.u.u.6.6.6.6.:.H H H 6.6.:.:.:.:.H H { { { { S A A A A T T 2 ",
"T T W ! { { { { / / 6.6.6.6.s.s.j.j.j.u.u.6.6.:.u.u.u.u.u.u.u.u.u.u.6.6.6.:.H H 6.6.6.6.:.:.H H { { { { { { A T { { A A ",
"h T T T W ! { { / / 6.6.6.6.s.s.j.j.j.u.u.6.6.:.u.u.u.u.u.u.u.u.j.u.j.u.6.:.:.:.6.6.6.6.:.:.H H { { { { { { S T T T 2 : ",
"x x W / / / / / 6.6.6.6.6.:.8.>.8.8.8.8.8.8.8.8.6.6.6.6.:.8.u.p.u.u.u.>.>.:.:.:.u.8.:.:.&.&.&.&.s.6.6.6./ / H H A T 2 : ",
"x x T / / / / / 6.6.6.6.6.:.8.>.8.8.8.8.8.8.8.8.8.6.6.6.8.8.u.p.u.u.u.>.8.:.:.:.u.8.:.:.&.&.&.&.s.6.6./ / H H H A T 2 : ",
"x W T / / / / / 6.6.6.6.6.:.8.>.8.8.8.8.8.8.8.8.8.8.8.:.8.8.u.u.u.u.u.>.8.:.:.:.u.8.:.:.&.&.&.&.s.6.6./ H H H H A T 2 : ",
"/ W T T W / / / 6.6.6.6.6.:.8.>.6.8.8.8.8.8.s.s.u.8.8.8.>.8.u.u.u.u.u.8.8.:.:.:.u.8.:.:.&.&.&.&.6.6./ H H H / / A T 2 : "
};
