/* XPM */
static char *xpm_[] = {
/* columns rows colors chars-per-pixel */
"60 60 250 2 ",
"   c #040E23",
".  c #272E37",
"X  c #0C346B",
"o  c #243A57",
"O  c #374653",
"+  c #2E5078",
"@  c #19487E",
"#  c #495157",
"$  c #455B76",
"%  c #515963",
"&  c #546473",
"*  c #656C76",
"=  c #6D747A",
"-  c #757478",
";  c #8C7877",
":  c #83897D",
">  c #063D9A",
",  c #174988",
"<  c #1C5499",
"1  c #154A92",
"2  c #234E86",
"3  c #265386",
"4  c #385C88",
"5  c #235896",
"6  c #325D90",
"7  c #396598",
"8  c #3A6192",
"9  c #1959A9",
"0  c #195AB7",
"q  c #1252AB",
"w  c #255EAF",
"e  c #1E61B4",
"r  c #2A64AA",
"t  c #3869A7",
"y  c #2667B7",
"u  c #356DB8",
"i  c #3C73BB",
"p  c #3771B1",
"a  c #466489",
"s  c #576B87",
"d  c #5B718C",
"f  c #466A96",
"g  c #4E719C",
"h  c #587598",
"j  c #526E93",
"k  c #697687",
"l  c #737A84",
"z  c #787E86",
"x  c #657C98",
"c  c #616C8C",
"v  c #476EA3",
"b  c #4A74A8",
"n  c #577AA6",
"m  c #4678B7",
"M  c #5A7FB6",
"N  c #627FA4",
"B  c #405E82",
"V  c #0956D6",
"C  c #0A56DB",
"Z  c #0C5BDC",
"A  c #0757DA",
"S  c #105DDE",
"D  c #115ED4",
"F  c #165DC1",
"G  c #1C64C8",
"H  c #0E61DC",
"J  c #0F61D1",
"K  c #1263DD",
"L  c #1969DB",
"P  c #1E70DC",
"I  c #266BC8",
"U  c #2B72C8",
"Y  c #3776C6",
"T  c #246DD6",
"R  c #2773DB",
"E  c #347BDB",
"W  c #306EC1",
"Q  c #0659E4",
"!  c #0B5CE2",
"~  c #085BE7",
"^  c #105EE1",
"/  c #0D61E3",
"(  c #0D63EB",
")  c #1364E3",
"_  c #156AE4",
"`  c #1A6DE4",
"'  c #1266EB",
"]  c #166BEB",
"[  c #1A6CEB",
"{  c #1867E6",
"}  c #1D71E5",
"|  c #1D72EC",
" . c #1F79EB",
".. c #146BF3",
"X. c #166AF0",
"o. c #1E73F1",
"O. c #1A72F8",
"+. c #2474E4",
"@. c #2679E5",
"#. c #2C7BE5",
"$. c #2375EB",
"%. c #2579EC",
"&. c #2B7CEC",
"*. c #2A76E7",
"=. c #327DE4",
"-. c #317EEB",
";. c #397EE2",
":. c #2275F1",
">. c #267AF2",
",. c #2B7DF2",
"<. c #2578F7",
"1. c #2775EB",
"2. c #417BC6",
"3. c #867F85",
"4. c #7C838C",
"5. c #7A8189",
"6. c #788697",
"7. c #6B839E",
"8. c #5782B8",
"9. c #5581B4",
"0. c #6A86A8",
"q. c #788CA5",
"w. c #7E91AA",
"e. c #7995B8",
"r. c #6B8DBA",
"t. c #3C83DB",
"y. c #2E81EC",
"u. c #3582E5",
"i. c #3B85E5",
"p. c #3483EC",
"a. c #3A86EB",
"s. c #3C8AEC",
"d. c #3C89E9",
"f. c #2E81F3",
"g. c #2C84FB",
"h. c #3384F3",
"j. c #3A86F2",
"k. c #358AF4",
"l. c #3C8AF3",
"z. c #3989FA",
"x. c #3E94F7",
"c. c #4B81C8",
"v. c #5688C8",
"b. c #4787D7",
"n. c #5B93D8",
"m. c #568ED3",
"M. c #6A94C6",
"N. c #689AD8",
"B. c #6C92C4",
"V. c #77A1D3",
"C. c #448CE5",
"Z. c #428DEC",
"A. c #498DE6",
"S. c #4C91E6",
"D. c #4691EC",
"F. c #4C94EC",
"G. c #4E98EF",
"H. c #5196EC",
"J. c #5399ED",
"K. c #5A9DEC",
"L. c #5898E5",
"P. c #428EF3",
"I. c #428FFA",
"U. c #4592F3",
"Y. c #4B95F3",
"T. c #4E98F3",
"R. c #4A96F9",
"E. c #549BF3",
"W. c #599EF3",
"Q. c #529CFA",
"!. c #539AF5",
"~. c #6A9FE0",
"^. c #5CA2F4",
"/. c #5DA3FA",
"(. c #56A2FC",
"). c #5DA1EE",
"_. c #66A2EA",
"`. c #76A8E5",
"'. c #63A5F3",
"]. c #67A9F9",
"[. c #72ADF4",
"{. c #78B6FF",
"}. c #6DB1FF",
"|. c #85868C",
" X c #848C95",
".X c #8A8E94",
"XX c #868F99",
"oX c #888F99",
"OX c #879097",
"+X c #87909A",
"@X c #8A929C",
"#X c #899194",
"$X c #93989B",
"%X c #929190",
"&X c #AC9392",
"*X c #8B96A3",
"=X c #8E99A4",
"-X c #8A9AAB",
";X c #8595A8",
":X c #949BA4",
">X c #889AB2",
",X c #838EA0",
"<X c #95A5B6",
"1X c #91A0B2",
"2X c #A3A5AA",
"3X c #AEB2B7",
"4X c #AFB0B5",
"5X c #A9A9AA",
"6X c #CFA59E",
"7X c #F6AF9E",
"8X c #D0AEB0",
"9X c #F6B4A5",
"0X c #EBBCB7",
"qX c #EBB4A7",
"wX c #C49A93",
"eX c #8FACD2",
"rX c #B8BCC2",
"tX c #ACBBCF",
"yX c #8CB4ED",
"uX c #A0BEE2",
"iX c #C2BCCA",
"pX c #A9C1DC",
"aX c #BBC5D2",
"sX c #BCD3EB",
"dX c #B9D6FA",
"fX c #AFCBEF",
"gX c #C4C5CA",
"hX c #C6C9CD",
"jX c #C7C8CC",
"kX c #CACDD1",
"lX c #C3CBD7",
"zX c #CCD1D8",
"xX c #D8DADB",
"cX c #D8DCE2",
"vX c #C3D9F6",
"bX c #C8D4E3",
"nX c #DEE3E6",
"mX c #C7E6FE",
"MX c #DAEDFF",
"NX c #D5E8FB",
"BX c #DDF2FF",
"VX c #E5E7EA",
"CX c #ECFDFF",
"ZX c #E5F7FF",
"AX c #F3F4F4",
"SX c #F5FEFF",
"DX c #FCFEFE",
"FX c #F5F6F9",
"GX c #E8EDF6",
"HX c #E9ECD5",
/* pixels */
"! ' X. .f.h.f.f.y.y.U.s.T.T.R.R.P.-.-.Z.Q.G.U.U.!.Y.Q.P.a.j.*.-.y.x.D.U.s.k.y.y. . .k.f.>.%.| %.| _ / / ( Q ( ! ( ( ~ ~ ",
"' ] o.]  .z.h.&.@.k.Y.Y.H.G.C.Z.-.-.-.R.(.J.A.D.E.D.Y.P.P.z.h.h.y.s.T.D.D.x.y.y. . .f.k.y.| %.|  .X.' / / A ~ A ~ ~ ~ ~ ",
"K [ o.o.,.z.h.%.k.s.U.^.A.!.!.R.R.*.P.!.(.^.F.F.E.F.U.Z.l.l.h.&.k.d.U.D.C.b.p.y.f.h.l.p.h.y.$.$.| [ ] o.[ A A Q Q ( ~ ~ ",
"_ [ o.>.,.$.&.h.s.s.D.J.T.Y.i.Y.P.R E Q./.E.E.F.E.T.D.p.P.&.y.@.k.d.D.S.m.t.U t.t.C.Z.l.l.h.,.,.o.o._ ' [ ! A ! Q ( ( Q ",
"] ] | o.<.$.&.k.k.s.s.d.U.Y.i.Z.P.D.u.T.(.Z.D.E.W.G.d.=.I.#.&.k.I.U.T.H.M V.M f b t W E ;.-.j.,.%.$.] [ / ) ! Q Q ( Q A ",
"' _ ] %.>.+.&.p.p.s.x.d.u.C.U.Y.Y.Z.i.a.T.Z.D.T.!.F.U.u.U.C.U b.2.Y i 9.n N <X>Xx 4 v y 9 F T -.%.| | :.[ ' ! ! Q ( ( Q ",
"_ ] | %.f.%.@.y.p.x.a.a.d.d.D.(.Y.Z.Z.;.Z.Z.s.Z.G.!.].Z.E m.M j x x x c s $ oX,X& x s a i U R ,.$.} | o.| / Z ( / ( ..( ",
"Z | } f.@.y.&.p.p.s.s.U.d.d.s.d.;.C.P.Y.P.s.p.s.F.].}.Y.2.Y eX:X3.3.3..X*Xk k l z l * & 2 r 2.-.y.>.$.] ] / Z / ( ( ( ( ",
"/ _ | h.h.p.l.u.a.U.U.x.i.U.Z.E d.a.Y.Y.p.p.u.u.!.].'.D.C.b.N iX0X8XwX; ; ,XoXl OX@X6.* d f , u p.,.| >.[ ' / / ] ....( ",
"..' $.f.y.U.U.U.U.s.d.t.T.D.Q.D.s.P.U.s.=.u.s.d./.W.!.G.Z.L.v 2X0X9X9X0XwX- oX@X6.@X5.5.=X<Xe.t y y.%.| | ' ] ( ( O.' ( ",
"' / %.&.+.R Q.(.D.U.T.D.U.Y.E.E.;.a.=.Z.Z.d.d.Y./.W.H.A.D.;.m >X0X7X7XqX9X6X3.oXOX@X4.4.$X* & e.p Y a.>.| } X.] ..( ..( ",
"Z ) | &.@.y.U.Z.i.U.T.s.C.E.^.E.i.a.Z.Z.P.U.T.E.K./.!.W./.Z.Y M 8X9X7X7XqX6X&Xz @X@X@X5.6.* .   q.b E ,. .} _ X.O.......",
"] ) ,.*.+.h.p.s.U.T.!.E.C.C.H.^.Q.u.C.u.D.E.^.E.J./.^.Q.Y.C.S.v 6XqX7X9XqX; |. XOXOXOXl  X$X%X#XO 0.e @.%.| _ | ........",
"] +.,.j.+.a.a.s.U.D.E.Z.Z.F.G.^.!.s.Z.s.D.E.G.'.^.G.S.F.!.Z.!.v.oX0XqX9X6X; %XoXOXOX+XoXOX#X: HX%X& n.G R L } ` ( ( ( ..",
"_ %.z.a.d.R.Q.Z.G.F.(.E.A./.(.J.C.D.Q.T.D.G.E./.E.C.J.E.F.D.W.`.c 8X0X7XqX; |..X+XoX+X@XOX#X: 3XHX* f U e R P L _ ( / ..",
"K +.z.p.R./.Q.Z.D.T.^.K.S.].).H.Z.Z.D.D.F.E.G.S.H.F.^.K.Z.Y.W._.v.c 8XwX&X&X|.+X+X+X+X+X#X#X|.: 5X# o 8.yXe G P H / H ..",
"[ | $.k.Q.U.U.D.D./.}.L.K.[.^.G.F.D.S.E.^.d.d.D.G.G.E.C.D.U.^.G.L.m d |.* |.oXoX+X+X+X@X+X.X X|.- # bXsXg @ U J H H ' [ ",
"} &.,.h.l.s.d.D.Y.'.}.K.[.{.].K.J.F.^.E.^.G.^.J.H.G.^.G.G.D.G./.(.L.b x =X#X+X+X+X+XOX|.5.5.5.4.@X= hXSXpXt U } _ K K $.",
",.h.z.&.j.a.s.T.A.C.}._.[.{.[.].H.G.E.J.G.^.^.^.G.G.^.^.E.F.G.(.(.b.m 0.& 6.oXoX@X@XXX XXX+X X4.= % xXDXmX3 T } K L ` ` ",
",.g.f.&.*.h.s.T.F.H.].L.[.{.[.'.^.^./.S.K.^.^.).K.).^.).^.T.T.S.C.n.V.h O = @XoXXXOXOXXX+X4.5.= |.hXDXDXuXv.G _ H } 1.L ",
"@.&.%.h.$.#.s.U W b.^.K.).[.[.'.^.^.^.^.].^.^.^.^.^.).F.G.T.D.J.n.m $ & l & * @XXX+X@X|.:XxXFXFXFXDXFXSXZXN.F | K K Z L ",
"+.f.z.y.p.G y ~.`.M.i m.L.].'.].K.S.^.].^.'.K.J.).).G.S.S.L.n.m.7 h w.:X@X=X= XX+XXX+X6.4.VXDXSXDXSXZXeXM r +./ V K K Z ",
"@.f.h.p.T m.mXCXSXZXsXn n._.).).^.G.H.H.K.^.^.^.^.).^.S.m.v.9.h q.-X*X+XOX@X6.#X+X+XOX@X6.6.MXMXmXdXV.< G R P K V _ K Z ",
",.&.*.=.I L.uXsXZXSXSXNXb _.).).^.K.J.E.G.^.K.^.'.'.[.8.f 7.w.-X*XOXOXoXoXoXOXOX+X X4.k $ s f b , , 0 E | ] _ P V J K V ",
",.,.j.-.@.G G < M.ZXBX3Xh 8.[.).K.^.J.T.F.G.K.).'.[.r.7.w.-X;X+X+X@X+XOX@XOX+X+XOXXXXX,Xc g N.b.C.;.=.` { [ ) _ H D V V ",
"[ $.,.z.k.&.h.d.r eX1X= -Xh N.[.^.^.T.T.G.E.^.].'.n.a -X*X+X+X+X@X$X+X+X6.5. X+XOXXX+X@X-Xh m E.j.$.$.$.` _ H ) { K C V ",
":.$.,.h.h.@.p.p.S.i q.+X$X7.b [.K.C.T.G.F.^.K.^.].m.f ;X;X+X+X6.4.= 5.5.#XaX.X|.5.5.@X+X@X>Xg c.C.>.,.>.| ] ] H H ) S Z ",
":.$.&.p.h.y.p.p.a.U h -X+X-X4 8._.C.D.T.D.E.J.^.K.~.0.q.;X+X$X5.% 4.|.= gXjXz OXtX4.@X+XXX;X;X8 Y d.p.+.H _ [ ] K Z V Z ",
"<.$.} y.j.@.@.#.p.b.v w.;X*X6.+ n.F.d.D.i.Y.(.'.L.M.$ 6.@X+X@X4.l OX= aXhXaX2XaX1Xk -X@X+X+X;Xw.f r i.h. .} } X.) H V C ",
":.$.f.,.f.@.p.I.k.A.m 0.>X+X:Xh , b.b.t.A.K.L.c.t n x & $X+X@X+X* 5.rXkXgXaXhXaXa 8 j q.-X@XOX;X>Xf Y s.x.} }  ._ { Z Z ",
"<.,.,.&.&.@.u.k.s.i.b.7 ;X@X@X-Xd X m n.c.7 a j 0.-X-X% l =XOX=X* 2XkXaXgXgXsXw.r t.W p 0.;X@XOX*X0.u i.y.f.%.>.| K / Z ",
"| %.,.$.@.%.u.#.p.u.d.p 7.=X@X@X=X7.+ @ 4 h ,X=X@XoXOX X# 4.@XOX%X4.rXkXhXlXtX6 t.k.U.S.7 n -XOX=X7.r E #.y.%.%.%.H C Z ",
") f.<.%.>.&.p.u.p.k.i.b.+ >X;X+X=XXXO c ;X=X*XXXXXoX@XoX- # 5.#X#X* $X4XaXpX7 b.D.x.l.t.t.7 w.OX@X0.i u.P y.f.%.$.K Z Z ",
"%.f.} | &.&.h.=.k.s.d.S.t a 1X$X X. 6.=X+XOXXX X*X Xl |.3XrX5.z 4.:XVXVX2X+ v.L.D.Z.d.d.E u 0.@X@X0.y y.@.f.f.&.} H ! A ",
"| | $.$.1.$.&.p.k.a.s.D.b.5 h =XO |.*XXXOXOX@X@Xz = 2XgXjXhXkXOXxXDXDXDXFXw.3 < 2.b.r Y C.i x @X=X0.e %. .f.y.y.,.` Z / ",
"` ,.<.$.>.+.&.&.#.a.U.Y.T.n.f O 5.*X X+XOXOX*Xl |.aXkXgXgXaXhX8XFXDXDXDXDXCXuXdX~.M.mXM.5 b q.XX;Xg U >.@.f.f.+.} | [ Z ",
"` $.:.$.1.,.j.-.*.j.U.U.T.'.n $ *X@XOX@XoX@Xl @XkXjXgXgXgXgXjX4XDXDXDXDXFXVXCXCXyX8.CXCXbXZXcX* x f 2.,.1.,.z.1._ | [ A ",
"<.,.>.>.j.l.-.P.=.j.R.;.H.N.f q.*XOXXXOXoX|.z kXgXgXgXjXgXgXkX2XFXDXDXDXDX:X>XuXm b eXMXSXSXFXcXnXeXe j.L ,.,.I.>.} H H ",
">.,.<.1.I.I.P.P.P.a.P.A.2.8 q.;XXX+X+X.X*Xl 3XkXgXgXgXgXjXgXjX$XAXDXDXFXDXpX5 U S.A.e < uXSXSXDXDXMXv G R +.,.,.>._ A A ",
",.,.,.,.I.P.Y.R.P.i.A.u f q.*XoX+XOX+X+X X XgXgXgXjXgXgXgXgXgX2XVXDXDXAXAXvXy x.l.s.l.S.< vXSXDXDXSXfX1 ;.$.,.,.| _ _ H ",
"h.,.:.$.z.P.I.U.C.H.t 4 w.*XXXXXoXXXoX@X X:XhXgXgXgXgXgXgXjX3XzXDXAXFXxXAXmX9 x.D.R.U.U.I v.CXDXDXDXSXr.0 1.,.,.1.] ^ ^ ",
",.h.>.1.&.-.p.d.S.m a ;X*XXX+XoXoXoXXX,X|.oXhXgXgXgXgXgXgXgXaX3XxX3XhX- FXBXt x.T.T.U.u.p.e vXDXFXAXVXvX> ,.,.,.:.X.^ ^ ",
">.*.$.>.*.&.*.A.b f >X;X+XOX+X+XoXoXoXoXoX XgXgXjXjXkXgXgXjX3Xl = 5.* #XDXsX3 S.F.T.l.y.&.0 eXDXcXVXkXZXw T T ,.<.] ^ ! ",
":.[ $.h.&.&.j.Y f ;X,XOX.XOX+XXXoX;X*X-X-X6.tXaXaXaXaXaXlX3X4.@X@X$X4.2XDXOX6 i S.Y.p.%.,.F e.DXzXVXkXCX2.D 1.:.<.| ^ C ",
":.$.g.z.j.-.P.y 0.=XXX@XOXOX+X*X;Xq.N n v f f n b v h 0.h s q.*X@XOXXX4.$X4.>X7.t.T.u.@.%.e r.DXbXiX3XCXy L ` >.<.o.{ ! ",
"[ :.` *.+.j.D.m x =XXX@XOXOX@X6.N n m m 2.v.M.~.n.c.v.2.8.9.g d XX@XXXXX4.@X@Xe.9.U.s.+.| G r.SXbXx N yX0 $.} $.$._ { ! ",
":.{ ! L T F y t a k :XXXoX+X@Xd 2.A.2.A.!.K.'.].!.F.!.S.K.L.L.8.s  X@XOX@XOX-X0.c.(.s.} >.F r.CXyX1 E e R K +.` _ ) Z ' ",
"o.[ ] *.U m.`.B.pX6.% $X@XoX@X0.t Y.I.Z.Z.D.W.!.;.#.p.p.I.C.b.p 0.@XXXXX@X:Xw.$ @ r t.#.%.J m fX2.G +.f.%.K K K { Z A Z ",
"1.{ { I X eXNXGXzX3X.X* |.*X+X-Xf t ^.U.P.a.U.R.-.,.,.-.P.S.7 7.*X@X+X@X4.%   c pXfXm.I R R E q J L } %._ ) _ H C C C C ",
"` ` T q pXGXcXnXDXFXDXVX.Xz 4.5.6.4 Y Z.s.=.j.P.-.,.1.-.Z.r j x 4.4.l = $X3XtXGXVXaXV.r R P f.f.} [ |  .) ) _ Z ^ C C C ",
"S -.0 ~.SXDXFXFXDXDXDXDXVX:XjXz :XsXt S.-.l.l.-.-.,.1.;.w b NX3X5.3X2XxXDXDXDXDXxXnXpX7 U y.y.%.) | o.[ ) ) S ) C C ~ ~ ",
"{ -.0 N.FXiXkXcXDXDXDXDXDXFXDXFXAXCXN.Y Z.I.z.-.z.,.1.Z., fXSXDXFXDXDXDXDXDXDXVXVXDXDXdX0 %.` } L _ | [ ) K S S ^ C ~ ~ ",
"^ [ *.W 0.bXDXDXFXDXDXDXDXDXFXDXDXCX8.b.;.p.l.j.z.&.,.;., mXSXDXDXDXDXDXDXDXAXnXkX2XFXCXY L +.` K _ ` ` _ ' K V ^ ^ ' ( ",
"^ 1.,.E X BXDXDXDXDXDXDXDXDXDXFXMXe.< F.a.-.=.j.p.-.,.Z.< yXCXDXDXDXDXDXDXDXDXDXDXkXaXmXq ,.+.} _ ` $._ H Z C C C ^ ' ~ ",
"X.:.[ =.0 V.BXZXMXdXvXBXNXvXfXV.@ 5 L.;.s.l.a.a.l.l.@.y.i.< r.sXZXDXDXDXDXDXDXDXDXDX9.i R ,.} | ` K ` _ S ^ V Z C C ~ C ",
"^ o.{ D R > < f t 3 6 f 3 2 2 < b.(.U.U.j.l.U.I.U.u.R y.l.U.r 7 n >XtXvXvXvXMXZXZXdX1 I f.[ %.` _ _ L K { { V C ~ C ~ ~ ",
"o.X.^ { { *.G T I ;.A.A.A.A.A.Y.C.Z.Q.P.@.R p.s.l.u.#.j.*.=.S.]._.u e 9 e e i i u q E *.<.$.[ ` _ { ` Z ) { ^ ! C C C ~ ",
"X.^ ^ ^ [ X.<.<.<.,.-.P.I.z.R -.U.Z.T.p.P #.u.s.a.u.U.z.+.+.Y.!.(.R.x.g.g.f.u.#.R &.$.<.<.o.| [ K { K Z ^ ^ ^ C C ^ C Q ",
"^ ^ C ^ { :.<.[ $.>.{ ,.z.j.-.-.U.R.U.a.+.&.u.Q.P.U.I.#.j.l.p.Y.(.U.k.y.f.$.$.h.1.` { [ <.] [ [ Z Z H Z ! ! ! C C Q Q Q ",
"^ S S { { { X.{ { { S ,.j.*.j.P.Z.R.s.-.#.*.Z.R.d.U.j.u.p.=.u.Y.Q.s.y.} ,.$.+.,.1.] ] ] O.] 1.>.{ Z Z ) ^ ! C C Q Q ~ Q "
};
