/* XPM */
static char *xpm_[] = {
/* columns rows colors chars-per-pixel */
"60 60 235 2 ",
"   c #744600",
".  c #7F5500",
"X  c #7F5805",
"o  c #7E561A",
"O  c #7D5726",
"+  c #7C5A2C",
"@  c #7D5634",
"#  c #7D5A34",
"$  c #7F573A",
"%  c #7D5B3C",
"&  c #7D5C42",
"*  c #7B5D4C",
"=  c #7A5E54",
"-  c #7D6249",
";  c #786458",
":  c #755E62",
">  c #796568",
",  c #766976",
"<  c #6D7471",
"1  c #825400",
"2  c #815901",
"3  c #80560D",
"4  c #835815",
"5  c #815929",
"6  c #815736",
"7  c #825A3D",
"8  c #AC6A3B",
"9  c #825E44",
"0  c #8A5E46",
"q  c #8C6345",
"w  c #896348",
"e  c #946A4B",
"r  c #986B48",
"t  c #896A54",
"y  c #A66D47",
"u  c #A36E4A",
"i  c #AC7346",
"p  c #A5724C",
"a  c #AB724C",
"s  c #B27749",
"d  c #BC7A4C",
"f  c #A16F50",
"g  c #A57151",
"h  c #A97651",
"j  c #AD7A54",
"k  c #B47B55",
"l  c #BC7E56",
"z  c #BB7E59",
"x  c #8E7468",
"c  c #A57D69",
"v  c #C17E58",
"b  c #B8834F",
"n  c #BE8156",
"m  c #B58059",
"M  c #BE815A",
"N  c #C98656",
"B  c #CF8954",
"V  c #C2845B",
"C  c #C4895D",
"Z  c #CD8A5D",
"A  c #D5945F",
"S  c #C78661",
"D  c #CC8B62",
"F  c #D18C63",
"G  c #D89764",
"H  c #DABA7B",
"J  c #E4A565",
"K  c #ECB066",
"L  c #F4B76C",
"P  c #6A698A",
"I  c #746C82",
"U  c #6E6E93",
"Y  c #6B739A",
"T  c #5771B4",
"R  c #667AA9",
"E  c #6078B3",
"W  c #0655DC",
"Q  c #0956D8",
"!  c #0956DC",
"~  c #0B5BDD",
"^  c #165DDB",
"/  c #0C60DF",
"(  c #1263DE",
")  c #1868DD",
"_  c #2773D8",
"`  c #075AE3",
"'  c #0759E4",
"]  c #0B5DE2",
"[  c #105BE1",
"{  c #0D61E4",
"}  c #006AE5",
"|  c #0562EC",
" . c #0C63EA",
".. c #006BED",
"X. c #1265E4",
"o. c #1966E3",
"O. c #156BE5",
"+. c #1A6DE5",
"@. c #1266EA",
"#. c #156AEA",
"$. c #1A6DEB",
"%. c #0371ED",
"&. c #1D73E5",
"*. c #1872EA",
"=. c #1D72EB",
"-. c #006AF4",
";. c #146EF1",
":. c #1C6EF2",
">. c #0078F3",
",. c #1D72F2",
"<. c #1B7CF3",
"1. c #226EE8",
"2. c #2274E6",
"3. c #257AE5",
"4. c #297CE7",
"5. c #2375EC",
"6. c #2A76EC",
"7. c #257AEC",
"8. c #2B7DEC",
"9. c #387AE6",
"0. c #327FED",
"q. c #226DF3",
"w. c #2375F2",
"e. c #257AF2",
"r. c #2B7DF2",
"t. c #2979F4",
"y. c #317EF3",
"u. c #4978CD",
"i. c #537AC5",
"p. c #497BD2",
"a. c #827E81",
"s. c #3B93B8",
"d. c #59899D",
"f. c #6D8996",
"g. c #4F96B4",
"h. c #678CB9",
"j. c #7FA1B9",
"k. c #3C95C4",
"l. c #3999CB",
"z. c #3BA0CB",
"x. c #2BA5D7",
"c. c #35A8DB",
"v. c #0387F6",
"b. c #1E83F7",
"n. c #2D81E6",
"m. c #2D81ED",
"M. c #3883E5",
"N. c #3384ED",
"B. c #3A86ED",
"V. c #3689ED",
"C. c #3B8AED",
"Z. c #2D81F2",
"A. c #2884F8",
"S. c #3384F2",
"D. c #3A86F3",
"F. c #3589F3",
"G. c #3C8BF3",
"H. c #378AF9",
"J. c #338DFA",
"K. c #3D91F5",
"L. c #3A92FA",
"P. c #3BAEE2",
"I. c #5A85C8",
"U. c #469CC6",
"Y. c #4682DA",
"T. c #4C89DC",
"R. c #5587D5",
"E. c #5898D5",
"W. c #648BC8",
"Q. c #6890D5",
"!. c #6396DA",
"~. c #759BD9",
"^. c #4AA6CD",
"/. c #56A5C4",
"(. c #51A9CB",
"). c #48A8D7",
"_. c #52B5DC",
"`. c #478AE5",
"'. c #428EEE",
"]. c #568FE0",
"[. c #4B90E7",
"{. c #4491EE",
"}. c #4A93ED",
"|. c #5697EA",
" X c #5A9CEC",
".X c #418DF2",
"XX c #428EF3",
"oX c #4592F3",
"OX c #4B94F3",
"+X c #4C99F4",
"@X c #4394F8",
"#X c #4A9AF9",
"$X c #5296F2",
"%X c #539AF3",
"&X c #5A9DF3",
"*X c #519DF9",
"=X c #6292EA",
"-X c #4AB6E5",
";X c #57B8E3",
":X c #5DA1F4",
">X c #58A2FA",
",X c #63A4F4",
"<X c #6BAAF6",
"1X c #61A6FA",
"2X c #74AEF5",
"3X c #7DB4F6",
"4X c #909198",
"5X c #8697A6",
"6X c #86A3B8",
"7X c #BEAEA4",
"8X c #B7ABAD",
"9X c #BAACA9",
"0X c #B7ADB2",
"qX c #DAB78B",
"wX c #CDAF92",
"eX c #C4AF9F",
"rX c #CEB092",
"tX c #C5B19E",
"yX c #E4B996",
"uX c #C1ADA2",
"iX c #C3B1A2",
"pX c #D3BCA3",
"aX c #EAC192",
"sX c #DAC7AD",
"dX c #E6CDAD",
"fX c #EACBAC",
"gX c #F1CCA8",
"hX c #EBD0A4",
"jX c #FDDBA5",
"kX c #F9D5A9",
"lX c #FADCA8",
"zX c #99A5CD",
"xX c #9DAAD5",
"cX c #8EADE7",
"vX c #CCC4C9",
/* pixels */
"Q ' ` ]  .#.,.:.,.#.=.e.5.=.$.=.e.e.r.t.Z.Z.e.F.V.G.K.m.V.C.C.F.F.G.+X+XG.XXK.}.+XoXC.G.H.*X&X$XOXXXXXy.XXXXOXXXt.y.XXy.",
"! ` ] '  .{ ;.,.,.$.r.w.e.5.5.r.=.e.S.Z.*.=.=.Z.Z.F.F.F.C.K.G.N.e.N.F.oXoXG.3.5.oXG.@XG.XX$X@XXXXXXXXXXX$XOXXXXXXXD.t.y.",
"@.{ |  . .] @.;.=.=.e.5.,.=.e.A.e.e.t.,.=.e.m.F.F.S.m.4.F.F.K.C.r.Z.G.OXN.N.N.m.N.C.XXH..XXXOX.X$XXXXXXXXXXXXXy.XXD.XXy.",
" .| '  .@.@.@.#.;.,.e.A.=.=.e.e.,.t.t.e.=.=.m.Z.@X@Xm.m.F.F.G.D.S.XXXXC.G.V.C.oXG.@XG.G.D.OX.X}.$XXXOX$XXXXXXXXXH.D.D.S.",
"]  .| `  .{ @.#.=.=.7.=.e.r.r.F.e.e.r.e.m.N.m.F.{.K.F.m.S.r.S.XXG.+X+X%XoX{.{.OX%XOXS.D.S..XoX$X$X%XOXXXOXy.H.D.t.Z.D.A.",
"~ ] ` W { X.@.,.*.=.e.e.e.S.F.F.Z.e.e.m.D.@X{.{.+XOXV.m.S.S.'.G.D.}.}.}.%X{.{.+X,X%XB.6.y.S.'.oXOX&X'.OXOXy.t.t.S.F.G.7.",
"~ ~ W X.$.#.#.:.*.7.e.e.Z.N.N.H.F.Z.A.r.S.H.K.@XoXL.L.Z.<.Z.H.H.H.F.+X#X>X#X*X+X>X>X+XA.e.L.OXOX%XOX'.&X}.V.G.y.t.S.G.e.",
"W W ~ +.#.@.$.=.=.7.Z.m.Z.F.S.F.C.M.M.`.`.`.T.].].Y.T.p.p.u.u.p.Y.I.W.W.Q.I.W.I.W.W.h.T T E T.D.'.%X|.+XC.XXG.G.Z.:.e.S.",
"{ ~ { { #.:.,.7.e.=.Z.Z.7.e.A.A.p.% = * & % % # # + + 5 4 X X o 2 4 . X . 1 1 1 1 1 1 2 . 1 I.G.}.'.XXC.}.C.N.F.V.5.=.7.",
"{ { { O.=.e.=.=.7.Z.Z.e.,.Z.C.J.R.2 6 5 + 6 6 @ 6 7 7 6 7 7 7 7 7 7 7 7 9 & 9 % & % 9 9 * @ !.#X'.V.C.C.C.oXV.m.7.=.7.S.",
"` / / X.#.=.=.7.7.F.Z.Z.D.Z.F.J.p.O % q r r u u p p p u p p u u p y p y u y a a a a p 9 @ & T.C.'.V.C.`.C.oXn.N.6.7.Z.8.",
"{ } X.#.,.=.=.r.F.m.e.Z.K.m.G.@XT.+ $ e n V v V n n n n n M n n n n l N V v V n v V p 7 6 = _ N.{.V.C.C.{.C.G.N.n.N.V.B.",
"@.#.O.O.e.,.e.Z.Z.e.F.K.C.F.{.K.T.% # e k l l l l l m M n l d d N b v l l l l l v z h 9 6 ; Y.%X{.}.OXC.C.OXoX}.}.G.C.Z.",
";.*.=.&.7.Z.t.S.F.F.C.C.K.G.C.{.E.- # q z l l l m l V d 8 t x x x r s V b l l v v M f 9 5 : &X,X}.%X'.OX}.}.C.OX1XC.m.7.",
"*.#.*.5.e.=.w.S.S.m.V.K.C.N.N.+X].* + q z l l l n v y ; d.s.l.^./.g.< 8 v l l l v z g 9 5 ,  X:X$X}.C.%X%X+XoXN.'.B.V.2.",
"*.*.*.=.5.$.,.A.m.3.m.oXB.3.4.V.Y.= + q z n l l V a < s.l.k./.(.(.^.g.< a V l l v z u 7 4 , :X%X}.}.}.%X%XOX}.}.N.N.4.2.",
"O.&.&.O.*.=.e.7.V.V.oXC.V.N.n.V.M.; O q k v l l l t d.l.k.U.^.(.^.k.k./.t d v b N V p & 4 , *X>X,X$XoX%X%XoXOXC.XX+X@XN.",
"&.&.*.*.&.Z.F.V.N.K.oXG.n.7.V.F.n.; 5 q k v l l i < U.k.l.^.^.^.).l.).).Y s F N N D h & 2 P +X&X<X&X@X:X&X+XOXC.$X&X&XXX",
"/ ) &.) &.S.S.G.F.m.F.m.=.m.V.K.[.> O 0 k V v S i f.c.U._.;X;X;X).)._.c.^.p C Z Z D p & 1 Y +X X2X<XOX&XcX>X+X'.XXoXOXOX",
") &.&.&.m.F.D.oXG.F.K.K.V.V.m.{.%X> 5 q n D D F s g.c.).;X;X;X).z.-X_.P.^.x Z D Z D f & 1 R >X,X3XcX<X,X2X&X+XoXC.V.G.G.",
"O.O.&.b.7.F.G.K.@X+X@X+XoXC.V.{.}., 4 0 S D D F i /.c.).-X-X-Xx.P.P.x.c.x.a.N D N D p & 1 h.:X<X3XcX>X>X<X'.oXOX'.C.C.N.",
"O.O.) &.7.F.G.@X+X+XoX+X}.C.{.%XC.I 3 w M F Z F s f.h.6X6X6Xj.5X5X5X4X4X4Xc N D C D r & 1 h.1X2X2X2X>X>X,X+X}.'.C.G.7.5.",
"( *.*.b.&.3.K.{.oX{.{.>X+XC.'.{.@XU 2 w n D Z Z N C C B N B N N B B Z N N Z D S Z F r $ 1 W.1X<X<X,XOX:X&X'.'.N.C.7.6.F.",
"( ) O.&.*.3.m.F.N.C.{.OXG.V.C.C.K.Y 1 w M D Z Z Z D D D Z D D C D D C D S D S D Z C r @ 1 W.&X&X:X,XoX{.oXB.N.M.4.7.8.S.",
") O.#.*.*.m.Z.<.Z.oXoXG.G.G.G.C.J.Y . w z F Z Z Z Z Z Z Z Z Z Z Z Z Z Z Z Z Z Z D S e % 3 !.>X,X:X:X+X{.G.oXXXN.3.m.S.Z.",
") } O.#.#.*.e.=.r.oXoX@XXXF.XXXXL.R . w z D Z Z Z Z Z Z Z Z Z Z Z Z Z Z Z Z Z Z Z C e 6 5 !.1X<X:X+X+X}.}.OX}.3.m.N.m.Z.",
") } O.#.*.=.8.7.F.XXoXK.F.S.N.XX#XR 1 9 k D Z D Z Z Z Z Z Z Z Z Z Z Z Z Z Z Z Z D V w # 7 !.<X:X$XV.{.$X%X}.C.B.m.7.3.D.",
") *.*.{ ;.7.m.Z.A.G.C.G.F.H.F.n.J.E 1 9 m D S S Z Z Z Z Z Z Z Z Z Z Z Z Z Z Z Z D S q + -  X1X X|.{.B.'.V.M.N.V.n.7.N.F.",
"$.$.O.&.2.F.F.Z.S.G.G.F.A.F.S.m.b.T 2 9 k F J J Z Z Z Z Z Z Z Z Z Z Z Z Z Z Z C D V w O ;  X+X}.OX'.XXN.4.G.XX7.4.4.Z.S.",
"2.5.&.Z.G.V.D.m.e.G.m.Z.S.m.=.m.b.T . w j G L L A Z Z Z Z Z Z Z Z Z Z Z Z Z Z Z D M w o > }.oXV.}.}.OX%XXXXXV.B.D.m.Z.8.",
"7.e.8.S.m.m.C.8.5.F.N.=.7.F.K.S.A.i.1 & k Z K K Z Z Z Z Z Z Z Z Z Z Z Z Z Z Z Z F z w o , %X%X'.'.XXOX+XB.m.B.N.N.m.0.8.",
"5.7.7.7.&.3.F.m.m.V.N.7.m.F.K.@XL.i.2 & s A J K A Z Z Z Z Z Z Z Z Z Z Z Z Z Z D D l 9 . I :X&X}.oXC.C.}.8.8.N.m.S.4.2.5.",
"7.8.D.4.*.n.m.&.V.V.N.8.m.F.e.Z.L.I.. & p G L L G Z D Z Z Z Z Z Z Z Z Z Z Z Z Z F k w . P @X%X}.OXXXXX}.V.N.S.N.V.N.8.7.",
"8.m.V.Z.&.n.3.&.C.V.C.C.m.7.F.N.J.R.1 % j F J J F D Z Z Z Z Z Z Z Z Z Z Z Z Z Z D k 9 2 U K.%X%X$XXXV.'.'.4.V.V.8.8.8.7.",
"=.r.S.e.&.3.n.n.7.{.{.C.D.F.7.H.L.I.2 % h D Z N Z Z Z Z Z Z Z Z Z Z Z Z Z Z Z Z D j 9 1 R @X+X}.$X@XOXoX@XC.N.Z.S.7.5.S.",
"7.r.F.5.&.n.&.=.7.C.{.F.r.S.F.S.L.R.4 # h D Z Z Z Z Z Z Z Z Z Z Z Z Z Z Z Z Z Z Z j 9 . R *X%X}.%X:XOXXXXXG.7.m.S.8.y.t.",
"S.D.t.+.&.3.3.=.m.n.C.N.8.F.G.S.J.R.5 # p D Z Z Z Z Z Z Z Z Z Z Z Z Z Z Z Z Z Z Z j & 2 R L.>X%XOX%XG.S.+XXXS.C.G.F.D.y.",
"S.S.,.2.3.&.) O.*.m.m.V.V.F.F.F.J.R.6 # g D Z Z Z Z Z Z Z Z Z Z Z Z Z Z Z Z Z Z Z h & . h.*X%X:XOXC.'.G.XXB.XXXXOX@XXXOX",
"t.S.e.+.&.3.) 2.&.O.n.N.&.N.XXD.@XT.% @ g D Z Z Z Z Z Z Z Z Z Z Z Z Z Z Z Z Z Z Z h % X W.>X}.}.&XOX%XD.D.G.'.XX+XG.XXOX",
"A.S.=.#.2.3.3.3.&.&.3.7.4.4.F.}.*XT.9 @ f Z Z Z Z Z Z Z Z Z Z Z Z Z Z Z Z Z Z Z C p % X W.>X:X}.&X$X+XG.y.}.C.G.XXy.H.y.",
"A.2.+.O.&.m.7.+._ &.=.+.2.2.Z.G.@X=X9 @ r C Z Z Z Z Z Z Z Z Z Z Z Z Z Z Z Z Z Z Z p & o ~.1X>X,X%XXXV.0.B.S.C.C.8.8.r.8.",
"t.6.&.O.&.3.2.2.+.+.5.+.2.2.m.C.*X[.= @ r C Z Z Z Z Z Z Z Z Z Z Z Z Z Z Z Z Z Z S p % + ~.1X X,X&XC.XXV.0.8.F.N.D.F.m.r.",
"e.5.&.&.=.3.8.5.+.3.5.5.2.3.7.C.#X[.= O f C Z Z Z Z Z Z Z Z Z Z Z Z Z Z Z Z Z Z C p % & !.:X,X&X}.OX$XXXZ.S.N.8.B.G.N.8.",
"e.&.&.&.3.V.N.2.&.=.4.8.5.=.&.V.OX$X: O e S Z C Z Z Z Z Z Z Z Z Z Z Z Z Z Z Z Z C e # * `.@X$X'.B.S.XX@XS.N.N.y.y.N.2.#.",
") 2.O.+.3.5.=.7.=.2.8.=.5.2.3.XX*X$X: o e C Z Z Z Z Z Z Z Z Z Z Z Z Z Z Z Z Z Z C r @ = `.XXG.'.B.r.D.D.XXC.8.m.N.8.@.5.",
"( O.X.X.2.7.=.O.+.5.&.3.2.5.2.C.$X}.> 5 e N Z Z Z Z Z Z Z Z Z Z Z Z Z Z Z Z Z Z C e O ; 9.G.XXXXXX5.y.r.F.B.V.B.0.+.:.w.",
"~ ) +.X.O.7.=.O.+.7.m.8.&.=.3.V.#X$X, o e V Z Z Z Z Z Z Z Z Z Z Z Z Z Z Z Z Z D S e o , 0.G.6.S.G.1.5.t.8.0.V.D.8.@.$.$.",
"^ o.X.( O.#.w.=.X.2.4.2.7.8.3.D.OX%X, X e V F Z Z Z F Z D Z Z D Z Z F Z D Z Z D V q 4 , B.y.6.r.t.w.t.$.B.N.7.8.0.5.t.S.",
"^ ] @.X.O.$.=.#.( +.2.+.1.N.'.'.D.v.P   0 z C V V V C M C M C C C V S C C V V V v 7   P v...M.0.6.w.#.r.y.D.y.N.B.7.6.S.",
"W ~ { ( { &.=.#.+.+.+.5.+.>.v.v.&XxXpXqXyXyXaXaXaXaXaXaXaXaXaXaXaXaXaXaXaXaXaXaXaXqXqXpXxX=X>...-.1.1.5.8.XXXX8.8.$.&.8.",
"Q ~ ~ { ~ ) 2.( o.6.1.| >.=XxXvXkXkXkXkXkXkXlXjXlXlXlXlXlXlXlXlXjXlXlXlXlXlXlXlXjXjXjXjXjXkXvXcX9.-.t.5.8.G.XXXXN.r.r.e.",
"Q Q ~ @.) ) +.+.+.) %.=X0XdXhXgXfXfXgXfXgXfXfXfXdXdXdXdXdXdXdXdXfXdXdXdXdXdXdXdXfXfXfXfXfXgXhXdXsXzXr.9.8.N.8.y.6.1.5.w.",
"~ ! [ +.) ( +.( O.9.} 6XH rXrXwXrXrXrXrXwXwXwXrXrXrXrXrXwXrXwXwXrXrXrXrXrXrXrXrXrXrXrXrXwXwXrXrXqX0XH.XXD.0.$.5.6.X.X.o.",
"! ~ { X.^ ~ ) ~ @.1.} 9.0X8X8X8X7X9X9X9X9X9X9X9X9X9X7X7XuX7X7X7X7X7X7X7X7XiXiXiXiXtXiXiXiXiXiXiXtX~.b.B.D.r.5.t.w.,.$.$.",
"! [ ` ` o.~ ~ ~ ~ +.5.| -.-.-.......7.A.%.<.t.e.r.F.+X&XoXm.B.B.N.C.}.{.C.|.C.B.9.9.`.$X&X=X'.9.S.S.OXr.+.5.5.@.w.w.:.@.",
"[ ' ! ] ] ~ ] ' 1.7.1.@.q.:.:.:.q.t.y.6.$.t.Z.t.F.G.oX%XXXS.0.S.5.8.D.B.V.}.B.3.t.S.t.XX#XXXH.D.t.y.D.$.@.+.#.X.@.+.[ @.",
"` W ] ' ' ` ] +.+.#.$.@.$.:.@.;.w.S.y.w.t.t.5.r.S.XXy.XXB.D.'.S.7.2.6.4.0.8.B.y.8.6.S.'.}.XX9.y.r.5.t.1.{ @.@.@.] ~ ( ^ ",
"` ' ] ]  .[  .o.@.X.@.{ @.@.w.w.,.S.S.t.S.t.e.8.D.S.t.r.S.8.N.N.G.0.2.2.5.S.0.0.r.0.0.N.G.r.t.t.y.y.6.o.[ ] {  .o.~ Q ^ ",
"' ' ' ]  .] @.@.@.X.O.X.@.5.6.t.w.w.y.t.H.A.t.S.r.7.t.y.S.5.7.8.6.0.N.8.F.D.0.7.0.6.7.8.y.y.t.r.y.D.r.1.+.o.' X.[ Q ~ Q ",
"-.' ` @.@.` !  .O.( ~ ] @.5.w.e.1.t.t.t.t.S.t.t.S.Z.r.S.0.6.5.t.t.8.B.XX0.7.D.8.6.4.6.S.D.S.S.N.t.:.5.+.t.r.@.^ @.@.o.Q "
};
