/* XPM */
static char *xpm_[] = {
/* columns rows colors chars-per-pixel */
"60 60 228 2 ",
"   c #E17F00",
".  c #DF9802",
"X  c #E28401",
"o  c #E28C05",
"O  c #E38E0A",
"+  c #E19300",
"@  c #E39A02",
"#  c #E2960A",
"$  c #E29B0C",
"%  c #E59C13",
"&  c #DFA500",
"*  c #E4A500",
"=  c #E7A804",
"-  c #EAAC00",
";  c #E2A40D",
":  c #EBB601",
">  c #F1BD00",
",  c #E3A514",
"<  c #E4AB15",
"1  c #E2A51A",
"2  c #E5AE1A",
"3  c #E8A918",
"4  c #E6B11D",
"5  c #E8B51E",
"6  c #EBBD18",
"7  c #EABA1C",
"8  c #DFA428",
"9  c #E3A825",
"0  c #E4AD25",
"q  c #E2AB2A",
"w  c #E6B421",
"e  c #E9B621",
"r  c #E7B825",
"t  c #EABB25",
"y  c #E6B62D",
"u  c #EABC2B",
"i  c #E9BB34",
"p  c #F4C500",
"a  c #F8CB00",
"s  c #FED000",
"d  c #EEC116",
"f  c #EEC21A",
"g  c #F0C416",
"h  c #F1C51C",
"j  c #EDC128",
"k  c #F0C625",
"l  c #F2C92A",
"z  c #EDC433",
"x  c #EEC33D",
"c  c #F1C531",
"v  c #F2CC34",
"b  c #F4CD3B",
"n  c #F5D03B",
"m  c #FFE42C",
"M  c #FFE33D",
"N  c #DAA848",
"B  c #D7A95B",
"V  c #CA8D75",
"C  c #CAA57A",
"Z  c #F2CD46",
"A  c #F6D343",
"S  c #F6D44C",
"D  c #F8D649",
"F  c #F8D64A",
"G  c #F9D84D",
"H  c #E6C155",
"J  c #E8C357",
"K  c #E6C25A",
"L  c #F4CF50",
"P  c #F4D357",
"I  c #FADA53",
"U  c #FDDF5D",
"Y  c #FFE343",
"T  c #FFE14D",
"R  c #FFE154",
"E  c #FEE05E",
"W  c #FBDE62",
"Q  c #F7DC6C",
"!  c #F3DB77",
"~  c #FEE060",
"^  c #084ACD",
"/  c #054AD2",
"(  c #0B55D5",
")  c #0956D5",
"_  c #0655DD",
"`  c #0A56DB",
"'  c #0759DD",
"]  c #0B5BDC",
"[  c #145CD7",
"{  c #135DDD",
"}  c #0E60DE",
"|  c #1263DE",
" . c #156ADE",
".. c #1A68DA",
"X. c #2E74DF",
"o. c #0455E2",
"O. c #065AE4",
"+. c #0B5CE3",
"@. c #065CEA",
"#. c #085EE9",
"$. c #115FE6",
"%. c #085EF3",
"&. c #0D62E4",
"*. c #0463EC",
"=. c #0D63EB",
"-. c #046BEA",
";. c #1265E4",
":. c #1A67E2",
">. c #156AE4",
",. c #1A6CE5",
"<. c #1266E9",
"1. c #156AEB",
"2. c #1A6DEB",
"3. c #0171EC",
"4. c #007DED",
"5. c #1C72E5",
"6. c #1571ED",
"7. c #1D72EB",
"8. c #1975EA",
"9. c #0465F1",
"0. c #0D65F2",
"q. c #0A6AF3",
"w. c #156BF3",
"e. c #196DF2",
"r. c #156AF8",
"t. c #0074F2",
"y. c #007CF3",
"u. c #007DF9",
"i. c #1D73F2",
"p. c #1A78F4",
"a. c #206FE7",
"s. c #2274E6",
"d. c #2777E6",
"f. c #2A7BE6",
"g. c #2375EC",
"h. c #2A76EB",
"j. c #257AEC",
"k. c #2B7CEC",
"l. c #357CE5",
"z. c #327EEC",
"x. c #3A7BE9",
"c. c #2376F2",
"v. c #257AF2",
"b. c #2B7DF2",
"n. c #267AF8",
"m. c #317EF3",
"M. c #447ADF",
"N. c #457CE7",
"B. c #0185F5",
"V. c #028BF4",
"C. c #0C8FF5",
"Z. c #0083F8",
"A. c #008AFA",
"S. c #1A87F5",
"D. c #168CF3",
"F. c #2D81E7",
"G. c #2E82ED",
"H. c #3681E6",
"J. c #3383ED",
"K. c #3985ED",
"L. c #3689ED",
"P. c #3C8BEE",
"I. c #3F91EE",
"U. c #2486F5",
"Y. c #2D81F2",
"T. c #2B8BF4",
"R. c #3384F2",
"E. c #3986F3",
"W. c #3589F2",
"Q. c #3C8AF3",
"!. c #3D8AF5",
"~. c #3989F8",
"^. c #2693F7",
"/. c #3794F7",
"(. c #7086D2",
"). c #7997DA",
"_. c #4487EC",
"`. c #428DED",
"'. c #4A8BEB",
"]. c #588AE9",
"[. c #4491EE",
"{. c #4B94EE",
"}. c #5394ED",
"|. c #569BEF",
" X c #428EF2",
".X c #478DF4",
"XX c #4592F2",
"oX c #4B94F3",
"OX c #4D99F3",
"+X c #459CF8",
"@X c #5295F2",
"#X c #539AF3",
"$X c #579AF5",
"%X c #5A9EF3",
"&X c #6493E3",
"*X c #4FA2FA",
"=X c #5DA1F4",
"-X c #5FA2F8",
";X c #6CA4EC",
":X c #7AA1E1",
">X c #62A3F4",
",X c #6CA8F3",
"<X c #72ADF4",
"1X c #78B1F5",
"2X c #B59B9B",
"3X c #B7A39D",
"4X c #9E9EBA",
"5X c #AA9AAA",
"6X c #A298B3",
"7X c #B2ADB1",
"8X c #C3A387",
"9X c #CEB68B",
"0X c #CBB58D",
"qX c #CBB692",
"wX c #C9B694",
"eX c #C5BEB0",
"rX c #DDCE96",
"tX c #EAD687",
"yX c #D6CCA4",
"uX c #C8C5B4",
"iX c #8D95C6",
"pX c #9496C0",
"aX c #8592D0",
"sX c #8EACDA",
"dX c #93AAD4",
"fX c #ACB5C8",
"gX c #84B9F7",
"hX c #B8C3C7",
/* pixels */
"/ / / ) _ O.' =.<.e.c.2.1.c.i.8.8.7.c.c.j.Y.b.j.R.W.I.W.L. XL.W.W.XXoX X/. X#XoXXX~.Q.OX@X#X.X.X X!..XoX Xb.m.m.r.0.%.%.",
"/ / _ o.' O.O.=.=.<.i.e.a.v.v.c.g.b.7.v.b.c.8.j.Y.Y.W.L.L./.L.R.b.z.XX XL.d.k.Q.P.XXXXoX.X.XXX.X.XXXXX X X~.m.N.c.e.r.0.",
"_ ' @.@.;.=.&.*.&.1.1.2.c.n.c.7.b.Y.b.n.i.w.7.f.W.W.Y.G.K.E.E.Q.k.R.oXK.J.J.k.L.Q.W.~. X XXX XQ. X!.!.!._.~..Xm.n.n.e.0.",
"@.@.=.<.=.9.@.=.<.1.2.2.i.Y.g.2.j.b.c.n.v.7.j.G.J.XXW.Y.W.W.W.E.W. XL.P.W.P.`.Q.Q.!.Q..X X@X X X#X XQ.!.~.~.~.~.n.i.r.%.",
"@.#.1.=.O.=.O.&.=.;.e.8.j.j.7.v.Y.R.8.c.Y.Y.R.Y.L.XXI.G.Y.b.E.!. XOXOXXX`.+XOX#X Xm.R.Q.oX$X#X%XXX XR.Y.b.Y.R.R.p.e.=.O.",
"@.@.#.O.' &.' &.;.1.e.7.8.i.i.Y.R.W.Y.j.b.R.XXXXXXOX/.G.R.R.Q.Q.Q.oXoX#X[.I.#X=XXXz.k.R. X X@XoXoXoXW.k.b.R. Xn.i.p.6.&.",
"@.@.O.O.] ' o.>.1.1.i.8.8.G.Y.R.R.~.~.R.G.Y.Q.XXXX+XI.Q.Y.R. XW.W.{.[.#X[.#X=X=X#XP.k.XX{.@X#X'.>XoXL.!.n.b. Xb.7.n.7.] ",
"o.@.=.O.] ' | 1.1.1.7.c.j.G.W.W.W.W.L.R.Y.L. X[.#X[.Q.Q.j.k.k. XK.`.#X=X#X{.OX=X%Xz.z.`.{.J.XX%X#XXXXXW.K.n.c.b.b.i.i.2.",
"+.#.=.+.' ' &.>.i.7.7.v.j.Y.Y.v.v.R.Y.W.Q.P.J.I.[.OXQ.[.P.s.J.XXJ.L.{.%X#X[.Q.#X[.P.[.[.[.[.OXXX`.[.P.P.J.k.j.j.i.1.;.2.",
"#.<.=.O.&.O.>.6.i.8.g.j.Y.v.p.v.W.Q.W.[.[.G.L.OXOXOXXX[.L.J.oXK.Q.#X{.*X{.[.XX[.L.P.P.OX%X[.L.H.P.L.XXG.J.g.7.J.j.g.,.=.",
"0.<.0.O.&.&.&.1.7.i.c.k.G.Y.W.Y.W.R.W.I.G.L.I.OXOX*XOXI.P.[.[.J.[.,X,X[.L.f.P.[.{.'.L.`.`.L.L.P.[.P.XXJ.f.j.Y.G.G.7.1.&.",
"=.0.w.1.&.&.>.7.i.7.k.G.j.b.!.Q.!.+XQ.Q.Q.F.P.I.OX=XOX[.{.{.{.`.{.,X,XOXH.H.K.H.oXoXQ.K.j.`.XXL.[.[.~.L.F.J.K.L.G.g.w.O.",
"0.w.e.q.<.1.;.7.j.j.b.Y.Y.Q.Q.W.XXOX+XXXQ.L.{.{.{.=X{.I.I./.V.V.V.^./.*XB.4.K.G.P.`.P.P.{.#X[.}.P.P.`.oX{.XXP.f.W.g.<.<.",
"1.1.q.r.<.8.5.g.b.b.Y.R./.XX XL.P.OX#XXX`.`.I./.C.C.^.{.;X).sX7XfXeXuXuXyXdXy.{.`.J.P.K.#X|.@X`.XX#XXXP.=X#Xs.k.R.s.<.<.",
"w.w.r.p.6.,.8.v.v.n.Y.G.F.L.I.J.J.}.'.U.u.A.+X:XfXuXyXtX! E T T Y Y M Y M W :XT.{.XXK.`.=X>X@X[.oX$XoX`.J.P.L.j.2.2.&.;.",
"r.0.=.1.7.6.7.g.7.i.b.k.f.Q.Q.L.l.U.B.L.sXuXtX~ Y Y Y T R E E E W W W W W T tX{.L.XXP.{.%X{.[.[.#X#X[.{.K.G.H.5.z.k.7.,.",
"r.&.=.>.8.5.8.5.g.j.k.W.L.{.`.S.4.&X7XtXR M T U U W U W W ~ W E U R U U U W M yXD.#XXXXX=X#X=X[.OX$XoX[.`.oXXXR.~.E.h.>.",
"w.} &.-.5.5.5.8.Y.R.Y.K.{.T.u.&XeXQ Y T W W W U U U U U I S I I U W W U U U W Y 7X/.{.XX#X=X,X[.%X%X#XXXXX$X>XoXQ.Q.g.;.",
"6.>. .>. .5. . .Y.W.Q.R.Z.&XeXW Y R ~ ~ U U U E W U W b g l b A G U U U U U W T tXV.{.#XOX>X1X%X#X1X>XoXP.XXXXoXR.g.8.2.",
",. .>.>. . .5.j.W.Q.^.W.fXQ M U ~ E E E U U U U U U E Z 6 d l n D G U U U U W ~ ! dX^.{.=X<X1X<X>X1X%XoX`.L.K. XW.R.k.c.",
",.d.5.;. .5.8.j.R.U.:XtXY E ~ W ~ ~ E E ~ E U U U U U U D n b A D I U E U U U U R R yX=X=X<XgX;X-X,XXXXX{.P.P.k.b.R.R.n.",
">.>. .} ;.>.8.5.K.A.qXs Z D I I I Z n A I E E U U U U U E E E E U U U U U U U U ~ ~ m uX*X1X1X=X%X%XOXXXP.P.J.8.b.v.z.j.",
"]  .| ]  .8.8.8.x.V.qXa j d g l k f g g A U U ~ ~ W ~ U U U U U U U U U U U E U ~ W W Y hX*X,XOX#X=XXXL.L.J.g.b.k.J.R.8.",
") | ..| ;.,.7.g.k.y.qXa i e 7 t k f h v D G b n D I I U W ~ E U U E U U U U U U U U E U R sX*X=X`.XXJ.J.H.f.j.Y.R.E.m.g.",
") } } )  .>.6.7.h.t.qX> y 5 w e 6 S L l G b g 6 g h l v b D I U U E E U U W U U E E U W R ! ;X+XoXQ.XXP.f.f.G.b.c.m.b.b.",
") ) ] | .. .6.1.h.t.qXp y 4 2 w 5 z b v v t 5 5 e e 7 6 6 d h k v b D G I U U U D I U U W Y rX/.#X#X{.P.j.J.k.G.R.b.v.v.",
") [ | ..&.>.>.6.z.t.qXp y 4 4 2 4 4 7 t 5 4 4 4 4 4 w 5 e e 5 7 6 6 6 f k l A D P v G E U W Y uX^.=X[.P.K.k.j.W.Q.R.c.1.",
"] ] } } >.1.,.1.h.y.qX> y 4 4 w 4 4 4 4 4 4 4 5 4 4 4 4 4 5 e 4 4 w e e 7 7 6 c L v b b A S I Y dXu.P.H.Q.F.k.E.Q.b.i.c.",
"' ' ] &.6.7.5.5.K.y.0Xp y 4 w 2 4 4 w 4 2 6 3 2 2 4 4 2 4 $ % 4 4 4 w 4 4 4 4 4 : 7 7 6 g g z a 9Xy.Q.W.j.j.f.k.k.g.c.i.",
"] } | >.g.7.j.Q. XB.0Xp y 4 4 4 4 4 2 4 2 2 5 4 4 4 4 4 4 2 + 3 5 2 4 w e e 4 4 w 4 4 w t t t p J }.W.K.P.J.j.k.k.j.c.c.",
"` ] | 7.b.g.k.k.x.Z.qXp y w 2 w 4 w r 4 4 4 4 4 4 2 4 4 w t t w 2 w e 3 < 0 u e 4 4 4 4 7 7 t p J }.j.P.L.G.G.k.b.b.c.v.",
"' ' | j.g.j.Y.d.z.u.wXp y 4 4 % o O 1 e 4 4 4 4 4 2 4 4 2 4 w 2 4 w O X X X # e e 4 4 4 5 e t p H _.U.K.f.F.j.j.b.k.g.2.",
"` { >.s.j.K.J.5.H.y.wX> y 4 4 $ o o X % w 2 4 4 2 2 4 2 4 4 4 4 4 3 X O o X X X 5 4 2 w w e t p H '.W.L.L.W.k.k.k.k.k.s.",
"+.] ;.d.k.J.J.j.l.3.wXp y 4 w 4 w 1 . # 5 4 4 4 4 4 2 4 4 4 4 4 w 4 # @ + # O X % e 2 w 4 4 u p J }.G.XXQ.F.j.b.g.i.g.n.",
"&.1.d.8.g.b.Y.5.l.3.7Xa y 4 4 j x r 2 e 4 4 4 2 2 4 5 2 4 2 4 4 5 u * 0 w $ $ $ % 5 2 4 w 4 t p J @XY.J.Y.j.7.k.c.v.v.7.",
"_ 8.s.2.v.W.Y.8.H.3.5Xa y 4 4 w u j j 4 4 2 2 4 4 , , 7 4 4 4 4 4 z y Z x . ; . 4 5 4 4 4 7 r p K @XQ.j.Y.W.b.b.c.b.n.1.",
"' } 5.Y.R.~.c.5.l.3.7Xp u 4 4 4 4 4 4 4 2 2 2 4 ; X X $ 4 4 2 4 4 e z z w < < 5 r 4 4 4 4 4 u p K @XE.J.!.Q.!.~.v.g.b.c.",
"] } 8.j.Y.b.7.5.d.*.4Xp y 5 4 4 4 4 < 4 < 2 2 4 ; # o X % 4 2 2 4 4 w j z z u r 4 4 2 4 e 7 r p K }.R.`.oX.X.XXXb.n.b.n.",
"+.;.;.7.Y.b.j.>.l.*.iXp t 2 4 4 2 < 2 < < 2 2 5 ; $ $ o X , 4 2 2 4 4 4 w r w 4 4 2 4 4 4 4 t p H '.R.XXoXXX!.XXb.v.b.R.",
"] ;.>.p.R.b.i.,.H.-.iXp i y w 2 2 < < 0 0 < < w 4 ; 2 $ o # 2 < 2 2 2 4 4 2 2 4 2 4 4 4 e 7 u p H _.XXL.!.Q.E.m.c.b.m.m.",
"' &.1.v.b.5.>.5.H.3.(.a > > : 2 q q q * * 3 1 < e 7 6 ; . , < < 2 < < < 2 2 2 2 2 4 4 4 4 4 u p H '.k.Q.L.k.Y.k.n.h.g.n.",
"+.+.7.U.n. .8.5.f.6.M.4X3XC N : - - @ V V @ ; 8 9 4 2 < < , , , < < < < < < 2 2 4 2 4 w 7 7 t p H '.j.K.K.W.k.G.R.c.s.n.",
"+.;.8.v.b.,.5.s.s.k.,.*.t.3.M.(.pX3X3XG.V.).* = * ; 8 8 8 1 , , , ; < < < < 2 2 2 4 4 $ , e u p K N.k.P.K. XJ.R.R.R.g.c.",
";.;.&.5.j.5.s.5.L.f.5.f.l.k.3.-.u.A./. X'.Q.6XC B & * * * & * 8 8 8 8 2 < ; , 2 2 4 , .   < j p K .XU.J.b.R.k.2.2.2.2.e.",
"$.+.;.>.| ,.,.s.j.5.5.7.k.g.,.d.l.oX$X.XXX.X/./.'.).aX5X8XB 8 * * = * * , 9 9 q 1 w u u , 5 u a H }.m.k.J.x.1.1.2.2.1.i.",
"o.{ ] ] | | &.5.F.j.;.,.7.g.d.s.5.`.#X X`.XXXXXXR.U.^.A.S. X&XaX6X2XC N = - - - - 2 i i i u u p K _.k.Q.K.k.e.c.g.<.2.g.",
"_ +.) ( {  .>.;.g.i.>.,.F.f.7.7.j.W.oXoX{. XW. XK.J.Q.oX_.W.U.Z.y.u.8.].).pX2X8XN = : : > p t a H x.j.L.J.7.1.c.a.1.:.2.",
"o.&.+.] | ] >.,.1.c.2.,.k.k.j.d.f.Q.OXXXP.R.!.L.k. X XXXXXE.m.x._.h.b.c.u.Z.B.D.oX).pX5XC B u a 9XS.K.R.J.g.g.m.c.h.a.$.",
"@.#.] { { &.;.;.2.i.;.;.s.g.2.k.J.Q.oXXX X~.Y.G.J.Q.oXQ.#XQ.j.k.b.c.b.E.x.XX.Xm.XXU.Z.t.y.x.].aXM.m.E.z.K.J.8.R.m.g.i.2.",
"=.=.| ] ` ] &.;.,.7.,.>.,.s.8.j.R.Q.!.!..X XR.j.G.P.XX X$X/.J.m.m.c.k.W.W.~.R.k.XX XXXE.E.7.9.9.1.h.Q.E.b.g.7.k.m.c.2.;.",
"O.0.&.( ] ' &.] ....;.,.s.,.j.c.J.K.Q.Q.~.Q.R.R.~.XXXXoX$X$XW.R.E.k.E.!.J.E.!.E.W. XXXE.XXm.2.x.k.k. X X Xb.b.g.g.c.i.1.",
"_ *.O.( ( ` ;.>...>.;.;.2.s.7.b.s.j.R.b.R.R.W.R.W.Q.OXoX$XoX XE.m.g.J.'.P.J. XQ.!.XX@XQ. XXXm.m.E.g.J.z.R.h.s.7.;.$.2.1.",
"o._ _ ] ] ] 1.:.| ,.:.,.5.8.7.Y.s.k.b.c.b.R.R.R.j.P.oX#X=X.XK.b.E.b.F.[.`.K.k.k. X%XXXK.E.m. X X.XE.f.;.h.,.;.;.{ { ;.1.",
"o.+.` ` ] ] ;.| ]  .;.>.:.7.i.n.c.k.c.c.b.b.k.R.R.W.XX%X$XoXg.g. XQ.K.J.H.f.g.,.Q.oX X.XE.c.m. XR.E.b.c.b.c.2.1.;.$.<.w.",
"o.O.+.+.( +.O.$.{ ] ` ;.5.,.w.i.i.<.1.2.R.c.c.b.b.R.XX%XXXR.K.R.K. X.X`.#XP.k.f.R. X@XoXm.m.~..Xx.,.g.g.2.n.2.<.{ ] <.<.",
"@.%.o.[ o.+.+.+.+.+.+.g.h.>.<.e.w.w.e.h.b.7.c.v.c.R.!.$XoXK.J.J.g.E. XL.[.L.h.k.m.E.$X.X.XE.b.m.v.&.2.<.;.<.:.<.$.[ ` $.",
"o.@.` { o.$.#.o.] O.,.:.1.2.;.e.w.1.n.E.n.c.b.b.b. X~.E. XJ. Xb.h.h.f.f.R.J.h.g.k. XoXXXz.h.n.h.g.&.;.=.<.] { [ [ ( ( $.",
"^ ` $._ o.@.$.#.$.O.1.;.<.;.<.1.g.1.c.~.m.m.m.m.m.~.m.c.R.m.K.G.J.f.s.k.E.J.k.h.K.R.x.b.c.m.m.z.2.;.] ;.<.;.$.[ ` [ ( +.",
"/ / / o.@.+.o.$.+.&.2.1.;.>.=.a.h.n.i.b.b.m.m.h.R.b.b.b.E.g.k.k.k.Y.g.R.E.k.h.f.k.m.R.m.c.b.!.R.a.1.<.] $.+.` ) +.^ ^ ( ",
"/ / o.%.%.@.$.$.+.O.&.;.] +.<.g.n.h.a.i.n.n.m.m.n.W.b.b.R.h.g.g.b.x.P.R.z.R.f.R.s.R.~.R.m.b.c.c.2.g.v.;.$.<.$.$.^ ^ / _ "
};
