/* XPM */
static char *xpm_[] = {
/* columns rows colors chars-per-pixel */
"60 60 245 2 ",
"   c #272F37",
".  c #0B2364",
"X  c #39434D",
"o  c #354F76",
"O  c #4C5254",
"+  c #5E625C",
"@  c #686A54",
"#  c #4A5766",
"$  c #4F5D6F",
"%  c #5C6368",
"&  c #596578",
"*  c #676B68",
"=  c #6E726D",
"-  c #74766A",
";  c #636B74",
":  c #686E77",
">  c #687179",
",  c #6D757C",
"<  c #747977",
"1  c #74797E",
"2  c #917B7A",
"3  c #888976",
"4  c #A58F71",
"5  c #00298D",
"6  c #003CAB",
"7  c #095197",
"8  c #2C5696",
"9  c #3A6299",
"0  c #0355AC",
"q  c #0E55B2",
"w  c #2D5DB6",
"e  c #0E66BA",
"r  c #2862AB",
"t  c #3B67A4",
"y  c #2F68B5",
"u  c #366BB4",
"i  c #495E87",
"p  c #576988",
"a  c #536C8F",
"s  c #496798",
"d  c #696A83",
"f  c #687586",
"g  c #737B83",
"h  c #777E86",
"j  c #667995",
"k  c #466AA7",
"l  c #4C71AF",
"z  c #4A76B7",
"x  c #667BB1",
"c  c #003CC3",
"v  c #0047C2",
"b  c #005AC4",
"n  c #0059CC",
"m  c #0759D7",
"M  c #0555DB",
"N  c #0956DB",
"B  c #0B5BDC",
"V  c #125DDC",
"C  c #0066C7",
"Z  c #1768C6",
"A  c #0265D9",
"S  c #0E62DC",
"D  c #016CD9",
"F  c #1264DE",
"G  c #1967DA",
"H  c #0074D8",
"J  c #1E72D4",
"K  c #236AC5",
"L  c #2E6DCE",
"P  c #2774C8",
"I  c #3675C6",
"U  c #2877D8",
"Y  c #3579D3",
"T  c #0558E4",
"R  c #045BE4",
"E  c #0A5DE3",
"W  c #065CEA",
"Q  c #115FE0",
"!  c #0366E7",
"~  c #0D62E3",
"^  c #006DE4",
"/  c #0C63EB",
"(  c #016DEB",
")  c #1265E3",
"_  c #1864E1",
"`  c #156AE4",
"'  c #1B6CE4",
"]  c #1266EA",
"[  c #156BEB",
"{  c #1A6DEA",
"}  c #0477E9",
"|  c #1D71E5",
" . c #1877E7",
".. c #1D72EB",
"X. c #0D67F1",
"o. c #046CF1",
"O. c #146BF2",
"+. c #196DF2",
"@. c #176DF8",
"#. c #0976F4",
"$. c #1D73F2",
"%. c #157AF4",
"&. c #256DE7",
"*. c #2373E5",
"=. c #2A77E5",
"-. c #2379E6",
";. c #2275EC",
":. c #2579EC",
">. c #2B7CEC",
",. c #307CE8",
"<. c #327CEB",
"1. c #2275F1",
"2. c #257AF3",
"3. c #2B7DF2",
"4. c #2978F5",
"5. c #317DF4",
"6. c #317EF8",
"7. c #4776C8",
"8. c #597ECD",
"9. c #7C8284",
"0. c #76818C",
"q. c #7B838B",
"w. c #7C8792",
"e. c #5C84B8",
"r. c #6F86AF",
"t. c #788ABA",
"y. c #7E92BA",
"u. c #3380CE",
"i. c #3884DA",
"p. c #0283E9",
"a. c #1885ED",
"s. c #2B84E6",
"d. c #2D82ED",
"f. c #3286E7",
"g. c #3384ED",
"h. c #3A86ED",
"j. c #3689ED",
"k. c #3C8BED",
"l. c #3693EA",
"z. c #2685F7",
"x. c #2D82F3",
"c. c #3384F2",
"v. c #3A86F2",
"b. c #3689F2",
"n. c #3C8BF3",
"m. c #3587FB",
"M. c #3C8BFA",
"N. c #3D91F5",
"B. c #3A92F9",
"V. c #5488CD",
"C. c #488BDB",
"Z. c #6686C5",
"A. c #7590CA",
"S. c #458CE6",
"D. c #428DED",
"F. c #4591EE",
"G. c #4B94EE",
"H. c #4F99EF",
"J. c #549AEE",
"K. c #428EF3",
"L. c #428CF8",
"P. c #4592F2",
"I. c #4B95F2",
"U. c #4E99F3",
"Y. c #4392F9",
"T. c #4A97FC",
"R. c #4C99FA",
"E. c #5096F2",
"W. c #539BF3",
"Q. c #599EF3",
"!. c #529BFA",
"~. c #5DA1F4",
"^. c #56A3FF",
"/. c #5BA2FB",
"(. c #62A4F4",
"). c #6CAAF5",
"_. c #66A8F9",
"`. c #72ADF5",
"'. c #828584",
"]. c #81858B",
"[. c #858B8B",
"{. c #898D8A",
"}. c #8E938B",
"|. c #848C95",
" X c #888F95",
".X c #868F98",
"XX c #8C9294",
"oX c #879099",
"OX c #8A939C",
"+X c #939799",
"@X c #939A9E",
"#X c #AE8F87",
"$X c #B0AF91",
"%X c #8C96A1",
"&X c #8F98A2",
"*X c #929AA3",
"=X c #979EA4",
"-X c #8D92B0",
";X c #9CA2A4",
":X c #98A4B9",
">X c #A4A8AA",
",X c #B1B1AC",
"<X c #A6ABB4",
"1X c #ADB2B7",
"2X c #B5B8B9",
"3X c #C5958C",
"4X c #D5998A",
"5X c #E9A791",
"6X c #F5AE9C",
"7X c #FAB09E",
"8X c #F2ADA1",
"9X c #FEB4A3",
"0X c #FEB6A8",
"qX c #F9F099",
"wX c #C6C6BD",
"eX c #849CC8",
"rX c #99A6C7",
"tX c #B9BDC3",
"yX c #A9B5D2",
"uX c #82B7F6",
"iX c #BEC2C6",
"pX c #B1C2E6",
"aX c #C3C4C4",
"sX c #CACAC1",
"dX c #C4C6CA",
"fX c #C6C9CD",
"gX c #CACBCD",
"hX c #CFD1CC",
"jX c #D1D2CC",
"kX c #CBCCD1",
"lX c #CED1D4",
"zX c #D3D5D5",
"xX c #D6D8D9",
"cX c #DBDCDE",
"vX c #E4E3DD",
"bX c #DCDEE0",
"nX c #DEE1E3",
"mX c #E2E4E4",
"MX c #E9E9E5",
"NX c #EBECEB",
"BX c #F2F2ED",
"VX c #FAFAEE",
"CX c #F5F5F5",
"ZX c #FAF9F4",
"AX c #FEFEFE",
/* pixels */
"W W ] W E / R ~ ~ ) ] ..:...2.2.c.b.;.;.2.c.c.b.P.U.N.s.d.3.c.v.K.W.G.I.P.P.R.W.n.3.c.M.I.E.E.E.D.D.5.d.c.x.c.x.$.O.[ ! ",
"W W / E B R M ~ ~ [ +.....;.$.>.b.x.-.2.3.b.P.P.Y.U.k.d.c.c.n.n.Y.I.I.E.F.F.U.~.I.c.3.x.n.K.E.E.P.I.b.2.>.c.n.;.[ 1.[ ) ",
"W W E T M B R ` { [ +...-.2.d.g.x.n.b.g.:.c.B.N.I.P.l.b.3.c.D.n.n.I.G.W.F.G.~.~.E.D.>.P.E.W.W.D.Q.I.h.v.2.c.L.3.$.$.{ E ",
"T W / T E B B { [ [ $.;.z.d.z.j.b.N.M.x.z.} V.e.F.F.b.k.-.c.>.n.c.D.U.~.H.W.~.~.Q.,.:.P.G.v.I.W.J.P.k.h.g.2.2.3.2.$.+.' ",
"M W / T M B ) ~ +.[ ;.2.4.m.m.c.x.K P I k j }.e.R.R.B.R.k.=.>.P.f.f.I.~.J.P.K.Q.E.g.n.I.S.g.G.G.S.D.M.k.b.3.$.2.2.[ [ { ",
"R X.E E ~ E ) [ $.....:.>.L e q Z u O 1 ;X;Xw.a.i.P u.s.b.#.n.K.g.P.I.W.I.P.F.U.h.f.S.G.I.I.k.f.j.k.k.d.g.>.;.:.2.{ ` ] ",
"/ O./ E ~ B ) [ ..;...;.,.*.U L i * g % OXXX8 s : 1 1 f k V.V.b.P.(.W.U.D.k.k.k.k.D.D.F.Q.P.k.j.f.k.I.x.d.;.;.g.:...[ ] ",
"/ X.X.E ! S ~ [ [ ;.:.d.x.d.Z 7 & : 1 9.1 , g OXw.0.w.9.#X#Xz b.I.`.).P.k.d.k.F.I.I.h.h.k.k.h.k.H.k.j.j.g.>.>.>.g.{ $.E ",
"/ X.+.] ! ~ ` +.2...d.b.} 0 a f : ]..X|.f |.%Xf 3 4X5X8X6Xx l.S.D.(.(.J.d.d.h.g.I.I.h.h.>.K.F.g.k.D.G.j.f.v.g.k.g...[ E ",
"X.O.O.O.) [ ) ..$.;.x.^ i {.;XOXh h %X|.%XOX: 3X0X0X7X9X3Xp.H.k.H.W.Q.(.k.k.g.>.k.I.k.D.F.W.G.E.h.k.D.F.F.P.K.,.x.;.[ [ ",
"W O.X.O.[ [ ' ;.>.c.%.a 3 ; > =Xh ].OXOXOX'.5X0X9X6X8X7X*Xp.S.F.k.W.~.(.I.v.h.K.K.,.h.f.J.J.I.I.D.I.P.D.~.W.-.-.>.;./ ] ",
"+.O.O.$.[ ` ' ;.3.%.7.{..   ; w.h OX.XOXw.#X4X6X7X7X9X5Xx a.D.~.Q.Q.(.W.!.E.P.K.K.S.h.h.Q.Q.Q.k.D.U.I.g.K.F.>.:.>.;.~ E ",
"@.@.[ O.%.` ;.:.$.( w.X 4 }.*Xw.h .XOX.X|.w.9.9X7X8X0X4XP U.h.I.W.Q.).W.Q./.W.F.f.k.g.Q.(.J.S.D.E.W.I.I.v.g.g.*.1.>.] ' ",
"@./ ! ]  .[ { ;.( t.+ 4 qXq.OXw..XOX.X.X.X.Xg 4X9X6X0X4 l.J.k.W.G.F.U./.(.I.W.P.h.D.k.J.Q.J.F.D.U.Q.I.U.k.g.g.;.h.c.;.' ",
"@.E / ] Z J { ! [ p * qX$X0.OXOXOXOXOX.X.Xw.#X8X6X0X5Xs /.~.I.I.Q.H.S.J.).J.W.F.R.W.F.k.J.Q./.F.E.Q.I.K.D.E.U.v.v.v.>.[ ",
"+.E ~ ) | Z w rXV.6 O $X3 oXOXoX|.|.OX.XOXh 4 3X3X5Xd l.~.~.I.F.W.~.F.W.F.F.W.G.G.G.k.k.J.Q.).I.Q.Q.T.H.P.W._.I.g.v...~ ",
"%.F S S m L 7 @ fXlXO f |.|.|.OXOX.XoXoXoX.Xw.f 2 z a.W.H.~.U.l.l.~.H.G.F.l.k.~.J.G.F.I.J.(.).W.E.uX(.K.n.U.I.E.v.1.....",
"..F S ` U  .K iXAXgXg XXq.0.9.0.w..XoXoXoXoXOX%X- z !.J.Q.U.P.U.H.J.H.H.J.~.U.~.~.W.G.J.J.).uX`.Q.`.(.U.K.k.m.K.c.3.:.{ ",
"` U ` S ' *.n nXAXcX# g ].oXOX|.|..XoXoXoXOXq.i e.j l.^.~.U.P.W.~.~.H.H.~.~.~.H.W.J.I.H.(.).uX`.(.`.D.K.H.k.k.c.x.b.m.3.",
"_ ;.| S ' ( 8.iXAXAXgXh < 0.q.OX.XoXoX.XOXOX, X u Q.R.k.G.W.U.Q.~.~.~.J.~.~.(.W.I.~.(.~.(.`.uX).W._.D.H.U.k.g.:.3.x.c.3.",
"_ B F ) U R A.ZXAXZXAXZXCXCXcX;X].OXoX.XOX: % g & $ Y R.U.P.U.U.G.J.(.~.~.~.(._.~.~.~.~.).`.).~.J./.N.p.p.N.,.;.c.3.>.:.",
"B G S m F ;.A x >XCXAXAXAXAXmXq.|.OXoXoX X, %X%X@XXX= t l.R.T.H.G.J.~.~.Q.J.(.(._.~.P.J.).(.).W.K.Y r.rXA.H ( m.3.b.c.| ",
"m F G m ) ` ..o.b *XjXvXMXvX3 9..XoXoXoX|.|.OXoX.XOX&X[.f V.C.G.P.~.~.~.~.J.~.U.H.W.U.~.J.~.(.R.z jXZXAXAXmXZ.%.v.c.>.;.",
"m F F m ' ` [ ;.2.W 0 0 z u K s : w.|.oX.XoX.XoXoX.XoX%X@X{.1 p i._.(._.~.~.~.G.W.H.J.~.~.~.~.z vXAXAXCXiXyX-X^ 5.3.>.3.",
"V m m V G ) [ [ | 5.6.m.N.T.P f OX|.|.OXoXOXOXOXoXoXoXoXOX%X&X+X, V.`.~.~.~.G.U.H.H.~.Q.~._.C.< >XNXBXy.n ^ } =.3.c.3.3.",
"m m F G F ) ` [ ..;.;.b.R.i.= &XOXOX|.oXOX].0.].OXoXOXOXoXoXoX%X@X& H._.(.~.Q.H.H.H.~.~.).~.a @Xg @X:X} v.v.>.v.M.5.2.{ ",
"N V V V ~ ` ` %.>.>.>.M.j.p +XOX|.OXh q.|.oXiX|.0.w., w.w.oXoXOXXXs S.~.~.~.~.H.U.U.S.Q._.u 9.&XOX'.I Y.k.d.:.v.c.3.$.1.",
"V m m F [ [ ` ! ;.d.m.#.i XXOXoXoXOX0.2XOXh fXdXg q.q.+ 0.%XoX%X}.V.^.J.~.J.~.l.U.F.k._.C.% *XoX@Xj  .b.d.>.g.c.c.3.1.$.",
"m N B ) ....| ..f.c.D & .X%XoXoX%X@X< >XfX;XdXgXtX> oX9.q.OXoX@Xq.9 R.R.^.~.H.j.k.k.F.W.o w.OX%XXXu n.h.>.>.:.g.>.;.;.2.",
"E F ` | ;.| -.n.k.a.> @X&XoXoX@X[.p e s dXkXdXaXgXtX9.; oXOXoX%X% g j y i.!.R.N.j.N.j.7 < *X.X&X1 Y Y.n.D.>.:.g.3.x.1.2.",
"N V B ..:.;.d.c.j.u q.*XoXOX&X9.u %.m.D XXkXaXfXaXgX;X; &X|.&Xg O *X+X'.> 9 y l.B.s.. > *XOXOXOXs j.c.k.k.f.-.>.>.3.3.4.",
"B M ) :.:.:.>.:.z.r 9.*Xw.@X1 Z B.Y.j.m.r ,XkXdXkXtXq.oXoXOXq.O |.OXoX&X*X[.- o 7 X 9.*XOXOX*X- P M.>.g.>.d.:.:.:.3.1.{ ",
"E E F *.:.>.>.| 3.U ].&XOX{.t z.x.n.N.N.j.9 ,XiX1X+X; oX+Xh O , OXOXOX|.OX%X%XOX* X |.*XOX%XOXo k.g.k.d.d.g.:.>.;.d.c.` ",
"M ) S | >.g.g.-.s.Z 9.&X%X9.J d.b.M.N.Y.R.Y.r @XNXMX;X0.h h tX1X].g OXOX.X.X.X%X*X].  0.%X=X+ P Y.k.j.k.s.g.>.>...;.3.1.",
"R S ' >.d.f.c.:.=.D g @X@Xg  .m.a.Z g.s.e A y.ZXAXAXAXxX|.fXfXgXfX;X, 0.OX.X.X.X|.*X].O OX- q n.K.D.j.k.g.:.| >.1.1...;.",
"! [ *.{ ..x.x.;.=.%.k }.oXq.z A A.vXZ.eXgXiXZXAXAXAXAXCXtXfXdXdXdXgXdX[.g %X.XOXoX|.&X0.O t I.I.P.P.c.>.>.>.;.>.1.2.3.` ",
"B { | [ :.b.3.| s.z.y 9.; bXCXhXAXAXx rXAXAXmXCXAXAXAXAX1XdXdXdXdXdXfXkXXXg %X.XoXoXOXOXO f._.I.K.I.L.:.g.c.5.4...2.1.[ ",
"m F ` z.c.c.1.G <.! rXvXcXCXAXAXMX<X .C.1X:X*XAXAXAXAXCX>XdXdXdXdXdXaXdXfXq.].OXoXoXoXOX[.t I.T.c.I.h.>.k.v.v.c.;.2.3.2.",
"B B ` :.m.x...*.^ k BXAXAXAXAXtX0 } Y.N.} D tXAXAXAXAXBX@XkXdXdXdXdXdXdXgX2Xg OX|.OXoXoXOX[.9 k.n.P.k.n.K.n.K.P.4.2.3.;.",
"V ) ) ..x.2.:.<.v gXAXZXAXAXxXn B.L.b.n.T.H zXCXCXCXAXNX>XaXfXdXdXdXdXfXdXdX|.|.oXoX.XOXoX%X[.i | L.h.K.T.I.M.U.3.4.3.5.",
"E ` ` $.c.5.;.R t.ZXAXAXAXZXZ.#.F.P.R.K.Y.C MXCXxXCXCXAXlX1XgXfXdXdXdXdXdXfX%X|.OXoX.XOX.X.X%XXX$ J P.k.P.n.v.L.$.1.5.5.",
"E ` ` $.x.4.,.c zXNXBXCXAXlXD c.d.I.W.J.Y.Z MXAX1 dX1XbX1XdXfXiXdXdXdXdXdXgX+X].OXoXoXoX.XOX.X%XOX% Y N.j.c.g.>.2.>.5.3.",
"B ~ ` 2.4.{ ( w VXzXNXcXAXrXR =.z.K.W.W.Y.b gXAX X; 9.> 1 1XgXdXdXfXfXfXfXfX|.|.oXOXoX.XoXoX.X.X%X%X% U K.d.>.;.3.;.;.2.",
"E B $.2.2.=.! z AXgXmXhXAXy.! <.*.g.I.Y.i.$ +XAX>Xw.&XOXoX0.<XgXgXaXaXwXdX1X'.@X@XOX%XoX.X.X.XOX.XOX+Xp ..n.d.x.c.;.{ 1.",
"E ] { 4.2.| } y ZX1XdXzXAXA.^ =.-.f.R.d.f @Xq.XXq.oX|.OX@X[.% < h p j a j i a p f 9.{.XXOX.XOX.XOX.X*X].K L.g.c.c.c.$.1.",
"~ G [ ..;.| -.m 1Xx r.gXAXt.( =...L.P.z XX%XOXw.oXXXOX|.p l V.i.g.n.c.E.(.G.D.g.s.U 7.x |..XOX.X.XOX%X- Y Y.h.;.2.{ 1.+.",
") E S ` G *.F *.^ >.M :XAXx W =.| D.!.Z.9.OXoXOXoXoX|.& f.I.R.!.Y.!.I.!.`.(.W.R.P.c.K.x.a OX.X.X.X*X1 y } ! W +.] Q { $.",
"E M F ` F ` ~ :.g.&./ 7.sXz ( =.:.s.H e r {.*XOXoXoXOX].I M.K.L.g.5.2.g.W.Q.K.D.n.k.Y.K '.OX.XOX+X# w.pXy.>Xx &.;.{ { $.",
"M N N N m ' ) ' >..._ ^ n ;.*.*.} Z.aX2Xx . # j OXOXOX%X1 J Y.v.c.3.2.>.E.I.v.L.L.!.J & %XoXOX|.> [.1XjXCXmX$X5 ( ' ' ;.",
"M T N V V _ ) ) ....[ ' g.g.' >.^ =XfXMXMXtX2XXX> g q.w.g * C M.,.;.2.c.v.n.>.v.L.>.$ h h q.h XXmXAXCXAXmXbXNXaXq +.&.{ ",
"T W T B F B ) ) { 2.{ ` >.>.>.#.k 2XcXbXCXAXAXAXxX>X1X0.1XvX, ^ v.;.3.5.3.v.v.c.Y.u jX;Xg fX=XNXAXAXAXAXCXCXAXAX-XM 5.E ",
"W E B F V ~ ) ) { { [ _ ' | >.C gXAXAXMXmXCXAXAXAXAXAXCXAXAXwX0 M.2.6.v.3.n.L.M.p.%XAXCXCXAXCXAXAXAXAXZXnXgXiXAX-XR 4.[ ",
"/ / V V N ) ~ _ ' { ' S { ;.( I ZXZX>XkXmXCXAXAXAXAXAXAXAXAXvX0 m.3.3.c.n.v.c.5.j.j AXAXAXAXAXAXAXAXAXAXAXAXzXq.L 4.@.) ",
"W X.) m N B E ~ G *.' ' ;.| x.B mXaXgXAXAXAXAXAXAXAXAXAXAXAX>Xn m.5.,.g.k.g.c.g.Y.e 3 NXAXAXAXAXAXAXAXAXAXAXBX6 4.5.$./ ",
"M X.E m B N ) ~ G ' ) { *.' 3.%.7.h AXAXAXAXAXAXAXAXAXNXjX Xe c.<.1.n.S.k.c.D.v.>.!.C o @XwXxXvXMXxXzXMXBXMX@XA 4.{ $.[ ",
"E T N B m N _ F G ` ) ` ' *.[ x.o.q sXCXBXNXzXxXzX2X;Xr.r ! T.v.>.;.>.I.U.D.K.v.Y.I.!.v.b 0 7 8 k e b y s 8 v | V Q { { ",
"T N N N N E { _ B ' F ' ' ..$.x.4.2.b l z L ! D A D } E._.T.,.;.K.>.<.k.k.h.;.:.K.!.D.K.L.L.L.L.v.M.5.o.#.[ &._ ) ) ] { ",
"T N E T N V E B B ' ) _ | { ..2.$.:.4.#.z.4.5.m.c.L.R.~.W.K.;.;.K.K.g.g.F.d.:.' h.U.K.P.v.;.L.L.K.h.4.,.6.4.+.+.~ E ] +.",
"T T R N N E E E Q B E E | &.@.2.{ ] { 1.h.;.1.3.>.j.P.~.I.g.K.v.,.F.P.F.J.g.,.:.5.I.U.I.5.5.5.L.g.` 1.;.[ 4.1.[ Q N Q ] ",
"T W R N N T B E E E E G =.{ O.+.O.O.[ 2.,.{ 4.3.;.m.N.W.U.c.,.g.5.v.K.k.W.k.>.=.h.,.E.L.L.v.4.v.3.E ) ' E { ' ] ) V E ] "
};
