/* XPM */
static char *xpm_[] = {
/* columns rows colors chars-per-pixel */
"60 60 236 2 ",
"   c #180000",
".  c #685A3D",
"X  c #76644F",
"o  c #757778",
"O  c #6E6F6D",
"+  c #6E5D43",
"@  c #50312C",
"#  c #AE731C",
"$  c #986E32",
"%  c #B87D2A",
"&  c #B57E35",
"*  c #AA752E",
"=  c #82551C",
"-  c #C37E30",
";  c #882F4A",
":  c #987C56",
">  c #8F764F",
",  c #A37B47",
"<  c #877A71",
"1  c #B17F71",
"2  c #A64E67",
"3  c #C47D57",
"4  c #7E837C",
"5  c #BB812A",
"6  c #B98439",
"7  c #CD8A2C",
"8  c #C6842A",
"9  c #D18C2B",
"0  c #D08C27",
"q  c #CB8B33",
"w  c #C48B3C",
"e  c #CA8C3B",
"r  c #C58535",
"t  c #CE9037",
"y  c #C0821F",
"u  c #9B8258",
"i  c #A9844C",
"p  c #BC8C4B",
"a  c #B68746",
"s  c #AD8A5B",
"d  c #A88656",
"f  c #B58A55",
"g  c #B89159",
"h  c #8D816B",
"j  c #9A8569",
"k  c #8A8378",
"l  c #978979",
"z  c #A58866",
"x  c #AF956D",
"c  c #C38D43",
"v  c #C48A47",
"b  c #C88459",
"n  c #CB9A58",
"m  c #CB944B",
"M  c #DAA55B",
"N  c #D4966A",
"B  c #D4AB6D",
"V  c #E8B576",
"C  c #EDC57F",
"Z  c #366699",
"A  c #3870B7",
"S  c #517094",
"D  c #67788B",
"F  c #747C87",
"G  c #697D9C",
"H  c #717A96",
"J  c #577BA8",
"K  c #4679BA",
"L  c #557DB8",
"P  c #4772A8",
"I  c #647EA7",
"U  c #0957DA",
"Y  c #0C5BDC",
"T  c #0857D7",
"R  c #115EDC",
"E  c #0E62DD",
"W  c #1364DE",
"Q  c #176ADE",
"!  c #3977C6",
"~  c #387CD8",
"^  c #2C70CD",
"/  c #0A5DE3",
"(  c #065BE5",
")  c #115FE2",
"_  c #0D61E3",
"`  c #0D63EB",
"'  c #1365E3",
"]  c #156AE4",
"[  c #1A6DE4",
"{  c #1166EB",
"}  c #156BEA",
"|  c #1A6DEA",
" . c #1D71E5",
".. c #1D72EB",
"X. c #1770E8",
"o. c #146AF3",
"O. c #166AF3",
"+. c #1C71F3",
"@. c #0E66F0",
"#. c #2274E5",
"$. c #2579E5",
"%. c #2B7CE5",
"&. c #2275EB",
"*. c #257AEC",
"=. c #2B7CEC",
"-. c #2A76E5",
";. c #317FEC",
":. c #327EE3",
">. c #2275F1",
",. c #267AF2",
"<. c #2B7DF2",
"1. c #297EF8",
"2. c #317FF2",
"3. c #206FE6",
"4. c #467BC2",
"5. c #417FD2",
"6. c #807E8C",
"7. c #CE6C83",
"8. c #7B848B",
"9. c #76889B",
"0. c #6C839E",
"q. c #5983B7",
"w. c #5781B1",
"e. c #6884A9",
"r. c #7689A7",
"t. c #6688B8",
"y. c #7594B6",
"u. c #7691B3",
"i. c #3A81D3",
"p. c #2E81EC",
"a. c #3382E6",
"s. c #3A84E4",
"d. c #3383EC",
"f. c #3A86EB",
"g. c #3C8AEC",
"h. c #3989EA",
"j. c #2E81F2",
"k. c #2B82F4",
"l. c #3384F2",
"z. c #3986F3",
"x. c #3689F2",
"c. c #3B8BF2",
"v. c #3C8CF9",
"b. c #3486F9",
"n. c #3D92F7",
"m. c #4985CD",
"M. c #5888C7",
"N. c #4786D8",
"B. c #538BD6",
"V. c #5A93D9",
"C. c #5D91C3",
"Z. c #688AC7",
"A. c #6594CB",
"S. c #6795D7",
"D. c #7595CD",
"F. c #7CA4D3",
"G. c #448BE3",
"H. c #438DEC",
"J. c #478CE6",
"K. c #4691EE",
"L. c #4B93EC",
"P. c #4D92E7",
"I. c #5393E3",
"U. c #5296ED",
"Y. c #5399ED",
"T. c #5B9CEC",
"R. c #5C98E4",
"E. c #428EF2",
"W. c #428EFA",
"Q. c #4492F4",
"!. c #4A95F3",
"~. c #4D99F5",
"^. c #4494F9",
"/. c #4996F9",
"(. c #4C9AF9",
"). c #449AFD",
"_. c #539BF3",
"`. c #5A9EF2",
"'. c #549DFA",
"]. c #5097F4",
"[. c #649EEA",
"{. c #4BA3FF",
"}. c #5CA1F4",
"|. c #5BA3FB",
" X c #56A1FB",
".X c #5FA1EF",
"XX c #68A2EC",
"oX c #62A5F4",
"OX c #68A9F8",
"+X c #72ADF5",
"@X c #78B5FE",
"#X c #868788",
"$X c #958C83",
"%X c #868B95",
"&X c #939597",
"*X c #A89682",
"=X c #8893AB",
"-X c #8FA5B9",
";X c #B2ABB3",
":X c #E59D91",
">X c #D6BA88",
",X c #C7A88D",
"<X c #EEA594",
"1X c #EDAC8F",
"2X c #CEB9AF",
"3X c #F7ADAB",
"4X c #EEABBD",
"5X c #F4A9B5",
"6X c #F6AAB3",
"7X c #F1B0B0",
"8X c #EDCB92",
"9X c #DAC9A7",
"0X c #D8CAB0",
"qX c #E4CAA6",
"wX c #F2D5B0",
"eX c #FEE4AC",
"rX c #FFEBB5",
"tX c #F6E6B9",
"yX c #F9E7BB",
"uX c #FBE9BB",
"iX c #FCE5B4",
"pX c #FFF0BE",
"aX c #9798CB",
"sX c #869DD7",
"dX c #A599C9",
"fX c #84A6CE",
"gX c #AFAFD0",
"hX c #D2B0D1",
"jX c #EAADC5",
"kX c #E5B1C8",
"lX c #CDD7CE",
"zX c #F2DDCA",
"xX c #FAEAC5",
"cX c #F1EDD3",
"vX c #FFFBE9",
"bX c #FFFCF3",
/* pixels */
"| | | 1.1.&.*.l.h.^.g.K.!.~.s.K.Q.H.s.'.'.J.J._.'._.H.a.c.%.-.d.g.h.!.~.^.n.x.p.d.x.j.p.b.b.k.k.*...X.} ' ' / U / ` ( ( ",
"_ ] [ ..&.&.j.l.p.h.Q.K.g.K.Q.g.K.J.f.H.U.J.P._.'.U.f.h./.a.-.W.n.Q.!.L.g.a.g.x.p.d.l.p.#.*.k.*.k.....+.} _ / / ( ( ( ( ",
"} } &.,.b.#.$.p.d.^.g.h.h.h.K. X(.J.h.s.U.5.5.I.U.L.].s.s./.~ h.H.Q.].~.~.g.a.).n.x.c.v.k. .p.k.*.....>.} } _ _ _ ` @.` ",
"{ } [ <.=.=.$.=.d.Q.g.h.g.h.K.~.E.f.H.B.I I I L A.[.OX!.s.K.U.! N.U.U.].(.K.a.a.n.h.h.b.p.k.*.j.*.......} _ / / _ @.` ` ",
"( } &.l.=.p.=.p.h.c.H.!.h.h.g.h.g.G.U.L < 1 f : 8.F.+XG.s.I.M.P M.R.XXT.Y.g.h.h.g.d.c.d.l.v.j.k.j.<.*.} } _ _ _ ` @.@.@.",
") } &.p.c.d.g.a.a.!.Q.g.h.n.g.:.d.G.B.I ,X1XN b j #XD.A.w.w.S H J q.4.N.K.g.p.x.c.Q.).Q.c.c.=.=.p.k...*...} ` _ } o.o.` ",
"O.} *.<.a.c.E.H.Q.Q.s.H.~.K.(.K.c.P.L aX4X3X3XN p d o F < > X < H e.A.P.Y.n.x.Q.!.!.!.n.c.c.c.p.p.*.&.#..._ ] { @.o.} @.",
"' ' &.<.=.%./. XH.H.!.!.!.G.U.(.g.~ aXhXjX6X6X3Xb a d > a v a 1 l &X9.e.C.B.G.c.~./.g.g.a.W.n.x.b.j.k.,...X.+.} o.@.o.{ ",
"/ ' &.=.$.%./.!.s.Q.].J.G. X}.'.;.! aXhX4X5X5X6X1X3 v c r w & * a a a u 8.w.N.a.h.{.~.a.n.n.g.x.x.j.k.1.....X.X.+.@.o.o.",
"{ ' &.#.#.c.h.s.Q./.].].J.L.`.|./.^ dXjX4X5X5X6X3XN - 0 9 8 % & 5 8 0 w , O q.N.i.g.n.a.a.g.d.a.j.j.&...,...X.+.+.o.o.o.",
"| | <.;.#.d.a.g.Q.!.]._.K.L.P.|. X! dXjX4X5X5X5X3X:X% 0 7 8 r # # 5 7 7 6 d D w.N.n.n.a.a.g.g.p.=.k...+.,...X.X.@.@.@.o.",
"[ &.l.z.%.g.Q.g.Q.L.'.P.J.U.}. Xn.! aXkX5X5X5X5X5X<Xr 0 9 q - M M 6 7 0 r $ O e.I.g.x.d.d.g.n.h.d.p.*...] X.X.X.{ @.@.+.",
"[ &.v.z.g.'.'.H.L.]._._.P.oX}.~.n.N.aXhXjX4X5X5X6X<X- 7 9 r a uXvXn 5 y N qX$X%XB.x.x.d.p.h.n.g.x.p.=... . ... .} _ _ o.",
"' 3.l.z./.|.].H.H.U.}._.P.OX}.U.g.N.Z.gXjX5X5X6X3X1X3 9 9 r g xXvXqX5 # qXbX,X6.V.x.a.p.p.d.n.n.x.l.l.k. ...X.Q _ E _ +.",
"..3.&.z././.Q.H.L.'.@XR.R.OXOXU.L.I.L dXkX5X6X<X<XN - 9 7 r a eXvXxXw & 0XbX2XH m.n.x.p.p. .d.x.p.x.x.j.[  .X.Q E E _ X.",
"| *.*.z.E.f.f.H.!.OX@XT.+X@XOX`.].].U.sXkX5X6X:X3 3 q 9 7 r & 8XvXvXn * qXbX0XH m.{.).a.d.x.x.a.c.n.l.l. ... .X.] E X.X.",
",.l.v.d.c.h.h.^.K.P.OXOX@X@X+X.XI.L._.Z.hXjX4X3X<Xb - 9 9 t & >XvX0Xn i ,XzXgX0.B.(.^.a.h.n.).n.n.g.n.x.k. .Q ] ' W Q Q ",
"<.l.<.=.%.g.n.!.K.K.OXR.+X@X+XOX`.`.'.B.aXkX4X6X<Xb q 9 7 e - N zXX g n > l ;Xr.V.~.~.H.g.Q.!.(.~.n.g.p. . .X.] R | <.3.",
"&.j.<.l.#.p.v.K.!.L.|.T.XX@X+XoXoX}.oXR.D.gXkX7X<X3 e - - 5 8 & 0X+ . n = j ;Xr.M.s.K.K.g.L.!.!.~.!.h.p. . .Q ' Q ] W Q ",
"*.<.*.d.*.#.h.h.g.L.}.`.R.OX+XOXT.`.`.OXXXsXhXkX3Xb - - % % % # B 9XM s j ,Xx o Z.I.P.L.K.^.~.K.L.).n.p.X.p.[ ] E R W R ",
"&.<.v.l.j.#.d.d.h.g. XL.Y.OX}.oXU.P.|.oXoXS.aXhX4XN r 9 q r % * i tXpXu . 9X>X+ e.M.N.G.H.Q.(.!.g.n.d.p...X...] T W W T ",
"*.<.l.d.j.$.$.a.a.h.H.H.U.}.T.}.`.U.Y.L.Y.XXA.aXhX:X6 q 8 & 6 $ x rXxX9Xh wXV > 0.K N.~ ~ g.!.g.g.x.p.X.....X.W E Q Q T ",
",.=.2.*.p.%.p.$.h.Q.g.J.U.}.}.oX`._.U.Y._.T.T.S.F.-Xg w 5 M eXz . lXtX9X9X8X6 g u.m.J.g.f.f.H./.x.k.k.....| Q Q T W R T ",
"2.,.b.=.=.p.p.%.E.!.!.!._.}.oX}.`.`._._.Y. XT.}.oXsX&Xz 6 M xX,X  @ . 4 wX>Xi j q.P.c.E.c.Q.Q.Q.p.$.$.X.' 3.Q Q R R T T ",
"| ,.l.z.l.$.=.%.g.Q.'.~.G.L.}.oX}.}.L.L._.}.}.OXoXXXA.&Xs a iXqX2 ;   wXcX0X4 e.V./.Q.g.h.n.^.Q.x.*.&.X.] } ' ' ' R T T ",
"| >.2.z.z.=.=.d.g./.'.~.H.J.`.OX}.Y.~.~.Y.|..XoXoXS.t.8.i * 1XzX7.; 1 xXwX&XJ V.L.!.E.d.x.g.^.^.x.=.k...X.' ' E R Q R R ",
">.>.<.2.x.=.p.g.a.a.z.E.H._.`.oX|.N.K.~.L.}._..X}.A.#Xu w r a eX7Xx wXqXx O A.s.a.v.a.l.d.x.g.n.l.,.*.*.} } X.] ' Y T Y ",
"| ,.&.2.l.d.=.%.f.z.:.:.H.J.U._. X!.K.!.G.{.}.}.V.0.u w q q % w eXrXC * f k w.i.a.d.p.x.l.p.g.n.l.p.b.p.E X.X.} ] Y T Y ",
",.&.&.=.d.#.%.:.d.E.h.K./.J.L.!.!.K.g.g.h.~. XV.G k a 7 7 7 7 8 m M 5 6 w s 9.K h.d.=.k.l.l.j.x.j.p.d.l.p... ...' Y Y Y ",
">.,.<.l.j.=.d.v.c.f./.].H.L.H.H.K.a.g.g.g.K. Xq.k f r 7 7 7 7 q % 6 e # % g k J N.p.=.$.p.p.p.j.p.%.x.c.v.#. .*.| ' / Y ",
",.,.,.=.d.=.d.c.z.a.H.Q.K.L.G.!.~.g.h.g.K.H.N.e.u e q 9 9 9 r e n p f n 5 v z F i.k.p.x.k.$.p.c.k.$.c.=.p.j.*.>...' Y U ",
",.3.<.*.*.%.p.p.d.%.:./.E.H.K. X|.g.a.^.^.P.P %Xa 0 q q q q % n rXs g eXm 6 p h A n.n.n.p.=.=.p.=.p.x.=.=.<...*.&.E Y U ",
"] <.<.&.=.%.d.d.d.d.d.Q.K.K.g._.|.H.~ W.).m.8.j w 9 e r 5 6 6 V pX>X9XrXm 5 t u w.P.n.a.p.p.p.h.p.p.p.$.#.k.*.*.*.] Y U ",
"&.l.&.&.<.=.c.l.d.x.h.g.g.!.!. X!.K.a.H.V.P j a m a s $ 5 6 p eXtXpXpXeXn 6 9 i 8.K a.p.p.p.p.h.p.$.p.$. .p.b.#.&.W Y U ",
"&.,.&.&.,.=.;.d.x.a.K.Q.g.!.~.].Q.h.H.B.0.< a w f j %Xl 6 y B tXtXtXtXtXx 6 t t u 8.i.n.p.h.n.h.h. . .$.=.x.l.p.#.W Y / ",
"| >.&.,.=.3.*.l.p.x.Q.K.H.Q.L.K.K.N.L D k d c a l %X=X$X6 5 8XpXtXtXpXtXx u 6 6 p h P i.i.h.n.).p.p.p. . .p.j.=.<.| ' _ ",
"} ,.,.3.2.=.=.=.=.z.E.E.!.].!.U.I.Z.k i a c a z u.y.k i 6 m eXpXpXtXuXcX-Xo u 6 q i o S 4.i.g.).p.#.=.p.&.k.<.&.Q &.| Y ",
"} ,.,.&.,.2.;.;.-.c./.H.].`.U.`.I.y.: * a b a z 9.9.i m 6 V rXtXuXtXuXlXfXt.4 u w w d k 0.w.i.n.=. .$.l. .j.b.*.[ ....T ",
"&.,.>.<.;.;.E.E.:.c./.s.Q.(.U.`.!.M.l z l z g d h u p 6 i 8XpXtXtXuXuXcXfXC.V.o d r c f : F ! n.p. .$.#.Q *.z.b.,...E Y ",
"<.<.,.&.W.W.E.E.g.c.^.f.J.G.R.R.R.t.#Xk %X=Xl : 6 a t 5 B rXpXtXuXtXuXcXF.I.{.P j p a g : O i.l.&. .#. .#.#.<.b.<.} Y Y ",
"2.,.>.<.W.E.Q.^.c.h.f.H.H.I.S.Z.r.&X9.D F.F.-Xk 6 q 8 6 8XpXtXuXuXuXpXlXC.Y.G.q.$Xj o 8.8.0.i.p. .[ Q  . .$.<.1.*.} ' / ",
"2.2.<.<.W.H.E.!.c.g.f.z.'.T.S.r.=X=X9.u.u.fX=Xl 6 9 5 B pXtXtXuXuXuXxXlXK ~.h.M.0.H P w.Z Z i.Q  . . . .Q &.j.k..._ ' Y ",
"2.2.<.3.b.E.f.W.H./.a.E.].I.B.D.S.D.u.#Xh x z i w t 5 C rXuXtXuXuXtXcXfX4.{.g.J.m.V.I.N.i.i.p. .Q $.$.=.[ X.j.b.>.} ) Y ",
"<.1.,.&.*.;.;.f.c.g.d.h.K._.[.[.oX+Xt.9.$Xz i a t q 5 8XrXtXuXuXtXcXcX-Xm.).g.g._.~.Q.p.X.p. . .&. .$.#.X.[ *.<.&.} ' R ",
",.&.3.,.=.=.;.v.v.:.f.a.f.K.oX[.oXOXR.B.S.r.j i w q 6 8XrXtXtXtXtXxXgXu.B.^.n.a.!.(.v.p. . . . .#.[ #.=. . .} 1.1.} _ Y ",
",.&.>.2.=.d.z.a.d.=.;.f.H.!.oX`.OXoXJ.g.(.M.$Xd w q 5 M rXiXiXiXrX9X8.w.I.!.!.Q.E.(.g.#. . . .#. . .*.#.] X. .,.k..._ Y ",
">.3.b.2.2.z.v.f.d.d.;.W./.J.].oXOX|.K.g.).M.$Xf w q q 6 8XeXuXeXC i l 0.B.n.Q.g.H.!.a.%.#... .*. .&.p.#. . .[ *.+..._ / ",
"+.+.>.2.*.2.l.;.l.d.a.W.H.h.L._.U.~.H.h.Q.M.l a e q q w d x B n 5 p j 9.B.Q.c.g.H./.c.$. .&.*.*.[  .j.j. . . .k...} ' _ ",
"| } ) ' | 3.2.;.%.;.E.E.d.E.H.E.J.H.;.L.].Z.l 6 e q w s $Xj & 7 q 6 d %XV.g.{.K.Q.'.f.#.#. .,.*. .&.=.j. .[  . .] ) ) { ",
">.| | 3.| | v.z.=.z.W.z.z.=.W.H.;.z.2.E.!.t.z r c p z < D =Xx c t e a k q.{.g.g.Q.(.W.%.#.Q  .,. . .#.&. .[ [ Q ] ' Y ) ",
"+.| | +.>.[ *.l.z.z.z.2.-.;.W.H.H.E./.H.N.w.d q p z e.A B.K r.l a q 6 l w.{.K.K.K.'.g.#.&.&.#.*.[ Q  .*. .W ' W / U U U ",
"3.| ) >.&.| #.l.f.;.2.-.[ z.W.;.z.~ I.M.P 8.a c j D A j.b.Q.K 9.d t e d w.G.K.K.!.!.c.*. . .p.*.[ ] &.,.] ' ' W T U U U ",
"' ] | | >.3.*.2.2.;.-.>.>.2.2.-.c.! S k j i e d H A -.z.l.=.s.L *Xp t g o A N.K.~.~.c.$.#. .<.=.[ | | ..} ' | R U R / ( ",
") &.>.>.1.>.*.;.:.2.v.3.1.>.2.-.^ q.#Xs w 7 6 j A =.#.2.l.%.d.B.%Xs 6 6 u 8.P N.L.~.h.=.=.*.*.&.Q | >.[ ' ' W R U R ) ( ",
"| | | 2.b.#.;.z.;.E.2.3.| 3.,.~ J 8.i 5 7 e g %X! <.=.<.2.=.z.I.u.l 6 9 6 u #Xe.I.^.x.p.=. .#.&.W ' | | ' ' ) R ) U ) ( ",
"' >.&.2.<.-.%.;.2.2.2.>.3.+.<.5.L F j i f j #XI G.=.*.=.=.%.E.I.q.9.j p i u #Xy.N.^.c.d.k.Q  .[ ' [ | | ' ' / U ) ) ` ( ",
") >.,.,.*.*.3.;.W.c.2.3.3.| -.2.G.4.u.r.I I 4.G.;.;.2.2.2.z.L.U.L.m.q.e.e.I M.B.;.E.2.2.*...#.[ ] [ 3.[ ) ) R T T ) @.( ",
"O.+.>.,.*.<.2.c.W.v.;.<.&.Q 2.W.E.L.5.K 5.;.2.z.E.2.=.2.z.;.'.'.Q.!.P.~ ^ ~ 2.H.W.E.;.2.*.<.[  .[ ] 3.W R ) R R U ) O.( ",
") +.| ) >.&.2.l.l.;.-.;.2.-.W.E.2.].U.J.L.!.;.H.K.;.*.;.z.E.].'.!./.G.g.f.;.d.l.2.b.;.#.,.&.#.| Q R [ [ ' ) T R U / ) ( ",
"} | R R [ W [ -.#.;.;.W.z.W.W.G.J.E.].E.~ 2.E././.:.*.2.z.E.J.`.].!.n.~ a.z.l.d.-.2.*.&.,.&.#.| W Q Q R ' ) U R U T ( ( "
};
