/* XPM */
static char *xpm_[] = {
/* columns rows colors chars-per-pixel */
"60 60 243 2 ",
"   c black",
".  c #304434",
"X  c #645A55",
"o  c #7E6256",
"O  c #58697B",
"+  c #6F7470",
"@  c #9C5200",
"#  c #AD6A00",
"$  c #AD6F0E",
"%  c #BC7700",
"&  c #BA7B18",
"*  c #A9702A",
"=  c #BA7C28",
"-  c #B67C38",
";  c #C57C01",
":  c #C37A07",
">  c #CA7C00",
",  c #C57F15",
"<  c #C07D31",
"1  c #833E53",
"2  c #C4006C",
"3  c #9A6D48",
"4  c #A67947",
"5  c #B67D47",
"6  c #AC7A59",
"7  c #B37D55",
"8  c #997778",
"9  c #AB7B65",
"0  c #B17F60",
"q  c #A37C7B",
"w  c #BE802F",
"e  c #BE8139",
"r  c #C58200",
"t  c #CC8400",
"y  c #CB850A",
"u  c #D28600",
"i  c #D48900",
"p  c #D88B00",
"a  c #CA8519",
"s  c #D28A13",
"d  c #D28A1B",
"f  c #C98423",
"g  c #C4822B",
"h  c #CB872B",
"j  c #CE892C",
"k  c #D08523",
"l  c #D18A23",
"z  c #D18A2B",
"x  c #C58537",
"c  c #CE8A34",
"v  c #CD8A3B",
"b  c #D28C33",
"n  c #D08C3B",
"m  c #DD9335",
"M  c #BB8348",
"N  c #B98959",
"B  c #BB915E",
"V  c #B28C6F",
"C  c #A29979",
"Z  c #C68847",
"A  c #CC8A43",
"S  c #C69057",
"D  c #C79A67",
"F  c #CE8D78",
"G  c #CC9873",
"H  c #C9A778",
"J  c #D2A974",
"K  c #7A7293",
"L  c #5B79B6",
"P  c #7278B3",
"I  c #0A55D6",
"U  c #0B59D6",
"Y  c #0654DC",
"T  c #0956DB",
"R  c #0B5BDC",
"E  c #115ED4",
"W  c #125DDC",
"Q  c #0E61DE",
"!  c #1263DE",
"~  c #1B67DC",
"^  c #1569DE",
"/  c #0C70DA",
"(  c #3A7CD5",
")  c #065BE5",
"_  c #075BE5",
"`  c #0A5DE3",
"'  c #115FE6",
"]  c #0D62E3",
"[  c #0B63EC",
"{  c #0E69ED",
"}  c #1265E3",
"|  c #1B66E0",
" . c #156AE4",
".. c #1A6DE4",
"X. c #1266EA",
"o. c #156BEB",
"O. c #1A6DEB",
"+. c #0072E4",
"@. c #1D72E5",
"#. c #1D72EB",
"$. c #1C77E9",
"%. c #0E67F2",
"&. c #136AF3",
"*. c #196DF1",
"=. c #196FF8",
"-. c #007CF5",
";. c #1E73F2",
":. c #1878F3",
">. c #206FE9",
",. c #2274E5",
"<. c #2579E5",
"1. c #297DE6",
"2. c #2275EC",
"3. c #2C76E8",
"4. c #257AEC",
"5. c #2B7DED",
"6. c #337DEC",
"7. c #2275F1",
"8. c #257AF2",
"9. c #2B7DF2",
"0. c #307EF2",
"q. c #447BDA",
"w. c #567BD2",
"e. c #667BC8",
"r. c #DD2984",
"t. c #987A8C",
"y. c #877496",
"u. c #907795",
"i. c #A17D89",
"p. c #847CA5",
"a. c #847BB1",
"s. c #E1668C",
"d. c #7A82AC",
"f. c #7A85B8",
"g. c #3F81D9",
"h. c #0085F5",
"j. c #058AF7",
"k. c #108CF1",
"l. c #1989F6",
"z. c #0994FA",
"x. c #2787E8",
"c. c #2E81EC",
"v. c #3886E5",
"b. c #3384ED",
"n. c #3A85EE",
"m. c #3589ED",
"M. c #3B8BEE",
"N. c #3D91EF",
"B. c #2E81F2",
"V. c #298AF6",
"C. c #3384F2",
"Z. c #3A86F1",
"A. c #358AF3",
"S. c #3C8BF2",
"D. c #358BF9",
"F. c #2C91FA",
"G. c #2898FB",
"H. c #3E91F3",
"J. c #3393FA",
"K. c #3A99F8",
"L. c #4B87D8",
"P. c #578AD3",
"I. c #5686D8",
"U. c #6586CC",
"Y. c #7587C8",
"T. c #758ED6",
"R. c #7BA0DA",
"E. c #4689E8",
"W. c #428DEE",
"Q. c #558CE2",
"!. c #4591EF",
"~. c #4E96EA",
"^. c #4A94EE",
"/. c #5596EA",
"(. c #468AF1",
"). c #428EF2",
"_. c #4592F2",
"`. c #4B94F2",
"'. c #439BF6",
"]. c #4D99F3",
"[. c #4499FA",
"{. c #5195F2",
"}. c #539BF3",
"|. c #5A9DF3",
" X c #6D9BE8",
".X c #4AA4F9",
"XX c #5DA1F3",
"oX c #56A5FA",
"OX c #73A0E9",
"+X c #62A4F3",
"@X c #65A8F5",
"#X c #6BAAF4",
"$X c #72ADF5",
"%X c #79B2F5",
"&X c #91898E",
"*X c #9D8798",
"=X c #A98584",
"-X c #B38D89",
";X c #B6A98E",
":X c #8883AD",
">X c #9587A8",
",X c #8A8AB4",
"<X c #D89697",
"1X c #E49B96",
"2X c #C8AA85",
"3X c #D1B58E",
"4X c #C5AB96",
"5X c #D6BB98",
"6X c #E2BE80",
"7X c #C99BBA",
"8X c #EAA2AB",
"9X c #F9A8AE",
"0X c #ECA4B4",
"qX c #F5A9B6",
"wX c #F5A9B7",
"eX c #FAAAB2",
"rX c #FAACBA",
"tX c #D7C49C",
"yX c #E2C896",
"uX c #CFC8AB",
"iX c #DBCAA4",
"pX c #DBCABA",
"aX c #E6CAA5",
"sX c #E7DAB1",
"dX c #EEE0B6",
"fX c #F7E6B4",
"gX c #F6E6BA",
"hX c #F8E7B9",
"jX c #FAE9BB",
"kX c #9699D7",
"lX c #A796CD",
"zX c #93A6CC",
"xX c #B0B3C0",
"cX c #83B8F6",
"vX c #CCCDCC",
"bX c #DACDC4",
"nX c #F3EAC2",
"mX c #FCEEC1",
"MX c #FFF4C5",
"NX c #E5E1DE",
"BX c #DAE2E7",
"VX c #F3F2F0",
"CX c #FEFEFE",
/* pixels */
"Y ) %.) Y T } } &.O.#.8.9.B.V.C.9.C.C.C.c.A.)._.].`.m.M.A.4.5.S.b.n.].}.|.W.M.|.|.m.n.^.^.n.].].W.W._.M.b.4.7.9.9.*.O.O.",
"` ) ` ) ` Q ] X.;.#.2.8.5.B.8.;.9.A.B.C.m.M.c.H.`.`._.!.W.,.b.`.b.M.~.XX}.!.!.^.W.M.W.^.W.!.W.M.W.!.m.b.V.b.7.#.O.o.o.} ",
"[ &.] ` ] ] } #.2.$.;.4.B.B.:.x.A.A.C._.!.b.M.].].}.!.W.M.6.`.n.A.}.`.].`.l.l.!.v.n.M.^.XX^.m.v.M.W.`.b.c.2.,.C.5.2.o.o.",
"[ [ %.` ) R Q o.#.$.;.4.B.8.9.B.S.A.m._.c.b.'.].].].'.v.( _.^.b.`.#X+X'.g.y.t.L.H.^.M.!.].W.m.M.M.m.W.b.5.<.9.9.5.O.o.X.",
"%.%.%.[ ] Q ] o.O.;.B.b.B.A.S.A.A.A.A.M.C.m.M.~.].oX].J.L L.H.v.!.$X@XL & r r & I.[.n.m.b.E.M.b._.W.m.m.b.1.c.1.b.#.&.` ",
"[ %.*.o.] [ { #.7.#.5.B.8.9.A.A.H.]._.S.A.b.M.'.L.L K y.K X P.l.~.oXf.t h <X0X1XP F.(.m.4.M.!.m.M.^._.m.b.n.b.S.b.#.O.) ",
"%.&.*.%.{ } } #.;.4.9.9.B.A.M.A.).]._._._.m.!.~.^.K.C.q.P o # :Xk.d.t g <XrXqXrX7Xx.W.M.W.~.^.{.W.n.!.!.W.W.).6.5.8.O.O.",
"X.o.%.%.o.#.@.$.5.9.B.C.m._._.A.S.S.].`.M.M.N.K.L.:XC N M x z t 3 g u F rXwXwXqX9XT.k.E.|.].W.^.^.^.W.!.XX{.c.4.0.7.X.` ",
"*.&.&.=.o.@.@.;.9.9.V.C.A.H._.M.n.].{.A.Z.n.v.:Xy i t a * * j c h j x 8XrXwXqXqX9XlX-.q.|.+X|.W.W.{.].b.].^.5.,.5.2.X.` ",
"&.&.&.=.:. .$.4.;.7.B.C.c.m.M.c.c.].).5.Z.( + % b c x e e - w z b t F rX0XwXqXwXeXlXh.|.+X|.^.W.].}.].!.b.n.M.2.,.<.X.X.",
"*.%.[ o.$. .#.x.;.;.B.c.<.M.).1.1.M.).S.x.K ; Z h j c # % c g j c r 1XrXwXqXqXwX9XlXh.|.|.^.W.^.}.{.`.^.M.b.b.,.6.9.O.>.",
"=.[ [ o.o... .} $.7.5.b.b.).M.m.b.M.S._.E.$ # f c c r 4X;Xt j j j g 8XwXwXqXwXqXeXlXh./.|.|.|.!.`.|._.!.M.W.S.9.Z.Z.2. .",
"=.` [ } @.$.@.@.2.5.c.m.H._.M.b.b.m.n.J.:Xy vXH u t G CXVXf z j l x 0XwXqXwXwXwX9XkXj.W.].XX+XW.{.}.]._.S.}.|.S.S.S.2.o.",
"*.` ] ] ^ @.@.$.9.A.C.A._.S.m.4.c.c.M.K.u.1XCXpX> r bXCXVXZ f j j f 8XrXwXwXwXeX0XQ.A.W.].XX#X].}.+X{.)._.}.XX`.Z.C.2.} ",
"#.] Q / ^ ^ @.@.B.A.A.B.S.V.$.x.c.M.].F.y.5XCXpX> Z NXCXNXy j j b t G 8X1XqXwXeX7Xh.{.^.].+X$X/.}.%XXX`.).[.`.].Z.8.O.#.",
"#.^ Q }  .$.$.$.C.C._.A.C.S.b.c.c.^.|.F.y.5XCXpX> D CXCXbXr c j j b g Z 1XrXwX9XkXK.|.~.|.#XcX#X|.%X#X`.S.A.Z.).C.8.4.#.",
" .^ ] } ^  .@.x.V.).S.H.S.'._.m.b._.}.J.P 5XBX2X> G vXCX5X> n h c y S 0XrXwXeX0XH.}.^.^.XX$XcX%X@X$X`.!._.M.n.Z.C.D.0.9.",
"..x.@.Q  ...#.$.0.A._.`.].]._.S.M.].].'.Q.4Xd.* b N O NXD > n z z d Z wXwXwXeXkXG.|.XX|.+X$XcX$X/.#X_.!.`.).M.5.9.C.C.9.",
"~ } ^ ^  . .@.$.m.A.[.]._.].'.M.!.~.L.H.Q.2X&X# m @ O bXf f g g < f v 8XwXeX7X.X}.XX+XXX+X$X%X@X|.XX].!.!.H.0.2.0.9.C.2.",
"! ! Q ^  . .$.$.5._.`._._.].]._.!.!.].L.K B ;X4 S H uX;X# - - = - d S 0XrX0XkXoX@XXX|.|.#X$X#X}.|.XX^.W.b.n.<.4.0.9.5.4.",
"U } ! U ^ $.$.$.4.C.).!._.}.].S.M.E.N.d.@ 3XuXO + MXdXM * e g h b u F rX9XzX.X@X+XXX^.~.#XXX#X}.`.|.M.b.m.b.@.5.C.S.C.#.",
"U ! ~ U ^  .#.o.5.5.C.A.A.`.A.( ( g.x.8 % 3XiXC uXjXgXB # e 5 g v r 1X0XkX'.+X~.~.}.].|.|.|.+X{.M._.n.b.b.4.4.b.C.C.6.2.",
"I ! Q U  . .o.$.4.B.5.A.].).v.n.M.).l.:Xp Z iXiXiXjXsXX V hXJ , d Z kXOX'.XX|.]..X}.}.XXXXXXXX~.W.S.).n.<.1.5.6.4.9.9.9.",
"I U Q Q  .} #.X.#.7.#.C._._.).S.N.W.K.E.e t 5XsXC X .   4XMXD t i zXoX@XXX}.}.].}.~.XX|.+X@XXX].`.`.{.).1.c.C.5.9.C.9.9.",
"I I Q ~ ! } o.{ O.2.7.A._._.).C.S.).{.K.I.- 6XMXtX  1 r.aXgXZ h ,X.X@X+X@XXXXX].~.].XX+X+X+X^.W.].|.!.M.<.B.4.C.S.0.8.;.",
"I E ^ ! ! } {  .4.6.c.A._.[.D.A.m.S.`.].[.v.*XdXgXC 2 s.jXaX# 9 v.[.}.+X@XXX+X}.].{.~.XX#X|.).).~.|.^.W.m.5.1.S.S.9.7.*.",
"U R R Q o.o. .$.8.4.9.C.).).A.B.C.b.S.m.n.K.( B iXsXs.sXsXM k s & U.[.XXXX}.oX!.].!.M.XX+X|.}.E.S.M.b.6.m.c.9.Z.C.9.7.7.",
"R U R  .$.o. .] 4.V.B.C.S.A.C.C.A.c.b.c.B.b.0 i % tXjXdXN ; z n d r P.'.XXXX}.!.!._.!.|.{.~.^.W.C.4.M.A.5.1.b.Z.B.8.7.*.",
"Y U R ] #...$.1.m.b.5.C.A.A.A.B.5.c.c.n.h.p.u A x f J S y b j j c i 7 m.}.|.].M.N.M.).^.^.^.!.].).n.S.m.c.4.4.5.9.2.4.;.",
"` W ^ @.;.$.4.S.M.m.5.9.C.5.B.B.8.9.B.D.v.5 s - $ z u t c j h j j v u u.G.|._.S.M.M.m._.W.W.W.W.}.{.A.m.).b.9.C.9.4.9.7.",
"Y R } #.8.4.B.B.b.n.4.9.S.c.:.m.D.C.b.l.e.t c 5 ;Xg c C Z d j j h j z r w.F.).).n.m.M.].].M.W.`.`.Z.6.M.M.b.5.b.9.9.8.9.",
"U R W 2.4.2.9.1.5.A.5.x.c.5.8.C.H.H.S.h.t.i f B gXB N nXH > c z c c v i q k.).`.`.b.S.|.XX!._.).^.b.5.b.1.c.5.4.9.9.#.7.",
"T T  .4.2.4.9.<.<.9.<.c.M.b.5.B.C.H.J.L.r v t B MXiX5XMXiX; w = i z v j r U.F.{.).9.S.XX}.W.S.W.!.b.m.b.c.b.1.5.7.5.5.o.",
") R ! 2.<.Z.C.$.1.b.2.c.m.c.1.c.8.Z.j.u.i v u D gXmXjXjXdXN i 5 y.e i A i i.j._.(.b.!.].|.].^.).M.m.M.C.b.m.9.5.#.5.Z.2.",
") R } <.5.b.b.4.<.<.<.n.H.S.C.$.E.V.w.r j n t B gXgXgXgXjXH r u U.~.V t c f p.M.[.S.m._.}.{.`.M.).).b.n.m.c.c.5.2.7.4.7.",
"` ] ,.1.<.b.C.$.,.4.1.b.!._.M.Z.Z.h.t.i Z p 6 ,XjXjXjXgXMXaX= p V oX].t.u n i - L c.m._._.`._.A._._.m.b.c.4.#.4.7.2.7.#.",
"_ #.<. .2.B.B.2.x.<.4.c.].S.l.l.-.K t A l r g.zXfXjXhXjXjXfXB z t f..X.Xt.i A g r r e.K.}.^.}.`.`.(.D.4.4.9.7.0.;.9.8.O.",
"R #.$.o.4.C.C.#.c.1.#.1.!.m.P p.6 u n s % U.G.zXfXjXjXhXhXjX3Xr n r Y.G.>Xi z x 4 - Y.'.|.`.|.{.(._.(.2.b.C.0.8.2.7.;.O.",
"R } @.7.A.C.8...,.1.#.4.(.k.8 % j v l 5 ( [.K.zXfXfXjXjXgXjXsXx j d a ( *Xp 0 x u q '.^.|.{.}.`.C.`.S.c.).A.D.0.9.7.9.7.",
"T `  .B.C.9.*.,.@.,.@.,.6.,.K & h i p q h.|.K.R.fXjXjXjXjXjXjXH > v l 7 ; *X].Q.q >XG.K.}.}.S.).Z._.S.S.).).).(.8.7.9.9.",
"R ^  .;.B.9.2.,.@.~ @.@.4.<.9 & 7 y.7 u e.V.oXI.sXjXjXhXhXhXjXsXe d A t V +X#X@Xz./.>X>X/.}.`.).Z.S.n.W._._.).`.0.8.9.0.",
"Q } } #.B.B.,. .,.$.@.^ @.x.+./ x.j.L.8 e.V./.k.pXjXgXjXjXhXjXjX2Xr n u :X.X@X/.>Xr V V 7 T.}.|.).C.S.).].).(.).8.8.0.0.",
"` ]  .8.V.0.o...x.<.,.~ ,.1.1.c.A.{.[.F.J.M.{.l.xXjXjXhXhXhXhXmXiX, z d 5 *X-Xr t ,X.X[. Xf.}.{.S.C.].M.).A.S.C.=.9.0.0.",
"R ] o.;.9.7. .@.<.<.,.<.@.$.<.<.B.).{.|.S.M.].J.R.fXjXhXhXjXfXMXaX, j c w % u =XU.K.$X+X}.}.}._.n.6.M.S.Z.5.0.9.7.9.0.9.",
"` Q  .B.9.O...@.<.<...,.,.....,.5.S.].].A._.`.S.!.4XMXgXjXhXfXjXiXa h c r f.`.].S.{.#X+X|.+X`.n.b.m.5.).S.B.6.4.8.;.7.9.",
"R ] *.V.8.,.@. .<.4.>.>.,.O.,.2.<.M.}.)._.`.`.`.M.6 yXMXjXjXhXmX3X> c c u Y.K.|.M.).@X@X|.+X].W.n.5.6.C.b.Z.C.9.0.8.;.9.",
") } #.:.7...@.@.$.4.,...5.#.,.,.<.b.`.).S._.S.H.H.M y 5XjXjXnXiXe l c v u ,XJ.{.W.).+X@X+X{.M.].).0.b.b.b.).Z.b.C.C.>.;.",
"`  .o.#.4.@.,.@.b.b.....2.4.,.#.2.).[.S.n.)._.H.Q.g j % D 2XV : j c j v u :XF.`.n.).{.].|.^.n.(._.B.6.n.0.C.0.8.9.3.;.*.",
"} ' ] ..@.@.....c.1.,.| 4.5.#.2.2.Z.]._.`.].(.K.Y.t v z f > - -Xu s v v u u.[.`.).Z.Z.).`.M.).C.).).C.4.0.6.2.o.X.} o.*.",
"' `  .| ^ ....,.4.2.@.#.5.2. .,.1.!.{.`.).S.{.J.:Xu v c s A T.z.Y.g s A i V _._.).C.S.n.Z.`.5.Z.D.).Z.1.m.S.O.O.O.O. .7.",
") T T W R  .Q ,.1.O. .O.4.4.,.,.$.W.}.).^.S.`.V.i.p A d h T.l.(.h.w.x k z g E.A.(.`.Z.Z.S.(.b.4.0.C.S.M.b.5.*.#.>.O.O.7.",
"Y Y T T !  . .} 4.#. .@.2.1.,.#.4.A.].`._._.S.V.7 s b u Y.j.(.A.6.-.w., b i y.h.D.{.n.Z.0.).Z.o.7.6.5.n.m.>.*.7.2.X.| >.",
"Y _ R W W ..}  .#.#.O. .5.c.$.2.4.S.{.].)._.h.P > A p >Xl.6.0.b.C.6.-.e.r n t 7 a.$.l.n.8.C.0.7.2.8.b.n.0.2.*.9.O.O.| } ",
"_ ] _ T ~ R } } O.7...| 4.<.4.1.5.C.].`.A.4.t.r n k y T.K.n.9.C.0.7.0.-.i.p A s u x e.-.3.9.7.9.>.Z.b.2.6.4.2.0.7.3.;.' ",
"_ _ T W W ] } } O.O.X.~ ,.@.@.5.b.Z.`.).E.q r 5 A s x Q.[.(.5.0.9.9.0.:.i.p A v M = ; w.:.5.>.*.>.Z.Z.0.Z.b.2.C.0.O.7.O.",
"[ [ R W Y ] } } O.O. .} .... .9.A.S.`.J.Y.; & i p u p.V.{.S.9.9.6.8.9.C.E.t.r u u ; 8 6.B.3.7.*.3.9.S.m.0.4.<.0.9.7.O.} ",
"_ %.] I Y R R } | ,. .| ..>.2.4.C.Z.Z.A.).w.e.P a.e.J.].{.(.D.Z.0.9.0.Z.A.l.q.P u.u.S.D.Z.8.O.>.O.6.S.).0.2.8.2.9.8.7.X.",
") %.] R W T } R ! ,. ...,.@.9.7.b.6.Z.).A.D.l.-.j.D.`.).|.|.C.0.0.9.Z.Z.b.Z.C.l.j.F.`.(.).0.X.7.0.5.).(.n.9.0.3.7.7.*.X.",
"Y [ _ I W Y } } ~ | } } ..<.#.5.,.8.C.C.Z.b.0.Z.Z.).].[.}.`.S.n.6.4.n.^.W.m.).S.(.`.`.S.(._.7.0.0.<.9.m.Z.5.2.2.o.O.*. .",
"` ) I R T T X.| ^ ..}  .#.,.#.9.,.9.0.8.0.C.m.9.9.).`.{.+X_.).Z.C.2.5.^.^.).n.C.).].).Z.S.(.(.D.).0.b.#.,.>.} O.U W O.*."
};
