/* XPM */
static char *xpm_[] = {
/* columns rows colors chars-per-pixel */
"60 60 185 2 ",
"   c black",
".  c #304434",
"X  c #5D4339",
"o  c #755134",
"O  c #5C554A",
"+  c #605946",
"@  c #58697B",
"#  c #7A7A6F",
"$  c #646E71",
"%  c #8C4F00",
"&  c #974A00",
"*  c #AA5E00",
"=  c #A65300",
"-  c #AC6C00",
";  c #AD6500",
":  c #B36E00",
">  c #BA7200",
",  c #B67000",
"<  c #A76D1C",
"1  c #AE701D",
"2  c #BB7716",
"3  c #825D37",
"4  c #8E6339",
"5  c #8F6332",
"6  c #9B6A34",
"7  c #97683B",
"8  c #A36C27",
"9  c #AE762D",
"0  c #BB7D2E",
"q  c #B3782F",
"w  c #A36E34",
"e  c #A67135",
"r  c #AB7333",
"t  c #AC7539",
"y  c #A7743C",
"u  c #B17733",
"i  c #B57A33",
"p  c #BB7D32",
"a  c #B47B39",
"s  c #BB7E38",
"d  c #C47400",
"f  c #C57B02",
"g  c #CA7C00",
"h  c #C67E0B",
"j  c #C47D17",
"k  c #C17E2A",
"l  c #C07F37",
"z  c #833E53",
"x  c #C4006C",
"c  c #846044",
"v  c #97694D",
"b  c #A17B4D",
"n  c #B37E41",
"m  c #AC7F52",
"M  c #897E66",
"N  c #BE802F",
"B  c #BE8032",
"V  c #BE833C",
"C  c #C78501",
"Z  c #CD8300",
"A  c #CD870E",
"S  c #CB8507",
"D  c #D18301",
"F  c #CD861D",
"G  c #CE8516",
"H  c #D58A19",
"J  c #C58123",
"K  c #CA8524",
"L  c #CF8A23",
"P  c #C4822D",
"I  c #CA872C",
"U  c #CE892C",
"Y  c #D08922",
"T  c #D28B2C",
"R  c #DA912E",
"E  c #C38333",
"W  c #C98631",
"Q  c #CD8A33",
"!  c #C48339",
"~  c #CB8B3B",
"^  c #C8873C",
"/  c #D38D32",
"(  c #D78F36",
")  c #D79033",
"_  c #DC9232",
"`  c #DD953A",
"'  c #D59038",
"]  c #E69935",
"[  c #E29528",
"{  c #B88244",
"}  c #BA8D58",
"|  c #BF925E",
" . c #8F8F71",
".. c #A6936D",
"X. c #BD996D",
"o. c #B79266",
"O. c #B6A37F",
"+. c #C68A44",
"@. c #C28A4C",
"#. c #C98845",
"$. c #D18D42",
"%. c #CB8952",
"&. c #C6955A",
"*. c #D09455",
"=. c #C39967",
"-. c #CB9C68",
";. c #C89B64",
":. c #D19E6E",
">. c #CE8E77",
",. c #D08E71",
"<. c #C89D78",
"1. c #CF8D6D",
"2. c #CBA473",
"3. c #C9A77C",
"4. c #D3AA75",
"5. c #DD2984",
"6. c #ED5D90",
"7. c #D36E87",
"8. c #888C8F",
"9. c #868E93",
"0. c #A99C81",
"q. c #B9A989",
"w. c #B5AB94",
"e. c #D99696",
"r. c #E69D9B",
"t. c #CCAE83",
"y. c #C4A586",
"u. c #CEB78D",
"i. c #D1B68C",
"p. c #D8B586",
"a. c #C5AB94",
"s. c #C1AB9B",
"d. c #CDB69A",
"f. c #D4BC97",
"g. c #E1B999",
"h. c #DC99A6",
"j. c #DCBFA9",
"k. c #E9A2A5",
"l. c #E6A1AD",
"z. c #EAA2AC",
"x. c #F0A6A7",
"c. c #EEA5B2",
"v. c #F0A7B3",
"b. c #F5A9B6",
"n. c #F7ABB9",
"m. c #FAACBB",
"M. c #F8AAB7",
"N. c #FFB1BE",
"B. c #D4C39C",
"V. c #DDC79C",
"C. c #ECCA96",
"Z. c #CFC8AB",
"A. c #D0C3A1",
"S. c #DDCAA3",
"D. c #DCCFAA",
"F. c #DDCBBC",
"G. c #E4CEA3",
"H. c #EEC2A9",
"J. c #E4D3AB",
"K. c #E8CAB2",
"L. c #F4CCB2",
"P. c #E5DBB1",
"I. c #EADBB2",
"U. c #E5D7B0",
"Y. c #EEE0B6",
"T. c #F2E4B7",
"R. c #F6E6B9",
"E. c #F8E7B9",
"W. c #F5E8BB",
"Q. c #FAE9BB",
"!. c #FFB3C1",
"~. c #CDCDCC",
"^. c #DCCEC3",
"/. c #D6CDC5",
"(. c #FDEDC0",
"). c #F3EAC2",
"_. c #FFF3C4",
"`. c #FFF8C8",
"'. c #E4E1DE",
"]. c #DCE3E7",
"[. c #F0EDE9",
"{. c #FEFEFE",
"}. c #F3F2F0",
"|. c #EAE6E4",
" X c None",
/* pixels */
" X X X X X X X X X X X X X X X X X X X X X X X X X X X X X X X X X X X X X X X X X X X X X X X X X X X X X X X X X X X X",
" X X X X X X X X X X X X X X X X X X X X X X X X X X X X X X X X X X X X X X X X X X X X X X X X X X X X X X X X X X X X",
" X X X X X X X X X X X X X X X X X X X X X X X X X X X X X X X X X X X X X X X X X X X X X X X X X X X X X X X X X X X X",
" X X X X X X X X X X X X X X X X X X X X X X X X X X X X X X X X X X X X Xw 8  X X X X X X X X X X X X X X X X X X X X X",
" X X X X X X X X X X X X X X X X X X X X X X X X X X X X X X X X X X X XN H $.9  X X X X X X X X X X X X X X X X X X X X",
" X X X X X X X X X X X X X X X X X X X X X X X X XX c 7 4 3  X X X X4 / I e.v.k.v  X X X X X X X X X X X X X X X X X X X",
" X X X X X X X X X X X X X X X X X X X X X X X X X X X X X3 a e  X7 ) F e.m.n.!.h. X X X X X X X X X X X X X X X X X X X",
" X X X X X X X X X X X X X X X X X X X X X X X X Xy s B P P T ) 6 W C >.n.b.v.M.n. X X X X X X X X X X X X X X X X X X X",
" X X X X X X X X X X X X X X X X X X X X X X Xe E _ / I q i U U U Y ^ l.n.v.b.b.!. X X X X X X X X X X X X X X X X X X X",
" X X X X X X X X X X X X X X X X X X X X X Xo W T T W a V 9 N U Q C >.n.M.M.b.b.!.h. X X X X X X X X X X X X X X X X X X",
" X X X X X X X X X X X X X X X X X X X X X4 $.W U U Q - > Q P U Q Z e.m.v.M.M.M.!.h. X X X X X X X X X X X X X X X X X X",
" X X X X X X X X X X X X X X X X X X X X Xw : A U T g s.a.Z U U U I z.n.M.v.v.M.!. X X X X X X X X X X X X X X X X X X X",
" X X X X X X X X X X X X X X X X X X X X X*.~.<.Z Z <.{.}.J L Q Y ^ z.M.M.v.M.M.M. X X X X X X X X X X X X X X X X X X X",
" X X X X X X X X X X X X X X X X X X X X* g.{.F.g Z ^.{.[.+.F Q U J z.m.M.b.M.m.c. X X X X X X X X X X X X X X X X X X X",
" X X X X X X X X X X X X X X X X X X X X* K.{.^.d ^ '.{.'.A U U / Z >.z.r.b.v.!.l. X X X X X X X X X X X X X X X X X X X",
" X X X X X X X X X X X X X X X X X X X X= K.{.K.d -.{.{.^.g Q U U T P +.r.M.M.N. X X X X X X X X X X X X X X X X X X X X",
" X X X X X X X X X X X X X X X X X X X X Xj.].a.g <.~.{.d.d ~ T Q A &.c.M.b.!.c. X X X X X X X X X X X X X X X X X X X X",
" X X X X X X X X X X X X X X X X X X X X Xd.9.< ( } $ '.:.g / T T F #.v.M.b.!. X X X X X X X X X X X X X X X X X X X X X",
" X X X X X X X X X X X X X X X X X X X X Xy.8.; ] & @ /.J F ! P B U ^ c.M.!.l. X X X X X X X X X X X X X X X X X X X X X",
" X X X X X X X X X X X X X X X X X X X X% =.w.} @.y.Z.q.- a i 0 p F %.c.m.v. X X X X X X X X X X X X X X X X X X X X X X",
" X X X X X X X X X X X X X X X X X X X4 - u.d.@ # _.E.b 8 B P U / Z ,.N.N. X X X X X X X X X X X X X X X X X X X X X X X",
" X X X X X X X X X X X X X X X X X X Xy d p.U. .B.Q.R.X.: { a P Q C x.v. X X X X X X X X X X X X X X X X X X X X X X X X",
" X X X X X X X X X X X X X X X X X X Xa [ W S.D.D.Q.I.+ ..Q.4.g ) !  X X X X X X X X X X X X X X X X X X X X X X X X X X",
" X X X X X X X X X X X X X X X X X X X XB G f.P.M O .   a._.-.Z `  X X X X X X X X X X X X X X X X X X X X X X X X X X X",
" X X X X X X X X X X X X X X X X X X X X X: C._.J.  z 5.H.W.@.F  X X X X X X X X X X X X X X X X X X X X X X X X X X X X",
" X X X X X X X X X X X X X X X X X X X X X Xo.T._. .x 6.W.V.> a  X X X X X X X X X X X X X X X X X X X X X X X X X X X X",
" X X X X X X X X X X X X X X X X X X X X X X Xo.G.J.7.L.P.{ H / p  X X X X X X X X X X X X X X X X X X X X X X X X X X X",
" X X X X X X X X X X X X X X X X X X X X X Xs H d B._.T.} f / U R E  X X X X X X X X X X X X X X X X X X X X X X X X X X",
" X X X X X X X X X X X X X X X X X X X X Xw _ Q E K 2.&.G / I U U T p  X X X X X X X X X X X X X X X X X X X X X X X X X",
" X X X X X X X X X X X X X X X X X X X X Xp R 0 1 T Z g U U U U U U ) e  X X X X X X X X X X X X X X X X X X X X X X X X",
" X X X X X X X X X X X X X X X X X X X X X) L n q.k ~ O.+.F U U U U T I  X X X X X X X X X X X X X X X X X X X X X X X X",
" X X X X X X X X X X X X X X X X X X X Xu ` Z &.).} } ).2.g Q U U U U _ i  X X X X X X X X X X X X X X X X X X X X X X X",
" X X X X X X X X X X X X X X X X X X X XP / Z =.Q.D.f._.B.S B p _ T U T Q  X X X X X X X X X X X X X X X X X X X X X X X",
" X X X X X X X X X X X X X X X X X X Xr _ ~ D =.W.Q.Q.Q.Y.@.H a 6 E R U _ p  X X X X X X X X X X X X X X X X X X X X X X",
" X X X X X X X X X X X X X X X X X X XI T / Z o.W.E.W.Q.(.3.g (  X Xi R T I w  X X X X X X X X X X X X X X X X X X X X X",
" X X X X X X X X X X X X X X X X X Xi R U ` : 0.Q.Q.E.R.Q.D.j ] i  X Xr ) T ) i  X X X X X X X X X X X X X X X X X X X X",
" X X X X X X X X X X X X X X X X X6 ) U T ~  X X`.Q.E.Q.Q.R.&.Z '  X X Xu ) T I ! W  X X X X X X X X X X X X X X X X X X",
" X X X X X X X X X X X X X X Xe r ) T T B  X Xq._.Q.Q.E.Q.Q.u.f ( W  X Xp _ T P 9 q  X X X X X X X X X X X X X X X X X X",
" X X X X X X X X X X X X X Xw ^ U U T 0  X X X X_.Q.E.Q.R.Q.I.V Y / W  Xp ] 0 E ] e  X X X X X X X X X X X X X X X X X X",
" X X X X X X X X X X X X X X5 p U R _ i  X X X XQ.Q.E.E.E.Q.Q.t.g / T p W r  X Xi a  X X X X X X X X X X X X X X X X X X",
" X X X X X X X X X X X X X Xr P i 6 0 `  X X X XI.Q.E.E.Q.E.Q.U.V F Q T r  X X X X Xa a  X X X X X X X X X X X X X X X X",
" X X X X X X X X X X X X X X X X X X Xe  X X X XJ._.E.Q.Q.E.Q.(.t.f ) R r  X X Xs W l ! s  X X X X X X X X X X X X X X X",
" X X X X X X X X X X X X X X X X X X X X X X X XB.`.Q.Q.E.E.E.Q.V.G T / p t W Q ]  X X X X X X X X X X X X X X X X X X X",
" X X X X X X X X X X X X X X X X X X X X X X X X X(.Q.E.E.Q.E.(.D.j U U P ^ Q E  X X X X X X X X X X X X X X X X X X X X",
" X X X X X X X X X X X X X X X X X X X X X X X X Xf._.Q.E.Q.E.(.V.j T / U  X X X X X X X X X X X X X X X X X X X X X X X",
" X X X X X X X X X X X X X X X X X X X X X X X X X1 G._.E.R.E.(.i.f Q U R  X X X X X X X X X X X X X X X X X X X X X X X",
" X X X X X X X X X X X X X X X X X X X X X X X X Xk K f.W.(.(.S.! L Q U )  X X X X X X X X X X X X X X X X X X X X X X X",
" X X X X X X X X X X X X X X X X X X X X X X X X XE T f =.t.X.K L U U T R u  X X X X X X X X X X X X X X X X X X X X X X",
" X X X X X X X X X X X X X X X X X X X X X X X X XT T / A g 2 ! / T U T _ i  X X X X X X X X X X X X X X X X X X X X X X",
" X X X X X X X X X X X X X X X X X X X X X X X Xr R T Q R ~  X X XE T U _ 0  X X X X X X X X X X X X X X X X X X X X X X",
" X X X X X X X X X X X X X X X X X X X X X X X Xp R T T W  X X X X XE T T P  X X X X X X X X X X X X X X X X X X X X X X",
" X X X X X X X X X X X X X X X X X X X X X X X Xl T U /  X X X X X X XW T R e  X X X X X X X X X X X X X X X X X X X X X",
" X X X X X X X X X X X X X X X X X X X X X X X XU T R l  X X X X X X X XW T U p w  X X X X X X X X X X X X X X X X X X X",
" X X X X X X X X X X X X X X X X X X X X X Xr / U T U  X X X X X X X X Xp R T T R E  X X X X X X X X X X X X X X X X X X",
" X X X X X X X X X X X X X X X X X X X X Xs / B U T W  X X X X X X X X Xp ] T U P E !  X X X X X X X X X X X X X X X X X",
" X X X X X X X X X X X X X X X X X X X X X' s ) _ ( i  X X X X X X X X X Xu W R ) / t  X X X X X X X X X X X X X X X X X",
" X X X X X X X X X X X X X X X X X X X X X X X X X X X X X X X X X X X X X X X Xu i  X X X X X X X X X X X X X X X X X X",
" X X X X X X X X X X X X X X X X X X X X X X X X X X X X X X X X X X X X X X X X X X X X X X X X X X X X X X X X X X X X",
" X X X X X X X X X X X X X X X X X X X X X X X X X X X X X X X X X X X X X X X X X X X X X X X X X X X X X X X X X X X X",
" X X X X X X X X X X X X X X X X X X X X X X X X X X X X X X X X X X X X X X X X X X X X X X X X X X X X X X X X X X X X"
};
