/* XPM */
static char *xpm_[] = {
/* columns rows colors chars-per-pixel */
"60 60 240 2 ",
"   c #7A4F00",
".  c #7C5201",
"X  c #785404",
"o  c #784F15",
"O  c #795519",
"+  c #7B5727",
"@  c #7C5934",
"#  c #795738",
"$  c #795B45",
"%  c #725C56",
"&  c #786253",
"*  c #655E68",
"=  c #6F686E",
"-  c #746364",
";  c #6B667B",
":  c #865500",
">  c #9C6819",
",  c #A86F16",
"<  c #865925",
"1  c #885B35",
"2  c #9A6728",
"3  c #8D623B",
"4  c #996637",
"5  c #AE7528",
"6  c #AD762B",
"7  c #A66C34",
"8  c #AC7337",
"9  c #B27534",
"0  c #B67A3A",
"q  c #845D44",
"w  c #896047",
"e  c #85634A",
"r  c #8B644B",
"t  c #956848",
"y  c #9E6D52",
"u  c #A36D48",
"i  c #A87449",
"p  c #B67A46",
"a  c #AA7754",
"s  c #B57D57",
"d  c #BD7E55",
"f  c #BB7E5A",
"g  c #84706E",
"h  c #C27E43",
"j  c #C37D57",
"k  c #B7813D",
"l  c #C2803A",
"z  c #BC8348",
"x  c #BB8254",
"c  c #B8845A",
"v  c #9A8877",
"b  c #BA8667",
"n  c #A98576",
"m  c #BB8C7A",
"M  c #CC8952",
"N  c #C58759",
"B  c #C4845C",
"V  c #CC8A5D",
"C  c #D08D5D",
"Z  c #DFA35C",
"A  c #C78966",
"S  c #CB8C64",
"D  c #D18D63",
"F  c #CE9166",
"G  c #D49562",
"H  c #C79279",
"J  c #D7A477",
"K  c #E6A968",
"L  c #6B6A87",
"P  c #657392",
"I  c #6B7496",
"U  c #5472B3",
"Y  c #5978B8",
"T  c #6675A5",
"R  c #6A73AA",
"E  c #074DD3",
"W  c #0957D7",
"Q  c #0655DB",
"!  c #0B57DB",
"~  c #0B5BDC",
"^  c #145BD9",
"/  c #0C62DD",
"(  c #1363DE",
")  c #1668DE",
"_  c #2F6CD3",
"`  c #0556E2",
"'  c #065AE3",
"]  c #0B5DE3",
"[  c #085DE8",
"{  c #0D62E4",
"}  c #0468E6",
"|  c #0263EC",
" . c #0C63EC",
".. c #1264E4",
"X. c #1A65E1",
"o. c #146AE4",
"O. c #1A6DE4",
"+. c #1165E9",
"@. c #156BEB",
"#. c #1A6DEB",
"$. c #0778EC",
"%. c #1C72E5",
"&. c #1D73EB",
"*. c #1975EA",
"=. c #0669F3",
"-. c #146CF3",
";. c #1A6EF2",
":. c #0374F6",
">. c #017BF5",
",. c #1D73F2",
"<. c #1779F3",
"1. c #226CE5",
"2. c #2174E5",
"3. c #2A76E6",
"4. c #247AE6",
"5. c #297BE6",
"6. c #2275EC",
"7. c #2976EB",
"8. c #257AEC",
"9. c #2B7DEC",
"0. c #3177E5",
"q. c #327EEC",
"w. c #236CF1",
"e. c #2375F2",
"r. c #257AF2",
"t. c #2B7DF2",
"y. c #2878F4",
"u. c #327EF3",
"i. c #4975CA",
"p. c #527ACC",
"a. c #907E8C",
"s. c #8B7C9C",
"d. c #867BA6",
"f. c #3892B3",
"g. c #4D868E",
"h. c #72889C",
"j. c #6887B8",
"k. c #7987BB",
"l. c #6F94B5",
"z. c #2DA3CE",
"x. c #0788F7",
"c. c #1886F5",
"v. c #1892FC",
"b. c #2985EA",
"n. c #2D82EC",
"m. c #3484E6",
"M. c #3383ED",
"N. c #3B86ED",
"B. c #3689ED",
"V. c #3C8BED",
"C. c #3E92EE",
"Z. c #2485F5",
"A. c #2D81F2",
"S. c #2A8BF4",
"D. c #3384F2",
"F. c #3A86F2",
"G. c #358AF3",
"H. c #3C8BF3",
"J. c #358AF9",
"K. c #2B92F8",
"L. c #3393F5",
"P. c #3B92F5",
"I. c #3494F9",
"U. c #3C93F9",
"Y. c #3999F9",
"T. c #4B85DC",
"R. c #578BD3",
"E. c #678DC4",
"W. c #758DC5",
"Q. c #7190D1",
"!. c #7997D9",
"~. c #4CABCF",
"^. c #4788E4",
"/. c #428DED",
"(. c #578CE1",
"). c #4591EF",
"_. c #4E95EB",
"`. c #4A93EE",
"'. c #5296ED",
"]. c #5997E8",
"[. c #549AEE",
"{. c #428DF3",
"}. c #488FF5",
"|. c #4592F3",
" X c #4497F7",
".X c #4B95F3",
"XX c #4D99F3",
"oX c #439BFA",
"OX c #4C9CFA",
"+X c #5197F3",
"@X c #539CF4",
"#X c #5A9EF4",
"$X c #559EF8",
"%X c #6C9AE4",
"&X c #4AA1FA",
"*X c #5BA2F4",
"=X c #56A3F9",
"-X c #5BA3FA",
";X c #62A5F5",
":X c #65A8F6",
">X c #6AAAF5",
",X c #75ACF3",
"<X c #889092",
"1X c #B98F86",
"2X c #AE8F90",
"3X c #B89297",
"4X c #B7A298",
"5X c #8C83A4",
"6X c #8C91BB",
"7X c #9A97BD",
"8X c #AA8FA6",
"9X c #AC97A9",
"0X c #A599B5",
"qX c #B6ABAE",
"wX c #AAA6B7",
"eX c #ACA5B5",
"rX c #B3ABB4",
"tX c #B4B1B5",
"yX c #CFB08E",
"uX c #D0B18E",
"iX c #D6B98B",
"pX c #CFAF90",
"aX c #CFB090",
"sX c #E3B78A",
"dX c #EEC985",
"fX c #F1C689",
"gX c #EAC697",
"hX c #FAD39D",
"jX c #E3C6A8",
"kX c #EAC6A8",
"lX c #E1C8A8",
"zX c #F9DCA9",
"xX c #F9DCAB",
"cX c #EACEB2",
"vX c #8996C9",
"bX c #9496C4",
"nX c #839BD7",
"mX c #8AA2D7",
"MX c #BDB8C7",
"NX c #82BAFA",
/* pixels */
"E Q Q [ `  .+.;.,.,.@.#.r.6.*.#.&.r.r.A.A.n.r.D.B.H. Xb.B.H.B.H.G.H.XX.XH.H.|.XX.XB.H.H.+X#X+X}.}.}.H.}.}..XD.t.{.u.w.=.",
"Q Q ~ ] ] [ [ +.,.,.@.y.r.r.6.e.y.6.t.A.r.&.&.r.n.D.G.D.B.|.B.M.r.M.H..XH.G.O.F.H.|. X{..X}.{.}.U.{.}.}.}.}.{.F.u.u.y.-.",
"[  .+.[ { [ +...@.,.&.r.e.&.,.t.y.r.r.r.@.,.b.A.G.G.A.4.D.G.H.H.t.D..X|.n.B.m.n.F.{.F.J.}..X}.}.}.}.H.{.}.F.{.F.F.J.e.y.",
" .@.| | [  .+.+.@.@.;.r.A.,.&.8.r.r.y.y.e.*.9.A.P. XD.n.F.G.H.H.M.{.H.V.H.B.|.H.|.{.H.H.}.}..X+X{.}..XH.F.{.J.F.F.J.A.,.",
"+.| ' =.] { { ..@.#.&.8.,.r.r.A.J.e.y.t.A.n.M.M.|.|.H.A.D.A.F.H.H..X.X.X|.).|.XXOXF.D.D.H..X@X@X@X.X{.|.u.D.A.A.D.J.y.-.",
"[ { ~ { ' ' ....#.<.&.6.r.r.D.F.D.n.9.t.D.{.|.V.`.XXB.q.F.9.H.H.H.`.`.@XXX`.|.*X#X/.9.D.D.H.J..X@X/.+X{.D.e.A.D.H.t.,.,.",
"] ] ~ Q Q #.#.+.@.;.&.8.8.S.A.A.J.A.S.A.A.D.H.Y. XU.U.S.<.Z.U.J.J. X|.=XOXoX@X=X=X@X^.y.J..X6Xg Y .X@X/.B.J.t.t.H.u.&.e.",
" .' Q W ..#.+.@.,.6.6.A.t.m.^.N.^.^.^.0.^.^.T.(.].T.^.p.i.p.p.p.p.p.E.E.E.j.j.j.j.#X<.b.W.n M : P $X`.V.).H.J.e.;.u.Z.e.",
"[ ' ~ { { { #.,.&.r.6.A.t.L $ & & $ $ $ # @ @ @ @ + + + < X X : X . . X X . X . @ B.T.2Xp h A : U P.).).V.M.G.n.*.r.6.@.",
"]  .{ ] { *.e.6.&.r.9.A.<.L : 1 1 1 q 3 w q w q w w e e e e e e e e r t r r q @ - 5Xc h B f f : U B.V.V.V.n.n.8.%.q.9.#.",
" .[ ~ / { o.@.&.6.8.M.A.r.L : a a 5 6 6 6 6 6 6 6 6 6 9 9 9 0 8 0 9 k 8 z c 1 r x l d f d d f . U C.V.V.V.n.5.6.A.9.M.#.",
";. .{ { +.#.e.*.8.S.A.9.A.I   s 1Xl.k.k.k.k.k.W.W.vXW.W.W.W.W.W.W.vX!.!.W.c # i B B s d j j s . _ H./.).V.B.M.M.B.V.M.r.",
"-.=.+.@.o.*.e.6.t.A.A.D.L.I   p 3Xv.Y.I.c.K.Y.Y.oX&XI.L.Y.Y.S.S.L. X@X=X%Xc + y x j 1 = d j a o R.&XV./..X|.`.{.V.M.t.8.",
"=.;.@.*.&.&.y.9.A.G.G.B.H.T . 8 3X.X`.).V.V._._._.`.XX#X[./._._.)._.#XXX!.x # a N 8 = f.n j a @ (.)._.)./.V.;X.X9.8.9.8.",
"-.,.@.o.&.r.r.,.A.D.D.m.I.T . p 3XC.n.M.H.|.XX`.XXXXH.|.`.C.C.XX*X*X:X&X!.c # i j 4 g.z.v M i $ (.C.@X@X.XN.H.V.V.8.6.%.",
"+.-.*.*.%.6.%.;.t.A.4.n.U.Y   i 1XS.V.|.).|.=X[.=XXX`.=X-XXXV.XX`.`.].&XmXz # a j q f.z.<Xf u % _. X@X`.XX.XN.m.n.2.q.9.",
"o.} %.%.O.#.*.r.9.n.B.C.P.Y . i 1Xb.|..X X.X.X`.XXXX`.=X;X#X).XX[.`.`.Y.mXk # a p = ~.~.<XN 7 * '..X@X+X|.|.V..X.XD.q.F.",
"} o.) %.%.%.8.D.D.M.H.|.L.Y X i H m.XX.X.XXX`.XX[.=X=XXX*X*X).).[.;X[.K.vXl # s 8 P ~.z.h.c 4 ; +X.X;X#X.X/.`.$X;X.XH.G.",
"/ ) / %.O.) n.A.G.G.t.H.c.U . u H _.H.{.XX.X|.@X).).`.XXXX*XXX).).=X[.L.bXk + c 4 g.l.h.n j > I >X.X:X,X@X.XV.|.{..XF.y.",
"o./ %.%.%.*.D.G.|.P.H.H.U.p.. t 1X].P.V.XX$XXX*X-X=X`.=X*X).).).[.[.].L.bXk # c p a x z B B : h.NX;X>X,X.X.XV.B.H.{.D.D.",
"%.{ O.O.%.*.A.P.H.|.XX XoXR.o 7 H ].|.`.=X*X*X;X>X@X`. X[.=X.X*X*X[.[.L.6X6 q f B j j c d B : k.NX@X,X#XV..X).V.H.M.9.D.",
") o.o.o.%.2.n.H. X.XXX.X&XR.O t A ]. XXX=X*X;X;X;X@XXX X`.XX=X@X[.[.*X&X0X, q f j x x j f f : l.>X@X;X#X.X|./.{.9.6.A.y.",
"( / / *.*.*.2.M.).{..X|.&XR.O t H %XOX*X*X>X=X*X;X[.XX).XX|..X.XXX[.*X&XeX, q j x d d f d f : E.;X.X*X+X/.B.V.m.&.D.A.F.",
") / / O.*.*.%.9.D.B.B.|. XT.+ 3 A (. X[.>X:X*X;X*X&X[.XX@X@X#X'.)._.*X&X9X> q B f d d d f f . E.-X/./.}.M.m.n.4.8.D.A.F.",
"W W O.o.@.*.&.Z.t.b.|..XJ.^.$ 3 S (.L._.=X:X*X*X;X[.[.=X[.[.C.=X[.*X>X:X9X, r c d d d d N c < R.-X.X|.H..XV.5.9.D.9.8.t.",
"W ) ) o.#.o.@.r.,.r.H.{.|._.# 3 A %XU.).[.>X*X*X;X*X=X;X*X_. X).@X*X>X*X9X> r c d f B V F b 3 ].XX.X`.`.{.N.2.M.9.M.D.D.",
") ( / ..o.@.*.9.4.D.H.|.{.^.& 1 N !.I.`.).@X=X[.;X>X*X;X>XXX`.[.`..X[.=X3X> r c B S V S F x & ].F.`.#X[.V.V.n.A.&.H.H.D.",
"/ ) ) *.@.+.6.9.t.A.H.V.J.N.- 1 c !.c.V.V.V.XX#X[.[.[.;X,X:XC.).).=XXXXX1X2 y F V V V V D s - ].V.V.H.M.M.M.B.5.t.F.D.t.",
"/ ..#.*.#.%.9.H.A.A.H.V.D.D.- < N Q.x.M.|.XX[.=X=X`.*X*X*X>X*XXX).XX*X).1X< a S N V C G F p ; `./.{.9.9.|.M.8.4.9.D.n.t.",
"( o.8.&.*.B.B.G.M.8.J.F.t.q.= < x Q.v.P. X`.XX[.[.`.=X*X=X:X>X=X|.`.$X|.m 1 y C V V C K F i ; .X`..X[.|.V.V.V.D.9.9.9.8.",
"..&.9.6.9.A.n.B.n.6.n.M.6.9.; < M Q.x.N.|.`.XX*X*X`.|.#X=X:X*X`.XX`.|.`.m 1 a C V N K K B 8 P  X/.+X`.D.M.N.M.m.9.M.8.t.",
"O.6.r.6.9.9.%.m.D.n.B.M.t.b.; o z !.x.H.XXXX@X[.;X=X|.XX#X;X$X.X.X`.|.].m 1 s C V V G Z B 7 P  XN.|.B.8.M.n.n.n.&.8.8.y.",
"o.2.8.M.G.%.2.m.8.9.V.m.n.*.L < z vXx.).V..X-XXX.X@X@X$X#X;X@X@X.X.X$X%Xb 1 s D S V G Z V 7 T  X/./.V.M.B.n.B.B.9.9.6.6.",
"#.5.5.M.G.4.4.4.%.n.B.B.V.Z.L O z bXv.V.B.B..X$X@X@X@X.X.XOX$X@X@X*X*X,XA # s S A V G G S > Y  XH.M..XV.n.H.n.9.9.8.6.e.",
"8.%.6.9.A.&.%.4.b.8.B.`.H.J.I   p bXK./.H. X.X.X;X*X XH.H.|.@X@X@X*XXX%XB # c C S V N M S > E. X.X}.|.{.B.n.A.9.6.t.e.r.",
"2.@.t.A.M.%.5.b.2.8.V.).G.r.I . p bXv.u.|.*X#X#X;X*XXX|.XX|.XX@XXX-X=X!.B @ x C V V V V S 1 p.$X*X}.{.}.u.8.B.A.D.t.,.t.",
"&.t.J.D.e.O.4.4.%.r.m.V.F.c.T . 0 bXc.H.|.@X*X@X@X$X|.).|..XXX.X*X;XL.!.x # c C V V V V A 1 R.XX'.F.H.+XF.G.{.P.G.u.e.y.",
"&.9.D.A.#.2.4.) o.&.4.b.B.S.T   p 0Xv.H.H.@X$X.X.X$X|.H.XX#X.XXX@X.XS.nXz # N C V C V V B q (. XV.{.{.H.G.{..X}.{..Xt.e.",
"o.9.S.A.6.) 4.%.%.%.%.5.m.$.T   0 0Xx.{.G.`.XX.XXX$X@X.XXX`. XXX{.}.I.nXz q N V V V V V N $ ].=X_..XD.H.V./.XX|.H..Xt.e.",
"@.<.D.r.#.#.4.5.4.%.) 4.5.<.U   9 0XI./.B. XXXXX-X*X#X@X`.|.XX.X.X#XOXvX0 # V V V V V C x - _.#X@X.XF.F.|.M.H.D.F.D.e.y.",
"#.y.A.&.O.%.4.b.2.4.2.%.1.$.U O 8 0XoX/.D.+X|..X;X*X#X.X`./..X|..X#X&X7X0 $ V V V V V D p = ;X@X{.M.M.M.F./.M.9.9.r.r.y.",
"r.Z.t.2.#.%.2.2.6.O.O.%.1.$.U O 8 9XK.}.|.+X|.|.XX*X)..XXX{.V.H..X#XI.bX6 e V V S V V F p L ;X@XV.{.M.9.M.D.F.F.M.M.9.y.",
"-.<.6.&.%.%.2.9.8.O.3.6.7.$.U + 8 8XZ./.{.|.H.{.XX|.V.XX*XXX).)..X}.x.bX5 w S V V V N F 6 I #X`..X.XF.A.B.q.M.H.F.9.D.u.",
"o.6.8.%.%.%.n.B.6.O.%.8.q.$.i.o 7 9XY./..X|.|..XXX|.|..X_.=X*X#X/.+XY.0X, r S V V V V F , T |.N.F.{.{.D.D.D.t.M.8.@.e.@.",
"O.o.) 2.O.2.8.6.6.2.%.n.1.-.i.O 7 3XY././.|.+X.X X|.J.V.}.{.H..XH./.x.0X, t S V V V V F , U  XB.n.H.H.}.M.n.9.M.@.&.@.#.",
"! / ) o./ O.4.6.o.#.6.%.7.*._ + 4 3XI..X/.|.|.{.F.H.H.H.{.H.H.|.F.u.:.8X2 t F S V V V D > U  XV.6.A.t.F.m.V.M.3.#.6.6.#.",
"! ! ~ O.o.o.%.6.#.#.6.9.0.:.i.@ 2 3XoX.X.X{.{./.q.D..X+X/./.F.{.D.F.=.8X7 y D S S V V D , _ D.H.w.&.y.9.M.F.D.#.@.6.@.#.",
"~ ! ^ ....o.+.,.%.) %.9.4.9.T.# 2 3XY.G.Z.Z.K.x.Z.K.I.oXG.x.>.x.c.:.=.8X2 y F S V V V V 2 _ t.y.r.r.7.N.9.8.M.6.w.D.7.w.",
"~ ^ ^ { o...@.#.;.) 1.0.) } $.$ 2 n a.a.s.d.s.s.d.s.5X5X5Xd.d.d.d.d.R n 4 u A N V A N S 3 _ t.6.#.#.q.u.F.q.H.q.6.M.D.e.",
"( ! Q ~ { ..o.%.%./ | | 3.!.MXgXgXgXgXfXfXfXfXfXfXfXfXfXfXdXdXdXdXdXdXgXgXgXiXJ V N V V r m.y.;.#.w.8.u..XD.9.6.O.8.y.r.",
"] W ! ~ ] ~ / 3.} 0.nXMXcXhXhXxXxXzXxXzXxXxXxXxXxXxXxXxXxXxXxXxXxXxXxXxXhXzXzXzXhXsXJ A $ ^.D. .#.7.9.M.{.{.F.y.y.8.e.6.",
"~ ! W W ..] _ } Q.MXgXgXkXkXjXjXlXlXlXlXlXlXlXjXlXlXlXlXkXjXlXlXlXlXlXlXjXjXjXkXkXkXjXsX4X/..X{.t.D.9.t.M.9.q.3.2.y.....",
"! ~ ~ ! +.O.) ~ Q.iXpXuXaXaXaXaXuXaXyXaXyXyXyXyXyXyXyXyXpXpXaXaXyXyXyXyXyXyXyXyXpXpXpXiXrXc.F..X}..XH.F.8.#.3.O...+...^ ",
"! ! ! ~ { ..../ ~ vX0X0XwXwXwXeXeXeXwXeXrXeXeXeXrXeXrXtXrXqXqXqXrXqXqXrXqXqXqXqXqXrXqXqX!.r.y.u.{.D.F.F.6.y.y.,.#.#...~ ",
"[ ! ~ ] Q ..~ ^ ! ` | } | =.:.=.| =.| <.>.:.>.>.$.c.L.$XG.$.c.c.c.S.H.A.C.C.Z.$.$.b.U.}. XF.D.D.H.{.6.2.r.#.#.y.w.@.] ! ",
"` ~ ] ` ` { ~ ' ] 1.0.7.w.;.e.w.w.e.7.u.7.w.D.t.u.{.{.@X.XF.M.N.7.m./.N.)./.m.7.u.D.}.+X.X{.H.y.u.D.+.+.O...+.@.) +.X.^ ",
"! X.` ` [ ] ` ] +.1.@.@.o.@.;.+.-.y.D.y.e.y.e.y.D.H.D.F.F.N.{.t.7.6.7.5.t.M.M.t.8.t./.`.{.u.t.y.y.9.X.....+.+.~ ..^ ^ ^ ",
"^ ` ` [ ] [ +.] ..@.+...+.+.@.e.&.e.J.u.t.A.r.y.F.G.t.t.D.9.M.M.H.8.3.1.7.D.q.u.9.q.M.H.t.7.u.u.y.w...] ] { +.~ ! ^ ! W ",
"` [ [ ` ! +.] ' +.+...o.+...6.9.y.e.y.y.u.J.t.t.D.r.8.t.M.8.9.y.9.M.n.9.H.G.9.9.q.8.9.u.t.y.u.M.D.y.1.@.+.] +.~ W ^ ~ E ",
"` [  .[ ` +.{ ` { ....] ] ..e.6.y.1.y.y.y.A.u.y.u.D.t.D.u.8.8.e.8.u.N.H.7.D.M.7.5.6.u.F.F.u.u.e.e.6.#.u.w.+.] +...^ E E "
};
