/* XPM */
static char *xpm_[] = {
/* columns rows colors chars-per-pixel */
"60 60 204 2 ",
"   c #004DD5",
".  c #0047DC",
"X  c #004DDD",
"o  c #0453D6",
"O  c #095AD6",
"+  c #0654D9",
"@  c #0957DD",
"#  c #0C5BDD",
"$  c #105FDE",
"%  c #0F60D6",
"&  c #0D62DC",
"*  c #1162D5",
"=  c #1C6AD7",
"-  c #1363DD",
";  c #1568DD",
":  c #1A6BDD",
">  c #1F71DD",
",  c #246DD3",
"<  c #226DDB",
"1  c #2E79D4",
"2  c #2273DD",
"3  c #2874DB",
"4  c #2679DC",
"5  c #2A7BDE",
"6  c #317DDD",
"7  c #004DE1",
"8  c #0554E4",
"9  c #0A57E1",
"0  c #0759E1",
"q  c #0C5BE3",
"w  c #0555E8",
"e  c #0B5CEA",
"r  c #105FE4",
"t  c #0E5EF1",
"y  c #0E62E2",
"u  c #0F61E9",
"i  c #1464E3",
"p  c #1867E6",
"a  c #1569E5",
"s  c #1B6BE4",
"d  c #1365EB",
"f  c #1867EA",
"g  c #1669EB",
"h  c #1C6CEA",
"j  c #1E71E5",
"k  c #1E72EA",
"l  c #1263F2",
"z  c #1769F0",
"x  c #1B6DF1",
"c  c #286FE1",
"v  c #2374E4",
"b  c #2A75E4",
"n  c #2679E3",
"m  c #2B7CE4",
"M  c #2375EB",
"N  c #2A77ED",
"B  c #267AEB",
"V  c #2B7CEC",
"C  c #327CE4",
"Z  c #3B7FE5",
"A  c #327DEC",
"S  c #387FE9",
"D  c #2575F2",
"F  c #2876F2",
"G  c #277BF0",
"H  c #2B7CF2",
"J  c #2E7EF9",
"K  c #337EF2",
"L  c #3482DB",
"P  c #3985DE",
"I  c #2E81E5",
"U  c #2D81EC",
"Y  c #3483E5",
"T  c #3A85E4",
"R  c #3D8BE4",
"E  c #3384EC",
"W  c #3B84EC",
"Q  c #3589ED",
"!  c #3C8AED",
"~  c #3F90E9",
"^  c #2E81F2",
"/  c #3484F3",
"(  c #3A85F3",
")  c #368AF3",
"_  c #3A88F5",
"`  c #3A88F7",
"'  c #398BF7",
"]  c #3C89F5",
"[  c #3E8BF7",
"{  c #388EF5",
"}  c #3B8CF7",
"|  c #3C8DF6",
" . c #3B8CF3",
".. c #3182F8",
"X. c #3384FA",
"o. c #3787FA",
"O. c #3585F8",
"+. c #3687FD",
"@. c #3586FC",
"#. c #3485F9",
"$. c #3F87F8",
"%. c #3688F9",
"&. c #3A8FF9",
"*. c #388DF8",
"=. c #3C8CFB",
"-. c #3F8CF8",
";. c #3C8CFA",
":. c #3A90F7",
">. c #3D91F4",
",. c #3D90FA",
"<. c #3F91FA",
"1. c #4085E5",
"2. c #428DE6",
"3. c #488FE6",
"4. c #4186ED",
"5. c #418DEF",
"6. c #428DEC",
"7. c #4A8EEC",
"8. c #4591E6",
"9. c #4B93E5",
"0. c #4C98E6",
"q. c #4593EC",
"w. c #4B94EC",
"e. c #4B99EE",
"r. c #529AE5",
"t. c #5196EC",
"y. c #549BEC",
"u. c #589FEF",
"i. c #4087F3",
"p. c #4089F0",
"a. c #418AF1",
"s. c #428BF1",
"d. c #428BF2",
"f. c #428EF0",
"g. c #438CF3",
"h. c #428DF2",
"j. c #418CF2",
"k. c #408DF5",
"l. c #438EF4",
"z. c #448DF4",
"x. c #458EF5",
"c. c #448FF4",
"v. c #468FF6",
"b. c #438CF3",
"n. c #4A8EF4",
"m. c #428FF9",
"M. c #458FF8",
"N. c #438DFB",
"B. c #498DF9",
"V. c #4591F1",
"C. c #4490F2",
"Z. c #4590F5",
"A. c #4790F7",
"S. c #4492F3",
"D. c #4892F5",
"F. c #4891F7",
"G. c #4A94F7",
"H. c #4894F4",
"J. c #4A94F4",
"K. c #4798F3",
"L. c #4C9AF3",
"P. c #4192FB",
"I. c #4091FD",
"U. c #4596FF",
"Y. c #4394FB",
"T. c #4891F8",
"R. c #4992F8",
"E. c #4992F9",
"W. c #4A93F9",
"Q. c #4A93FA",
"!. c #4B94FB",
"~. c #4B94FA",
"^. c #4B95F8",
"/. c #4C96F9",
"(. c #4C95FB",
"). c #4D96FC",
"_. c #4E97FD",
"`. c #4B94FB",
"'. c #4699FD",
"]. c #4F98FF",
"[. c #4C9BFD",
"{. c #5295F3",
"}. c #539CF3",
"|. c #599DF4",
" X c #5195FB",
".X c #5099FF",
"XX c #519AFF",
"oX c #539CFF",
"OX c #539CFC",
"+X c #5A9EFC",
"@X c #55A1EF",
"#X c #5AA2EE",
"$X c #55A1F3",
"%X c #5CA4F3",
"&X c #5DA9F7",
"*X c #55A2FC",
"=X c #5BA4FC",
"-X c #5CA9FD",
";X c #60A7F7",
":X c #61A9F5",
">X c #62A6FC",
",X c #63AAFD",
"<X c #6CB3FE",
"1X c #72B9FF",
/* pixels */
". X 7 8 7 + e z g g k z U k U g U U U z ^ B G U %.) *.*.:.{ { { i.B.XX.XB.x.Q..Xg.g.x.).Q.W W x.Z.Z.T.m.-.` o...h a u y ",
"7 7 w w 8 e u d g g x U g U g U U z ^ ^ B B M n ) ) ) { { { ) Q C W f.g.W T W s.s.W s.~.Q.s.W M.x.x.Z.k.] ` o...x g d u ",
"w w t l e u u d u a a k g U g g z ^ U z B M v v ..) ) ) ) Q U Q 6 S s.W Z 5 C W s.W W ~.Q.g.s.Q.h.h.h.] _ _ o.+.D D z d ",
"w e l l l u u u y a a a U a U U ^ ^ U ^ B B V B *.) ) U U Q Q Q Q z.~.F.( W W g.s.S W x.Q.Q.x./.5.5.! ! ( ( o.+.D D x d ",
"w e l l u 0 0 y y a a a U U U U U ^ k G U ^ ..O.Y.,.|  .Q Q { ~ k./.oXXXQ.f.Q.).s.Z Z s.Q.Q.Q.).Z.f.W ! Q E O.+.G x g a ",
"w w e e e 0 0 y & a a U g U U U ^ z U U ^ ^ =.Y.U.P.| Q Q Q Q :.s./.oXXX/.F.).oXx.Y C 4.Q.F.J.^.J.V.! T E A ( X.k k g u ",
"w e e e 0 0 y u a a g g U U U U ^ ..^ ^ .._ =.Y.Y.Y. .E Y E Q ! W w.[.OX/.F.XX=X/.T C 2.J.J.Z.H.[.V.s.E C Y V ^ B k g a ",
"0 e e y 0 0 a g y y U U U U U U *.*.X.^ / _ m.Y.Y.k.Q Y Y Y Y R ! f.OXoX{.[.oX=X/.T 6 T F.J.F.H.OX^.2.Q m m V V k k g a ",
"e u u e 0 @ y a k k U k U U U U / A K $.` A ( `.!.Y.x.! ! T T T Y 6.oX=XoXH.6.1.R W 2.V.{.^.6.R T ! q.! Y 2 2 v B h i & ",
"0 u u u y & y a a j k U U U U U ` S K N.] S ( !..X).F.f.6.! ! ! 2.H.*XOX6.2.2.6.6.2.6.6.V.V.2.T 8.8.8.T 6 4 m V / M a a ",
"u u u u y y a a a a I k U U U I N.( i.N.i.( ! Q.XX.X^.Z.V.6.6.6.J.oX=XL.T 6 R e.V.7.2.2.6.2.T T q.q.! T Y 5 E ) U k ; & ",
"y d d u y & a j U U U U U U Q U N.B.B.M.i.W s.V.XX.X^.w.w.6.q.w.L.=X=XL.P 1 P w.q.2.T R 2.6.2.R q.q.8.~ T E Q ) B j & O ",
"u z z g a a a k U U U ^ { { { Q m.B.!.B.i.i.B.B..XJ.J.6.6.6.7.w.H.*X,X*X2.L P 2.2.P P P 2.q.q.q.8.q.q.K.q.~ Q I ) B j ; ",
"d z x g d a g U ^ U ^ ^ { { { { ( !.B.` 4.g.F.n. X/.J.w.n.q.w.V.q.$X-X-X}.8.2.R R P P 2.w.L.e.0.8.8.K.L.L.P.Y n U M a ; ",
"z x x x g g k k z U U U U { { { S B.B.i.S B.~.x. X X{.^.J.J.J.{.e.}.%X*X*X}.0.8.R R 2.w.e.}.e.8.q.q.q.q.V.q.I 4 m j ; & ",
"x x x x a k k k U a U U U U I U A B.B.Z T n.^.7.+X|.}.{.{.}. X}.*X}.L.$X=X=X}.t.2.8.9.e.}.{.w.2.$X0.8.R ~ Q Y n ^ U j ; ",
"p q # # p h s s j U Q Q Q >.Q I E  . .f.K.L.L.e.e.t.y.}.|.+X|.w.{.}.|.|.|.}.t.w.3.w.3.3.}.>X+Xw.w.e.6.2.w.[.V.m | / B : ",
"f i $ r h M v v j U ) Q Q Q Q I E / ! C.~ K.e.0.e.y.y.}.|.+X{.{.t.t.{.t.}.{.t.w.7.t.3.3.}.,X;X{.|.=X*Xw.2.H./.T.Y m 2 = ",
"h f i i p M s s U ) :.Q Q Q I I Q Q  .C.q.q.q.0.$X@Xy.}.|.|.{.7.t.t.t.t.w.w.t.y.t.t.3.3.y.,X,X|.+X,X>XJ.T 5.^.[.C n v : ",
"x x h p h s v s ^ &.>.{ >.>.Q I _ | P.S.K.K.0.0.%X@Xy.y.|.{.{.7.}.t.r.r.y.y.u.%X|.|.r.9.|.<X<X,X=X,X=Xw.T ! h.h.( E m n ",
"x h h h s s s v ^ { <.<.<.'.'.>.,.Y.U.[.[.$X$XL.;Xu.r.t.{.{.{.t.|.#Xu.y.y.u.:X,X;X%Xy.r.:X<X1X<X+X+XOX6.7.V.6.b / / / V ",
"f f h f p s v v U %.<.<.<.*X'.>.P.Y.'.*X*X*X&X&X%Xu.t.t.y.|.{.{.%X#Xu.#X#X:X:X:X:X:X#X#X:X<X<X:X%X+X^.w.V.~.W 2 E V H N ",
"r p f f i - v M B ) :.:.<.'.'.~ | ,.^.[.*X-X-X-X|.u.r.t.{.{.{.|.r.r.#X#X:X#X:X#X#X#Xr.r.#X<X:Xr.{.{.V.1.T W W b A V V N ",
"# r p r i - s B v E :.) >.>.>.Q ) ] P.[.*X-X-X-X$Xy.t.t.{.|.+X|.r.r.#X#X:X:X#X#Xy.#Xr.r.#X:X#X9.2.J.6.C , 3 m m ( / H G ",
"@ $ r i s p < : V m U { Y.S.Q Q  . .! >.K.*X-X,X$X@X|.}.t.{.{.t.u.:X:X;Xy.r.r.y.y.y.y.r.u.:Xu.y.2.7.6.4.Z C C K K H K H ",
"@ @ $ i s p s s M n U { <.Y.{ Q -.,.>.S.K.L.&X&X%X%X%X|.t.t.7.{.}.%X;X%X#Xy.y.y.r.y.u.:X:X;Xu.t. XXX.XB.W m A S K J F F ",
"+ @ $ - p : s : v n B Q >.Y.>.{ Y.P.>.C.q.K.$X$X&X&X&X&X|.|.7.7.{.y.|.|.;X|.{.9.3.9.y.>X,X;Xy.3.+XoX Xz.S A A A K K F D ",
"+ @ $ $ p p v : B n I Q >.>.~ Q | | ) ~ ~ q.e.@X%X%X&X=X>X+X{.7.t.w.{.|.>X=X{.3.3.3.7.+X>X{.7.7.4.4.W Z S S K K K F F M ",
"o @ q i p s v v ^ U U Q { Q Y I V I Y E R q.e.@Xy.y.y.;X>X,X+X{.{.7.n.{.+X+X{.4.7.1.1.{.{.7.4.7.i.4.S S S K K K K H F D ",
"@ # i p h M M M %.) Q E Q E I 4 m m I Y R q.e.$Xy.9.t.y.>X,X>X+X XB.{.n. X XB.7.B.1.Z B. X4.4. XXXB.i.i.K S K A N F F D ",
"# $ p h M F F N ) ^ I E E E I I E E Y R Q q.e.@Xy.r.9.t.+X>X+X XB. XB.n.7.4.n.B.B.Z 1. X+XB.4.n. XB.i.S K S K N F H F D ",
"# $ p h M H H V U U I I I Q Q I |  . .! q.e.L.}.=Xt.3.7.|.+X+X{. X X Xn.4.Z n. XB.Z i.>X,XB.4.n.i.Z C S S 4.K A K F M M ",
"* * - v H / U V 4 n n I Q Q I 4 C E ! ! ! 5.K.[.8.e.L.*X-X$XL.K.>.*X*X[.n.V.F.f.n.6.s.~.oXoX~.6.!  .! Q Y I I I M n B M ",
"* * ; v V U V n n n m I Q ~ I I E ! !  .! ! S.[.[.[.L.L.e.e.L.$XL.-X=XL.5.6.f.6.6.2.2.w.J.J.6.W :.~ Q Q I n n n n v v v ",
"* * : v V ^ V n n n I Q { >.Q Q Q W  . .! ! H.L.-X[.K.~ ~ ~ K.$X*X-X*XH.2.6.V.6.B.q.5.6.V.w.6.6.>.:.Q I I n v > 2 v v > ",
"O * : v H ^ m v n n n E Q ~ { Q T Q 5.h.s.h.E.[.*X*XK.R ~ ~ 0.L.OX*XOXq.2.H.}.K.OX}.L.J.J.L.J.J.~ :.Q Q I I m m n v v v ",
"* ; s n ..U n 2 4 > > 4 Q Q Q E Y Q ! ! >.S.'.*X[.K.K.q.q.K.e.K.L.}.e.2.q.$X=X*X*X$X}.K.e.e.e.L.! ! ) ! _ { _ *.B n V B ",
"* * s F ^ K B 2 j > > 4 n I I I E Q  .h.>.S.[.*XK.K.K.L.L.L.e.K.8.w.q.8.e.=X-X%Xw.e.L.e.w.q.w.J.Q ) :.{ :.,.,.,.V V H H ",
"$ * v N ..H M : n > > > n I I n  .C.C.P. .5.E.[.[.[.[.$XL.e.e.~ 8.0.w.8.L.-X-X$X8.w.$X$Xe.w.w.L.! ) | *.*.-.=.=.V N V G ",
"O : h H ....M : B n j > n V m m E.'.E.Z.5.! ~ S.-X-X*XL.K.q.q.0.w.e.0.w.$X-X=Xe.8.e.*X&X%X$X}.*X) | { ` ) ) ) %.v M B G ",
"o - h F F M s - B n > > v n v 2 m Z.[.'.Z.Z.E.S.[.$X*X*X$XL.e.e.w.w.}.=X-X}.}.=XP y.-X-X=Xe.8.R I ) -.Y.,.#.V B M N M N ",
"# r M F H F v : G M v > v n n 2 4  .[.T.>.C.S.C.K.K.K.K.K.0.q.~ w.q.L.*X*Xe.q.L.q.L.-X,X-XL.q.V.) ) O.) %.%.#.H H H J H ",
"# i h F H F M s H N v v v n v > 2 T H.P.! q.P.q.>.K.~ ~ ~ K.0.K.H.q.^.=X*XF.5.q.2.J.+X=X=X/.V.V.-.%.U ^ %.%.#.^ H H F F ",
"$ - f M x M M s ^ B M s v v v > 3 Q E.P.h.P.V.V.K.K.K.q.~ K.L.L.J.V./.=X-XoXZ.T.Q 2.Q.^.Q.f.6.W =.) V ^ #.%.^ M h M h M ",
"O # $ i p p p : H M v s v v v 2 5 6.'.E.P.H.'.K.~ ~ ~ ~ ~ 0.K.K.s.W ( XX+XXX!.B.S 4.i.B.g.i.W S _ O...+.=.K M - p p s p ",
"@ O @ $ $ - p i F M v v M M B v m P.oX`.C.H.H.q.R R Q ~ ~ ~ R R Y b b i. XB.N.B.B.N.i.i.N.` ( S V ..` =.@.H v p s p h h ",
"@ @ # # $ i p p M M s v M V N n Y P.[.E.>.5.>.! Y Y ~ ~ ~ R L L S c < S i.i.( ( B.N.$.K ( ( A b v / +.o.H M M F h M M h ",
"$ $ # # $ i p h M s s j M N H V V P.[.E. .Q ~ Y Q ~ q.K.K.~ L L B.A c A i.N.K $.N.$.S N A A c < j V ) ..M s H =.h h p p ",
"r $ $ # # $ i - M h p : : s M m o.` =.,.,.` / I U Q >.P.~ ! L I b A S / ` ` ` ` ).N.` A b b < < b V o.O.U M M M X.H D s ",
"r # # # $ $ $ i M s : : : s v B o.+.=.,.=.*./ V E ) >.'.K.:.Q I V A / ( ( ( ( W Y.=.$.( A b < = m E *.` ..U H ^ H F M p ",
"# $ # # # $ $ - s s p : s s v N ..O.` _ *./ U I ) ) <.'.U.>.Q I m A ( ( ` ( ( K ( $.N.N.$.E b 2 N / ) ) ..^ H / b M M s ",
"q # @ # # $ $ i p p : : s v M N G H ....#...^ U ) :.'.'.'.<.{ I b b A ( $.g.` ( $.=.N.N.-./ A V ^ ^ / ^ V M v M p p f s ",
"q # @ @ @ $ $ $ i - p : s s M M B N F H H U U U / { Y.[.[.Y.Q A V A ( =.$.( ( V N.N.N.N./ ( ( ` / ../ V B h s ; * - v M ",
"9 @ @ @ @ # # $ $ - - s s M M M M M M M N H V / U ) U.[.[.<.E n ] =.N.N.` E b = =.Y.Y.=.E A ( N.=.o.V N m M s - O $ p f ",
"9 9 @ @ @ # r $ $ $ i p c h M M s j v M M V H ^ B ) <.[.'.<.E n ( ] N.Y.$.S b = ( N.!.N.( V ( ` O.V v M M M s s $ - r s ",
"9 @ 9 @ 9 @ # r # $ r f h M x M s s s k M N G / U %.<.'.'.,.I n b A ( N.=.` S V A =.`.!.` A A E B s ; - s v s - p r i - ",
"X 9 q r 9 9 9 r @ r c M t s p c h M F J J J F B ..^ / / / ) Q / E b b A E ( N b ( ( $./ A b N V v : O - : - $ # O O + # ",
"X 9 e e 9 9 r r 9 r f r c f s f h M F J J J H N ^ / / / / / E V V V b A K E C b A ( ( ( A m A A M : - * - i $ $ @ O + + ",
". 8 9 e e 9 r r r r f f M r M r x D F J H H J J H ^ ^ ^ ..U U V A C m A A K A b m A / ( A A A E M v p - - i $ @ o o o + ",
". 8 9 e 9 e r r r r r f r r r M D D D D D F J X.G H H ^ ^ G m m V V A A K S A m A V ( ( S N A V M M s - $ i r @ o   . o "
};
