/* XPM */
static char *xpm_[] = {
/* columns rows colors chars-per-pixel */
"60 60 256 2 ",
"   c black",
".  c #010101",
"X  c #020202",
"o  c gray1",
"O  c #040404",
"+  c gray2",
"@  c #060606",
"#  c #070707",
"$  c gray3",
"%  c #090909",
"&  c gray4",
"*  c #0B0B0B",
"=  c #0C0C0C",
"-  c gray5",
";  c #0E0E0E",
":  c gray6",
">  c #101010",
",  c #111111",
"<  c gray7",
"1  c #131313",
"2  c gray8",
"3  c #151515",
"4  c #161616",
"5  c gray9",
"6  c #181818",
"7  c #191919",
"8  c gray10",
"9  c #1B1B1B",
"0  c gray11",
"q  c #1D1D1D",
"w  c #1E1E1E",
"e  c gray12",
"r  c #202020",
"t  c gray13",
"y  c #222222",
"u  c #232323",
"i  c gray14",
"p  c #252525",
"a  c gray15",
"s  c #272727",
"d  c #282828",
"f  c gray16",
"g  c #2A2A2A",
"h  c gray17",
"j  c #2C2C2C",
"k  c #2D2D2D",
"l  c gray18",
"z  c #2F2F2F",
"x  c gray19",
"c  c #313131",
"v  c #323232",
"b  c gray20",
"n  c #343434",
"m  c #353535",
"M  c gray21",
"N  c #373737",
"B  c gray22",
"V  c #393939",
"C  c #3A3A3A",
"Z  c gray23",
"A  c #3C3C3C",
"S  c gray24",
"D  c #3E3E3E",
"F  c #3F3F3F",
"G  c gray25",
"H  c #414141",
"J  c gray26",
"K  c #434343",
"L  c #444444",
"P  c gray27",
"I  c #464646",
"U  c gray28",
"Y  c #484848",
"T  c #494949",
"R  c gray29",
"E  c #4B4B4B",
"W  c #4C4C4C",
"Q  c gray30",
"!  c #4E4E4E",
"~  c gray31",
"^  c #505050",
"/  c #515151",
"(  c gray32",
")  c #535353",
"_  c gray33",
"`  c #555555",
"'  c #565656",
"]  c gray34",
"[  c #585858",
"{  c gray35",
"}  c #5A5A5A",
"|  c #5B5B5B",
" . c gray36",
".. c #5D5D5D",
"X. c gray37",
"o. c #5F5F5F",
"O. c #606060",
"+. c gray38",
"@. c #626262",
"#. c gray39",
"$. c #646464",
"%. c #656565",
"&. c gray40",
"*. c #676767",
"=. c #686868",
"-. c DimGray",
";. c #6A6A6A",
":. c gray42",
">. c #6C6C6C",
",. c #6D6D6D",
"<. c gray43",
"1. c #6F6F6F",
"2. c gray44",
"3. c #717171",
"4. c #727272",
"5. c gray45",
"6. c #747474",
"7. c gray46",
"8. c #767676",
"9. c #777777",
"0. c gray47",
"q. c #797979",
"w. c gray48",
"e. c #7B7B7B",
"r. c #7C7C7C",
"t. c gray49",
"y. c #7E7E7E",
"u. c gray50",
"i. c #808080",
"p. c #818181",
"a. c gray51",
"s. c #838383",
"d. c #848484",
"f. c gray52",
"g. c #868686",
"h. c gray53",
"j. c #888888",
"k. c #898989",
"l. c gray54",
"z. c #8B8B8B",
"x. c gray55",
"c. c #8D8D8D",
"v. c #8E8E8E",
"b. c gray56",
"n. c #909090",
"m. c gray57",
"M. c #929292",
"N. c #939393",
"B. c gray58",
"V. c #959595",
"C. c gray59",
"Z. c #979797",
"A. c #989898",
"S. c gray60",
"D. c #9A9A9A",
"F. c #9B9B9B",
"G. c gray61",
"H. c #9D9D9D",
"J. c gray62",
"K. c #9F9F9F",
"L. c #A0A0A0",
"P. c gray63",
"I. c #A2A2A2",
"U. c gray64",
"Y. c #A4A4A4",
"T. c #A5A5A5",
"R. c gray65",
"E. c #A7A7A7",
"W. c gray66",
"Q. c #A9A9A9",
"!. c #AAAAAA",
"~. c gray67",
"^. c #ACACAC",
"/. c gray68",
"(. c #AEAEAE",
"). c #AFAFAF",
"_. c gray69",
"`. c #B1B1B1",
"'. c #B2B2B2",
"]. c gray70",
"[. c #B4B4B4",
"{. c gray71",
"}. c #B6B6B6",
"|. c #B7B7B7",
" X c gray72",
".X c #B9B9B9",
"XX c gray73",
"oX c #BBBBBB",
"OX c #BCBCBC",
"+X c gray74",
"@X c gray",
"#X c gray75",
"$X c #C0C0C0",
"%X c #C1C1C1",
"&X c gray76",
"*X c #C3C3C3",
"=X c gray77",
"-X c #C5C5C5",
";X c #C6C6C6",
":X c gray78",
">X c #C8C8C8",
",X c gray79",
"<X c #CACACA",
"1X c #CBCBCB",
"2X c gray80",
"3X c #CDCDCD",
"4X c #CECECE",
"5X c gray81",
"6X c #D0D0D0",
"7X c gray82",
"8X c #D2D2D2",
"9X c LightGray",
"0X c gray83",
"qX c #D5D5D5",
"wX c gray84",
"eX c #D7D7D7",
"rX c #D8D8D8",
"tX c gray85",
"yX c #DADADA",
"uX c gray86",
"iX c gainsboro",
"pX c #DDDDDD",
"aX c gray87",
"sX c #DFDFDF",
"dX c gray88",
"fX c #E1E1E1",
"gX c #E2E2E2",
"hX c gray89",
"jX c #E4E4E4",
"kX c gray90",
"lX c #E6E6E6",
"zX c #E7E7E7",
"xX c gray91",
"cX c #E9E9E9",
"vX c #EAEAEA",
"bX c gray92",
"nX c #ECECEC",
"mX c gray93",
"MX c #EEEEEE",
"NX c #EFEFEF",
"BX c gray94",
"VX c #F1F1F1",
"CX c gray95",
"ZX c #F3F3F3",
"AX c #F4F4F4",
"SX c gray96",
"DX c #F6F6F6",
"FX c gray97",
"GX c #F8F8F8",
"HX c #F9F9F9",
"JX c gray98",
"KX c #FBFBFB",
"LX c gray99",
"PX c #FDFDFD",
"IX c #FEFEFE",
"UX c white",
/* pixels */
"  w a : o : 2 % & , 6 6 2 2 9 y L h 9 t g f u t a a s d f g g h u l c f p f f y 9 7 6 7 9 6 > %   X O o     . o         ",
"  7 t = . - , # 5 0 t t w w p h Q M s h b x h g g g h j k k l l q s f y e i y 9 i t r y u t 8 1 # % * * % $ $ % O O O O ",
"y B F l a z v g r u p i y u d l I b a g z h f k i i p a s d d f c V C b b B m j u r w e t r 8 2 - ; > , , > ; - O O O O ",
"G ~ ` R L E W I _ ) / ^ ~ / ` [ o.( E ^ ) / _ ..Q Q ! ~ ^ / ( ( H U U G J Y L V Q T I U R R P H K K L U R T L F M M M M ",
"    O           w 7 2 , < 3 6 7 3 ; ; 3 5 4 r z 8 9 9 0 q w e e x b c j x N c u 5 1 : : < 2 , ; , : : 2 8 7 , % . . . . ",
": < 2 3 4 4 3 1 d r 5 1 3 7 9 8 6 4 8 t e w k H f g g h j k l l y u e 9 t g y < u w 7 7 q r e 0 4 1 1 8 y t 4 * % % % % ",
"      . O X     d q , - > 2 3 1 < 1 6 0 3 , y V e e r t y y u u j j a u h n h 7 6 1 - - , 3 3 2 % + + - 4 4 $           ",
"u e r s h d a s ^ L M c m C C B n m Z Z x g C ( M M N B V C C Z N m z j m F m y c j a p g l z l a t t g n b p 4 r r r r ",
"v G I S B D K J F D D F K R / ` ;.! C H ! Q L D P K G F H I E ~ H F A C Z F K I L n U A W %.G m m C G H D C B B F K T ! ",
"  $ = .     o . O O + @ & : 2 5 B w * , 0 8 < ; 2 : $ o @ : 8 t e w q 0 0 w r t i 3 s 9 f H 0 1 % * - * # o .       X % ",
"3 e t 4 , 3 4 , 4 5 6 8 q e t y R b u s l h a p n k y q r j Z P r r y y y r e q s 7 h 0 s S 9 1 u t e 9 5 2 , : % ; 3 0 ",
"o = = O X % % o o O + # # $ $ $ d 3 % = > * & ; 3 > & # * 2 r d w t i a p y q 9 d 9 j 9 u B 6 1 & @ .               . @ ",
"B F G Z F T R J Y U I L L K K K { W L U U J P ~ A A A D H P T E m B Z D S Z N m D v L c M W l k I H S F K L F C m M N B ",
", 4 4 2 9 d d w n x h p u i a d n j g k h a z D u p d h k k j h N B Z S D D S S A v P c n E c b k f d k m m j y e w q 0 ",
"  .     O > ; X p w 1 & # % ; < 1 : , 3 < ; 9 l 0 9 8 7 7 8 9 0 = = = ; , 2 6 8 - O 6 O # w # = 6 2 3 0 i t , X & % $ $ ",
"; : * # ; 7 3 # k i 5 * # * < 6 = * > 3 > - 0 v e 8 1 ; - > 4 8 9 8 7 8 w i g l 7 , a , 2 j 5 w 8 4 5 e a e *         . ",
": $ & 3 6 < 2 w d i w 6 3 2 4 5 6 < 1 8 9 8 a M a 8 5 e y 9 6 9 0 0 q q q w w w i q q u t 8 t c 7 5 4 7 q 9 < * o o o o ",
"K Y W E Y Y W ^ _ ( ~ W T Y Y Y o.) Q ^ ^ W ^ | ) E R / / E ! [ ~ ~ ~ ! ! ! Q Q V V B N V A D D Y Y Y T T U K F H H H H ",
"% t d 2 $ , 6 2 5 6 6 6 5 3 < , B p 6 0 r 0 8 q q 8 q t q 7 p B t t e w 0 9 8 7 q a u 7 t v j 5 ; > < > = & = ; < < < < ",
"  e d #   O - X $ & ; > : = $ @ h 2 @ - 6 6 2 2 5 5 9 w 5 3 s G r e q 9 7 4 3 2 : w 8 % 3 z i   . + # +     X # o o o o ",
"O f v <   : 6 - : < 3 5 4 1 : - k 5 % > 9 8 5 5 9 9 r y 0 7 j P i u y r q 9 7 6 ; w 7 $ 1 k t   # & - - * % * - # # # # ",
"0 n Z s 9 i h a i i p p u t e q Z d 0 e u e q t s u a g a y l H g g f s a i u y j n x p h C b q 8 7 8 r p i w 5 6 6 6 6 ",
"I W ^ ~ E E ~ ) ] ` ( ! W R R R  .^ R Q Q T Q ] { / ^ ' ' / _ X.` ` _ _ _ ) ) ) W E Y P P I I P R L L ^ X.X.! S J J J J ",
"      @ $ X O ; q 7 2 ; & & * = ; $ % : > > 9 j a 8 5 e y 9 6 9 0 0 0 q q w w w 9 < > 2 : @ * 7 ; @ O 2 s d <           ",
"  % - @ @ > 5 4 i u y r q 9 7 6 - > 6 8 ; $ 6 c s 9 5 w r 8 7 r e y w 5 0 d s w 2 4 9 q 5 , 4 r 1 , . 1 G D 1   * & % $ ",
"X = - o   @ & # 4 4 3 1 < > : : $ % > 5 , * 4 d t 4 < 6 7 1 1 9 6 9 6 , 4 t t 5 = * = : : - ; , $ &   $ z k %   O O o X ",
"S I I V x b b k J J H H H G G G J Z A P Y L U / ~ P J Y Y K I / Y E U H I / / U J A B Z K Y L A B F b B ` / C V V B B N ",
"N H H n h j g u B B V V C C C Z Q C z b V V Z H D N N S D A P ) F J D B S Y Y D K A b n L ^ Y M v F m v P G n D b b b b ",
"= 6 9 < * - * O > > > , , , < < Z e $ + % * > 5 < - : 5 6 6 a V 7 0 6 < 5 y t 6 w 7 : - t b d > & 8 > % 4 , & 9 % % % % ",
"  - 2 - % = * + # # # # @ @ @ @ Z r #   . X $ < = $ * > ; ; e m , 2 > & : 8 8 > : > $ X 1 f t @   : +   % O   :         ",
"X , 6 1 > 1 < * 4 3 2 1 , > ; ; M i 4 2 < ; < q 6 3 3 3 ; * 9 v 2 5 2 - < q q 1 ; 5 < $ 3 k d : * 6 = @ 2 : + 1 % & * = ",
"k A L F Z S Z n ! Q W T U P K J ` W T W T H K W E U P H m z D ` D H S N A U I S C Y I V K | { H G W G Z E I V L J K L P ",
"7 = + - 3 3 ; % c i 6 6 y d i w p y t 0 < > s L 6 7 9 q r u a s e y w 7 r z v g t e r u t e u h p , 3 M L x r i 0 l n s ",
"4 ; % : 6 7 3 , x r - $ ; 3 3 < 7 2 , = X   < k $ & = : , < 1 2 3 6 2 ; 3 y i 0 6 4 3 3 < : > 2 7 @ * d n y 2 5 : e i 7 ",
".       + $ # o B a > @ $ : < < q 4 < , = * q b % & - > , , , > 7 0 6 < 5 u u 8 0 9 6 2 , : - * 8 & ; p l r 2 4 , 0 t 9 ",
"c N N c z v b l Z z e 5 6 q e e g r 0 e t i v L e r y i p a p p d h d y a x z i d g d y u a y 7 s 0 w k b d r y y d k l ",
"I _ ` L V Z S N ) ~ E R W ! Q W #._ R Q ^ ^ ] @.{ [ [ { | ..O.+.) [ ' / ` X.| ^ ~ ' ` ^ ] @...Q ) W W ) ' ~ E W ( ) [ +.",
"5 k x 4 O # % o         X X X . Z a 3 2 3 : * ; 2 , - = : 4 w i X $ $ + & 1 : o   @ # X ; r 8 O O X .           o   @ 5 ",
"- f z ,     @   $ & * = - : 2 5 } H l z v j p u p e 6 3 7 p b S : 4 6 4 q a y 4 $ 3 4 > w n h > 3 4 1 = $ % * * : # > s ",
"# d x ,   X & + O X         % > N e ; 2 w 0 4 2 4 : + . @ 3 s b X % = = 1 q 7 -   & & X > s q   % = %                 8 ",
"I M ( ! (  .K ( E ../ P ] } E Q [ / ^ _ ^ U R ` ! P H I I K R ] A | Z G ( Y ( P ( L N B J Y J V n D b b U F g k N z v G ",
"b y V v V U l V Z W Z f m C m F F A F J S m S W U C b B C N Z L z F h B S D [ D C c d d k c l f a x p f J A p i i 8 7 i ",
"<   > + - t $ > 7 j 6   o $ - t ; > 4 9 1 - 8 x j 8 ; 1 6 3 2 6 > & + 9 - 0 E e * % @ O O + @ @ . $   + i r o   %       ",
"w ; q & , g < 6 r N d = * - 1 g : 1 9 w 4 < u Z m r 1 5 q 7 4 6 0 @ & p # q { r - > < > * & - , # =   # s y X   1 +   O ",
"e 6 f > > g 4 9 9 B x 7 6 3 2 a q q t u q 7 f G m y 5 9 w 9 8 w a ; > d @ 7 ( 6 3 7 0 0 6 5 7 0 2 7 * : f t o   =     o ",
"! ` <.Q L | E ( ! ;.%.` } ` W ' 1.&.+.#.o. .&.7.=...[ | | '  .*.@.{ ~ o.T / e.Q ] [ } ..X.X. .} } #.` ) %.| L I W K P ( ",
"  1 M :   : X - * t 6 * 6 5 & : H l e e e 9 q i 8 5 8 q 4 , e b 3 u * < < ; u # 2 > : 3 q e 6 > : q 1 * 4 - . - - % < a ",
"  3 F 3   *   ; > t < + 5 9 : < E c 0 8 w 8 4 5 : 1 9 q 1 ; r C & d @ % 6 - 3 @ : # O = 7 0 < +   : #   +     - X . ; a ",
"  8 f ;   & ; . + 2 = 6 $ O i @ x k ; X 0 y < , 6 = ; 3 $   & c     * =   & ,   @ 1 *     7 ;     O     +     *   O 4 g ",
"u S Y B k m C b v R v B Z v K z R ^ S n E ~ U / P B C I H n K @.Z n A B a v Z p v C N h v G V u t d e u v i 5 f w s m L ",
"x M Z C B B S H / 5.G B ` I P H S ! U J ! E W %.X.W U ~ E A D ! ( Y E P M Y { Y D F G G H G S C b B c Z / H f v Z S D G ",
"              * b [ &   r ; O :   ; ; % - X $ j r - o % &       - X $ +   8 m g - $ * , *     # O $ . > h 7     % # O . ",
": @ @ > < - , 0 R ;.2   t > & 6 O 3 3 4 9 ; 4 H 6 % X % 1 < ; = $   @ @ X r S b e 7 8 e 4 # O ; * : % 6 b t X O X X o + ",
"O % - * # @ % = V ( >   1 @ * - + $   @ 3 & > V 7 - .   . X     +   O o   , a 5 ; ; = $ +         +   % w ;             ",
"C _ ..E S K I D [ <./ ( ( Y { P &._ V F _ U L $...] W K J U T Y W I ^ ~ H ~ | I U ~ E F L ( R n L E J I ` U C W R Y P F ",
"= n H u > 8 0 - # q w c y 6 z * #.H 5 5 j 8 * i 7 0 q q s A ! ' 8 4 i p 5 y f , t x g 7 a J V 4 8 y 6 6 y 3 : f 7 0 t a ",
"  7 P @ O   +   O * = # * 1 > + ^ k *       X % 1 X   $ o   < Z X $ # X @ - %   o @     4 n i   # X     o @ @ o     * r ",
"X w J - ;   > o   + @ X O = &   Q k : O .     X o     o .   > m           X             * i 7                       X 3 ",
"r b E s h w l r 5 t u w w p p 0 _ A s i i e q y r 5 7 p y 7 d K 4 9 8 3 7 t 0 > - 5 6 2 t n l 6 7 3 < 2 5 7 4 1 > : 6 f ",
"v D I N C Z F b B L Y J G I U H ) L S L R U Y Q ) W ! ) W G L ) I E R I T / Q G x S J F P / ~ K G S Z S G G A N b x N P "
};
